<svg width="70" height="70" viewBox="0 0 70 70" fill="none" xmlns="http://www.w3.org/2000/svg">
<path d="M66.5 14.0002V60.6668H3.5V14.0002C3.5 11.4228 5.58934 9.3335 8.16667 9.3335H61.8333C64.4107 9.3335 66.5 11.4228 66.5 14.0002Z" fill="#5F473A"/>
<path d="M61.8332 15.1668V51.3335C61.8332 51.9778 61.3108 52.5001 60.6665 52.5001C5.1565 52.5001 9.06484 52.6518 8.56317 52.2085C8.34685 52.039 8.20466 51.7923 8.1665 51.5201C8.1665 51.4035 8.1665 53.0018 8.1665 15.1668C8.1665 14.5225 8.68884 14.0001 9.33317 14.0001C64.1665 14.0001 60.9115 13.8485 61.4365 14.2918C61.6883 14.513 61.8327 14.8317 61.8332 15.1668Z" fill="#48352B"/>
<path d="M57.1663 4.66675V32.6667C57.1663 34.5997 55.5993 36.1668 53.6663 36.1668H41.1247L36.003 44.9401C35.7929 45.2943 35.4115 45.5114 34.9997 45.5114C34.5878 45.5114 34.2065 45.2943 33.9963 44.9401C33.0163 43.2484 33.9963 44.9401 28.8747 36.1668H16.333C14.4 36.1668 12.833 34.5997 12.833 32.6667V4.66675C12.833 2.73375 14.4 1.16675 16.333 1.16675H53.6663C55.5993 1.16675 57.1663 2.73375 57.1663 4.66675Z" fill="#48352B"/>
<path d="M53.6663 4.66675V32.6667C53.6663 34.5997 52.0993 36.1668 50.1663 36.1668H37.6247L33.2497 43.6567L28.8747 36.1668H16.333C14.4 36.1668 12.833 34.5997 12.833 32.6667V4.66675C12.833 2.73375 14.4 1.16675 16.333 1.16675H50.1663C52.0993 1.16675 53.6663 2.73375 53.6663 4.66675Z" fill="#5F473A"/>
<path d="M68.8332 58.3334V61.8334C68.8332 65.6994 65.6992 68.8334 61.8332 68.8334H8.1665C4.30051 68.8334 1.1665 65.6994 1.1665 61.8334V58.3334C1.1665 57.6891 1.68884 57.1667 2.33317 57.1667H67.6665C68.3108 57.1667 68.8332 57.6891 68.8332 58.3334Z" fill="#48352B"/>
<path d="M46.6663 57.1667V59.5001C46.6663 61.4331 45.0993 63.0001 43.1663 63.0001H26.833C24.9 63.0001 23.333 61.4331 23.333 59.5001V57.1667H46.6663Z" fill="#715242"/>
<path d="M43.1663 57.1667V59.5001C43.1663 61.4331 41.5993 63.0001 39.6663 63.0001H26.833C24.9 63.0001 23.333 61.4331 23.333 59.5001V57.1667H43.1663Z" fill="#5F473A"/>
<path d="M8.1665 68.8335H11.6665C7.80051 68.8335 4.6665 65.6995 4.6665 61.8335V58.3335C4.6665 57.6892 5.18884 57.1668 5.83317 57.1668H6.99984V14.0002C6.99984 11.4228 9.08917 9.3335 11.6665 9.3335H8.1665C5.58917 9.3335 3.49984 11.4228 3.49984 14.0002V57.1668H2.33317C1.68884 57.1668 1.1665 57.6892 1.1665 58.3335V61.8335C1.1665 65.6995 4.30051 68.8335 8.1665 68.8335Z" fill="#715242"/>
<path d="M16.333 4.66675C16.333 2.73375 17.9 1.16675 19.833 1.16675H16.333C14.4 1.16675 12.833 2.73375 12.833 4.66675V9.33342H16.333V4.66675Z" fill="#715242"/>
<path d="M2.3335 14H4.66683V23.3333H2.3335V14Z" fill="#715242"/>
<path d="M67.6667 56V14C67.6667 10.7783 65.055 8.16667 61.8333 8.16667H58.3333V4.66667C58.3333 2.08934 56.244 0 53.6667 0H16.3333C13.756 0 11.6667 2.08934 11.6667 4.66667V8.16667H8.16667C4.94501 8.16667 2.33333 10.7783 2.33333 14C2.33333 14.6443 2.85567 15.1667 3.5 15.1667C4.14433 15.1667 4.66667 14.6443 4.66667 14C4.66667 12.067 6.23367 10.5 8.16667 10.5H11.6667V12.8333H9.33333C8.04467 12.8333 7 13.878 7 15.1667V51.3333C7 52.622 8.04467 53.6667 9.33333 53.6667H60.6667C61.9553 53.6667 63 52.622 63 51.3333V15.1667C63 13.878 61.9553 12.8333 60.6667 12.8333H58.3333V10.5H61.8333C63.7663 10.5 65.3333 12.067 65.3333 14V56H4.66667V23.3333C4.66667 22.689 4.14433 22.1667 3.5 22.1667C2.85567 22.1667 2.33333 22.689 2.33333 23.3333V56C1.04467 56 0 57.0447 0 58.3333V61.8333C0 66.3437 3.65634 70 8.16667 70H61.8333C66.3437 70 70 66.3437 70 61.8333V58.3333C70 57.0447 68.9553 56 67.6667 56ZM14 4.66667C14 3.378 15.0447 2.33333 16.3333 2.33333H53.6667C54.9553 2.33333 56 3.378 56 4.66667V32.6667C56 33.9553 54.9553 35 53.6667 35H41.125C40.7107 35.0025 40.3288 35.2245 40.1217 35.5833L35 44.3333L29.8783 35.5833C29.6712 35.2245 29.2893 35.0025 28.875 35H16.3333C15.0447 35 14 33.9553 14 32.6667V4.66667ZM60.6667 15.1667V51.3333H9.33333V15.1667H11.6667V32.6667C11.6667 35.244 13.756 37.3333 16.3333 37.3333H28.21L32.9817 45.5C33.3991 46.2196 34.1681 46.6625 35 46.6625C35.8319 46.6625 36.6009 46.2196 37.0183 45.5L41.79 37.3333H53.6667C56.244 37.3333 58.3333 35.244 58.3333 32.6667V15.1667H60.6667ZM45.5 58.3333V59.5C45.5 60.7887 44.4553 61.8333 43.1667 61.8333H26.8333C25.5447 61.8333 24.5 60.7887 24.5 59.5V58.3333H45.5ZM67.6667 61.8333C67.6667 65.055 65.055 67.6667 61.8333 67.6667H8.16667C4.94501 67.6667 2.33333 65.055 2.33333 61.8333V58.3333H22.1667V59.5C22.1667 62.0773 24.256 64.1667 26.8333 64.1667H43.1667C45.744 64.1667 47.8333 62.0773 47.8333 59.5V58.3333H67.6667V61.8333Z" fill="#E25F23"/>
<path d="M3.50016 19.8333C2.85583 19.8333 2.3335 19.311 2.3335 18.6667C2.3335 18.0223 2.85583 17.5 3.50016 17.5C4.1445 17.5 4.66683 18.0223 4.66683 18.6667C4.66683 19.311 4.1445 19.8333 3.50016 19.8333Z" fill="#E25F23"/>
<path d="M7.00016 62.9998C6.35583 62.9998 5.8335 62.4775 5.8335 61.8332C5.8335 61.1888 6.35583 60.6665 7.00016 60.6665C7.6445 60.6665 8.16683 61.1888 8.16683 61.8332C8.16683 62.4775 7.6445 62.9998 7.00016 62.9998Z" fill="#E25F23"/>
<path d="M10.5002 62.9998C9.85583 62.9998 9.3335 62.4775 9.3335 61.8332C9.3335 61.1888 9.85583 60.6665 10.5002 60.6665C11.1445 60.6665 11.6668 61.1888 11.6668 61.8332C11.6668 62.4775 11.1445 62.9998 10.5002 62.9998Z" fill="#E25F23"/>
<path d="M17.5002 60.6665H14.0002C13.3558 60.6665 12.8335 61.1888 12.8335 61.8332C12.8335 62.4775 13.3558 62.9998 14.0002 62.9998H17.5002C18.1445 62.9998 18.6668 62.4775 18.6668 61.8332C18.6668 61.1888 18.1445 60.6665 17.5002 60.6665Z" fill="#E25F23"/>
<path d="M29.1668 45.5H17.5002C16.8558 45.5 16.3335 46.0223 16.3335 46.6667C16.3335 47.311 16.8558 47.8333 17.5002 47.8333H29.1668C29.8112 47.8333 30.3335 47.311 30.3335 46.6667C30.3335 46.0223 29.8112 45.5 29.1668 45.5Z" fill="#E25F23"/>
<path d="M52.4998 45.5H40.8332C40.1888 45.5 39.6665 46.0223 39.6665 46.6667C39.6665 47.311 40.1888 47.8333 40.8332 47.8333H52.4998C53.1442 47.8333 53.6665 47.311 53.6665 46.6667C53.6665 46.0223 53.1442 45.5 52.4998 45.5Z" fill="#E25F23"/>
<path d="M35.0002 24.5001C33.7115 24.5001 32.6668 23.4554 32.6668 22.1667C32.6668 21.5224 32.1445 21.0001 31.5002 21.0001C30.8558 21.0001 30.3335 21.5224 30.3335 22.1667C30.3404 24.2891 31.7785 26.1395 33.8335 26.6701V28.0001C33.8335 28.6444 34.3558 29.1667 35.0002 29.1667C35.6445 29.1667 36.1668 28.6444 36.1668 28.0001V26.6701C38.4138 26.0601 39.8674 23.8872 39.5736 21.5774C39.2797 19.2677 37.3283 17.528 35.0002 17.5001C33.7115 17.5001 32.6668 16.4554 32.6668 15.1667C32.6668 13.8781 33.7115 12.8334 35.0002 12.8334C36.2888 12.8334 37.3335 13.8781 37.3335 15.1667C37.3335 15.8111 37.8558 16.3334 38.5002 16.3334C39.1445 16.3334 39.6668 15.8111 39.6668 15.1667C39.6599 13.0444 38.2218 11.194 36.1668 10.6634V9.33341C36.1668 8.68908 35.6445 8.16675 35.0002 8.16675C34.3558 8.16675 33.8335 8.68908 33.8335 9.33341V10.6634C31.5865 11.2734 30.1329 13.4463 30.4267 15.7561C30.7206 18.0658 32.672 19.8055 35.0002 19.8334C36.2888 19.8334 37.3335 20.8781 37.3335 22.1667C37.3335 23.4554 36.2888 24.5001 35.0002 24.5001Z" fill="#E25F23"/>
</svg>
