<svg width="70" height="70" viewBox="0 0 70 70" fill="none" xmlns="http://www.w3.org/2000/svg">
<g clip-path="url(#clip0)">
<path d="M28.0002 21.0002V39.6669L17.5002 39.6669C17.1694 39.6686 16.8535 39.5298 16.631 39.285C16.4086 39.0403 16.3004 38.7127 16.3335 38.3836C16.3851 37.64 16.4786 36.9 16.6135 36.1669C17.5468 31.0219 21.9685 30.0186 24.6285 26.6002C25.9462 24.8574 27.0764 22.9803 28.0002 21.0002Z" fill="#48352B"/>
<path d="M53.6667 38.3836C53.6997 38.7127 53.5916 39.0403 53.3691 39.285C53.1466 39.5298 52.8307 39.6686 52.5 39.6669L42 39.6669V21.0002C42.9053 22.9778 44.0159 24.8547 45.3133 26.6002C48.545 30.7536 53.13 30.7186 53.6667 38.3836Z" fill="#715242"/>
<path d="M50.1666 38.3837C50.1997 38.7128 50.0916 39.0404 49.8691 39.2851C49.6466 39.5299 49.3307 39.6687 49 39.667L42 39.667V26.6003C45.1967 30.707 49.63 30.8003 50.1666 38.3837Z" fill="#48352B"/>
<path d="M17.5 49.0002H52.5V68.8336H17.5V49.0002Z" fill="#715242"/>
<path d="M17.5 49.0002H49V68.8336H17.5V49.0002Z" fill="#48352B"/>
<path d="M33.2387 61.437L29.9371 64.7387C29.718 64.9596 29.4198 65.0838 29.1087 65.0838C28.7976 65.0838 28.4994 64.9596 28.2804 64.7387C25.9471 62.4054 25.5971 62.1137 23.6721 60.072C23.2171 59.6054 23.3337 59.5004 23.3337 55.942C23.3337 55.2977 23.8561 54.7754 24.5004 54.7754C28.0004 54.7754 28.1637 54.6587 28.6304 55.1137C30.6137 57.0504 30.9637 57.447 33.2387 59.7804C33.4596 59.9994 33.5838 60.2976 33.5838 60.6087C33.5838 60.9198 33.4596 61.218 33.2387 61.437Z" fill="#715242"/>
<path d="M31.1619 59.36L27.8603 62.6617C27.6412 62.8826 27.343 63.0068 27.0319 63.0068C26.7209 63.0068 26.4227 62.8826 26.2036 62.6617L23.6719 60.13C23.2286 59.6517 23.3336 59.5584 23.3336 56C23.3336 55.3557 23.8559 54.8334 24.5003 54.8334C28.0003 54.8334 28.1636 54.7284 28.6303 55.1717L31.1619 57.7034C31.3828 57.9224 31.507 58.2206 31.507 58.5317C31.507 58.8428 31.3828 59.141 31.1619 59.36Z" fill="#48352B"/>
<path d="M42 13.9302L42.0001 39.6669H28L28 13.9302C27.9936 11.5264 28.6735 9.17075 29.96 7.1402C33.075 2.25186 33.11 2.15853 33.25 1.9952C33.7149 1.42636 34.4269 1.11852 35.1598 1.16954C35.8926 1.22056 36.5552 1.62409 36.9367 2.25186L40.04 7.1402C41.3265 9.17075 42.0065 11.5264 42 13.9302Z" fill="#715242"/>
<path d="M38.5 13.9304L38.5001 39.667H28L28 13.9304C27.9936 11.5266 28.6735 9.17091 29.96 7.14036C33.075 2.25203 33.11 2.15869 33.25 1.99536C33.4017 2.18203 33.46 2.31036 36.54 7.14036C37.8265 9.17091 38.5065 11.5266 38.5 13.9304Z" fill="#1C1D1C"/>
<path d="M37.2053 27.7552L36.0387 25.4218C35.839 25.0322 35.4381 24.7871 35.0003 24.7871C34.5625 24.7871 34.1616 25.0322 33.962 25.4218C32.667 28.0002 32.667 27.9068 32.667 28.2802V39.6668H37.3337C37.3337 27.2302 37.392 28.1052 37.2053 27.7552Z" fill="#48352B"/>
<path d="M21 49H17.5V68.8333H21V49Z" fill="#1C1D1C"/>
<path d="M16.6717 36.1667C16.5368 36.8997 16.4433 37.6398 16.3917 38.3833C16.3593 38.7025 16.4598 39.021 16.6695 39.2637C16.8791 39.5065 17.1796 39.6523 17.5 39.6667H21C20.6693 39.6683 20.3534 39.5295 20.1309 39.2848C19.9085 39.0401 19.8003 38.7124 19.8334 38.3833C19.885 37.6398 19.9785 36.8997 20.1134 36.1667C21.0467 31.0217 25.4684 30.0183 28.1284 26.6C29.4461 24.8571 30.5763 22.9801 31.5001 21V13.93C31.4936 11.5262 32.1736 9.17056 33.4601 7.14001C36.4817 2.39168 36.6101 2.17001 36.7384 2.00668C36.3109 1.47864 35.6678 1.17188 34.9884 1.17188C34.309 1.17188 33.6659 1.47864 33.2384 2.00668C33.0984 2.17001 33.0634 2.26334 29.9484 7.15168C28.6681 9.18012 27.9923 11.5313 28 13.93V21C27.0947 22.9775 25.9842 24.8545 24.6867 26.6C22.0267 30.0183 17.605 31.0217 16.6717 36.1667Z" fill="#1C1D1C"/>
<path d="M21.4898 28.0701L22.9598 29.8901C21.7495 30.7668 20.6139 31.7423 19.5648 32.8067C18.6593 33.8038 18.0564 35.038 17.8265 36.3651L15.4932 35.9567C15.817 34.2128 16.6257 32.5955 17.8265 31.2901C18.9574 30.1183 20.1826 29.0413 21.4898 28.0701Z" fill="#1C1D1C"/>
<path d="M3.5 67.6667H1.16667C0.522334 67.6667 0 68.1891 0 68.8334C0 69.4778 0.522334 70.0001 1.16667 70.0001H3.5C4.14433 70.0001 4.66667 69.4778 4.66667 68.8334C4.66667 68.1891 4.14433 67.6667 3.5 67.6667Z" fill="#E25F23"/>
<path d="M68.8334 67.6666H53.6667V51.2632L59.99 55.7783C60.187 55.9208 60.4235 55.9983 60.6667 55.9999C61.1711 55.9967 61.6163 55.6697 61.7702 55.1893C61.9242 54.7089 61.7519 54.184 61.3434 53.8882L53.1767 48.0549C53.1767 48.0549 53.1067 48.0549 53.0717 48.0549L52.85 47.9616H52.6283L52.5 47.8333H17.5H17.3833H17.15L16.9283 47.9266C16.9283 47.9266 16.8583 47.9266 16.8233 47.9266L8.65667 53.7599C8.25653 53.8808 7.95127 54.206 7.85588 54.6129C7.7605 55.0199 7.88947 55.4468 8.19422 55.7329C8.49897 56.019 8.9332 56.1208 9.33333 55.9999C9.57648 55.9983 9.81306 55.9208 10.01 55.7783L16.3333 51.2632V67.6666H8.16667C7.52233 67.6666 7 68.1889 7 68.8332C7 69.4776 7.52233 69.9999 8.16667 69.9999H68.8334C69.4777 69.9999 70 69.4776 70 68.8332C70 68.1889 69.4777 67.6666 68.8334 67.6666ZM24.5 55.9999H27.8017L32.4683 60.6666L29.1667 63.9099L24.5583 59.2432L24.5 55.9999ZM18.6667 67.6666V50.1666H23.3333V53.6666C23.3403 53.7659 23.3599 53.8639 23.3917 53.9583C22.6407 54.3636 22.1709 55.1466 22.1667 55.9999V59.3016C22.1693 59.9194 22.4168 60.511 22.855 60.9466L27.4633 65.5549C28.3734 66.4596 29.8433 66.4596 30.7533 65.5549L34.055 62.2532C34.9597 61.3432 34.9597 59.8733 34.055 58.9633L29.3883 54.3549C28.9672 53.9307 28.3992 53.6843 27.8017 53.6666H25.6667V50.1666H51.3334V67.6666H18.6667Z" fill="#E25F23"/>
<path d="M40.8335 52.5H35.0002C34.3558 52.5 33.8335 53.0223 33.8335 53.6667C33.8335 54.311 34.3558 54.8333 35.0002 54.8333H40.8335C41.4778 54.8333 42.0002 54.311 42.0002 53.6667C42.0002 53.0223 41.4778 52.5 40.8335 52.5Z" fill="#E25F23"/>
<path d="M47.8335 52.5H45.5002C44.8558 52.5 44.3335 53.0223 44.3335 53.6667C44.3335 54.311 44.8558 54.8333 45.5002 54.8333H47.8335C48.4778 54.8333 49.0002 54.311 49.0002 53.6667C49.0002 53.0223 48.4778 52.5 47.8335 52.5Z" fill="#E25F23"/>
<path d="M18.6667 33.1685C18.0223 33.1685 17.5 32.6462 17.5 32.0019C17.5 31.3575 18.0223 30.8352 18.6667 30.8352C19.311 30.8352 19.8333 31.3575 19.8333 32.0019C19.8333 32.6462 19.311 33.1685 18.6667 33.1685Z" fill="#E25F23"/>
<path d="M15.5282 35.9567C15.2996 37.1805 15.1786 38.4219 15.1665 39.6668C15.1665 40.3111 15.6888 40.8334 16.3332 40.8334H20.9998V42.0001C20.9998 42.6444 21.5222 43.1668 22.1665 43.1668C22.8108 43.1668 23.3332 42.6444 23.3332 42.0001V40.8334H25.6665V43.1668C25.6665 43.8111 26.1888 44.3334 26.8332 44.3334C27.4775 44.3334 27.9998 43.8111 27.9998 43.1668V40.8334H30.3332V45.5001C30.3332 46.1444 30.8555 46.6668 31.4998 46.6668C32.1442 46.6668 32.6665 46.1444 32.6665 45.5001V40.8334H37.3332V45.5001C37.3332 46.1444 37.8555 46.6668 38.4998 46.6668C39.1442 46.6668 39.6665 46.1444 39.6665 45.5001V40.8334H41.9998V43.1668C41.9998 43.8111 42.5222 44.3334 43.1665 44.3334C43.8108 44.3334 44.3332 43.8111 44.3332 43.1668V40.8334H46.6665V42.0001C46.6665 42.6444 47.1888 43.1668 47.8332 43.1668C48.4775 43.1668 48.9998 42.6444 48.9998 42.0001V40.8334H53.6665C54.3108 40.8334 54.8332 40.3111 54.8332 39.6668C54.8204 38.4258 54.6994 37.1883 54.4715 35.9684C53.7948 32.2234 51.4148 30.3568 49.3032 28.7118C48.1679 27.9052 47.1372 26.9608 46.2348 25.9001C45.0383 24.2824 44.0102 22.5467 43.1665 20.7201V13.9301C43.1763 11.3022 42.4312 8.72679 41.0198 6.51008L37.9282 1.63342C37.2797 0.655826 36.1846 0.0681152 35.0115 0.0681152C33.8384 0.0681152 32.7433 0.655826 32.0948 1.63342L28.9798 6.51008C27.5684 8.72679 26.8234 11.3022 26.8332 13.9301V20.7201C25.9888 22.5427 24.9607 24.2744 23.7648 25.8884C23.0941 26.7018 22.3306 27.434 21.4898 28.0701C20.9931 28.4742 20.915 29.2032 21.3148 29.7034C21.5076 29.9472 21.7897 30.104 22.0985 30.1391C22.4073 30.1741 22.7174 30.0845 22.9598 29.8901C23.9586 29.138 24.8668 28.2728 25.6665 27.3118C26.1098 26.7401 26.5065 26.1451 26.8915 25.5501V38.5001H17.4998C17.5621 37.8001 17.6554 37.0884 17.7798 36.3651C17.8528 35.9483 17.6978 35.5242 17.3733 35.2526C17.0488 34.9811 16.6041 34.9032 16.2067 35.0485C15.8092 35.1937 15.5194 35.5399 15.4465 35.9567H15.5282ZM33.8332 38.5001V28.2801L34.9998 25.9468L36.1665 28.2801V38.5001H33.8332ZM44.3332 27.3118C45.3578 28.5333 46.5339 29.6193 47.8332 30.5434C49.8632 32.1301 51.6248 33.4951 52.1382 36.3768C52.2626 37.1001 52.356 37.8117 52.4182 38.5117H43.1665V25.5501C43.5515 26.1451 43.9482 26.7401 44.3915 27.3118H44.3332ZM29.1665 13.9301C29.163 11.7467 29.7778 9.60692 30.9398 7.75842L34.0432 2.88175C34.2614 2.56912 34.6186 2.38284 34.9998 2.38284C35.3811 2.38284 35.7383 2.56912 35.9565 2.88175L39.0598 7.75842C40.2218 9.60692 40.8367 11.7467 40.8332 13.9301L40.8332 38.5001H38.4998V28.2801C38.5013 27.9158 38.4174 27.5562 38.2548 27.2301L37.0882 24.8968C36.6935 24.1048 35.8847 23.6042 34.9998 23.6042C34.115 23.6042 33.3062 24.1048 32.9115 24.8968L31.7448 27.2301C31.5823 27.5562 31.4984 27.9158 31.4998 28.2801V38.5001H29.1665L29.1665 13.9301Z" fill="#E25F23"/>
<path d="M32.6666 14.3734L33.8332 10.8734C33.9666 10.4775 33.8786 10.0404 33.6024 9.72694C33.3262 9.41344 32.9037 9.27113 32.4941 9.3536C32.0845 9.43608 31.75 9.73081 31.6166 10.1268L30.4499 13.6268C30.3289 13.9202 30.3327 14.2503 30.4604 14.5408C30.5881 14.8314 30.8286 15.0574 31.1266 15.1668C31.2505 15.1828 31.376 15.1828 31.4999 15.1668C32.0228 15.1941 32.4997 14.8697 32.6666 14.3734Z" fill="#E25F23"/>
<path d="M37.3917 14.3735C37.5522 14.8486 37.9985 15.1681 38.5 15.1668C38.6265 15.1636 38.752 15.144 38.8734 15.1085C39.1785 15.0224 39.4354 14.8158 39.5851 14.5363C39.7347 14.2568 39.7642 13.9285 39.6667 13.6268L38.5 10.1268C38.3667 9.73081 38.0322 9.43608 37.6226 9.3536C37.2129 9.27113 36.7905 9.41344 36.5142 9.72694C36.238 10.0404 36.15 10.4775 36.2834 10.8734L37.3917 14.3735Z" fill="#E25F23"/>
<path d="M24.4998 35.0001V33.8334C24.4998 33.1891 23.9775 32.6667 23.3332 32.6667C22.6888 32.6667 22.1665 33.1891 22.1665 33.8334V35.0001C22.1665 35.6444 22.6888 36.1667 23.3332 36.1667C23.9775 36.1667 24.4998 35.6444 24.4998 35.0001Z" fill="#E25F23"/>
<path d="M46.6667 36.1667C47.311 36.1667 47.8333 35.6444 47.8333 35.0001V33.8334C47.8333 33.1891 47.311 32.6667 46.6667 32.6667C46.0223 32.6667 45.5 33.1891 45.5 33.8334V35.0001C45.5 35.6444 46.0223 36.1667 46.6667 36.1667Z" fill="#E25F23"/>
<path d="M5.00477 7.82825C5.22383 8.04912 5.52202 8.17335 5.8331 8.17335C6.14418 8.17335 6.44237 8.04912 6.66143 7.82825L6.99977 7.47825L7.3381 7.82825C7.55716 8.04912 7.85536 8.17335 8.16643 8.17335C8.47751 8.17335 8.77571 8.04912 8.99477 7.82825C9.21563 7.60919 9.33986 7.311 9.33986 6.99992C9.33986 6.68884 9.21563 6.39065 8.99477 6.17158L8.64477 5.83325L8.99477 5.49492C9.2907 5.19898 9.40628 4.76765 9.29796 4.36339C9.18964 3.95914 8.87388 3.64338 8.46962 3.53506C8.06537 3.42674 7.63403 3.54232 7.3381 3.83825L6.99977 4.18825L6.66143 3.83825C6.20396 3.38077 5.46224 3.38077 5.00477 3.83825C4.54729 4.29573 4.54729 5.03744 5.00477 5.49492L5.35477 5.83325L5.00477 6.17158C4.7839 6.39065 4.65967 6.68884 4.65967 6.99992C4.65967 7.311 4.7839 7.60919 5.00477 7.82825Z" fill="#E25F23"/>
<path d="M12.0048 22.9952C12.2238 23.2161 12.522 23.3403 12.8331 23.3403C13.1442 23.3403 13.4424 23.2161 13.6614 22.9952L13.9998 22.6452L14.3381 22.9952C14.5572 23.2161 14.8554 23.3403 15.1664 23.3403C15.4775 23.3403 15.7757 23.2161 15.9948 22.9952C16.2156 22.7761 16.3399 22.478 16.3399 22.1669C16.3399 21.8558 16.2156 21.5576 15.9948 21.3385L15.6448 21.0002L15.9948 20.6619C16.4522 20.2044 16.4522 19.4627 15.9948 19.0052C15.5373 18.5477 14.7956 18.5477 14.3381 19.0052L13.9998 19.3552L13.6614 19.0052C13.204 18.5477 12.4622 18.5477 12.0048 19.0052C11.5473 19.4627 11.5473 20.2044 12.0048 20.6619L12.3548 21.0002L12.0048 21.3385C11.7839 21.5576 11.6597 21.8558 11.6597 22.1669C11.6597 22.478 11.7839 22.7761 12.0048 22.9952Z" fill="#E25F23"/>
<path d="M49.3383 8.995C49.5573 9.21586 49.8555 9.3401 50.1666 9.3401C50.4777 9.3401 50.7759 9.21586 50.9949 8.995L51.3333 8.645L51.6716 8.995C51.8906 9.21586 52.1888 9.3401 52.4999 9.3401C52.811 9.3401 53.1092 9.21586 53.3282 8.995C53.5491 8.77594 53.6733 8.47774 53.6733 8.16667C53.6733 7.85559 53.5491 7.55739 53.3282 7.33833L52.9783 7L53.3282 6.66167C53.6242 6.36573 53.7398 5.9344 53.6314 5.53014C53.5231 5.12589 53.2074 4.81013 52.8031 4.70181C52.3989 4.59349 51.9675 4.70906 51.6716 5.005L51.3333 5.355L50.9949 5.005C50.5374 4.54752 49.7957 4.54752 49.3383 5.005C48.8808 5.46247 48.8808 6.20419 49.3383 6.66167L49.6883 7L49.3383 7.33833C49.1174 7.55739 48.9932 7.85559 48.9932 8.16667C48.9932 8.47774 49.1174 8.77594 49.3383 8.995Z" fill="#E25F23"/>
<path d="M63.3383 24.1617C63.5573 24.3826 63.8555 24.5068 64.1666 24.5068C64.4777 24.5068 64.7759 24.3826 64.9949 24.1617L65.3333 23.8117L65.6716 24.1617C65.8906 24.3826 66.1888 24.5068 66.4999 24.5068C66.811 24.5068 67.1092 24.3826 67.3282 24.1617C67.5491 23.9427 67.6733 23.6445 67.6733 23.3334C67.6733 23.0223 67.5491 22.7241 67.3282 22.5051L66.9783 22.1667L67.3282 21.8284C67.7857 21.3709 67.7857 20.6292 67.3282 20.1717C66.8708 19.7142 66.1291 19.7142 65.6716 20.1717L65.3333 20.5217L64.9949 20.1717C64.5374 19.7142 63.7957 19.7142 63.3383 20.1717C62.8808 20.6292 62.8808 21.3709 63.3383 21.8284L63.6883 22.1667L63.3383 22.5051C63.1174 22.7241 62.9932 23.0223 62.9932 23.3334C62.9932 23.6445 63.1174 23.9427 63.3383 24.1617Z" fill="#E25F23"/>
</g>
<defs>
<clipPath id="clip0">
<rect width="70" height="70" fill="white"/>
</clipPath>
</defs>
</svg>
