<svg width="70" height="70" viewBox="0 0 70 70" fill="none" xmlns="http://www.w3.org/2000/svg">
<path d="M59.5003 1.16675H10.5003C5.34567 1.16675 1.16699 5.34542 1.16699 10.5001V59.5001C1.16699 64.6547 5.34567 68.8334 10.5003 68.8334H59.5003C64.655 68.8334 68.8337 64.6547 68.8337 59.5001V10.5001C68.8337 5.34542 64.655 1.16675 59.5003 1.16675Z" fill="#48352B"/>
<path d="M59.501 1.16675H56.001C61.1556 1.16675 65.3343 5.34542 65.3343 10.5001V59.5001C65.3343 64.6547 61.1556 68.8334 56.001 68.8334H59.501C64.6556 68.8334 68.8343 64.6547 68.8343 59.5001V10.5001C68.8343 5.34542 64.6556 1.16675 59.501 1.16675Z" fill="#715242"/>
<path d="M37.3343 31.6984V19.0401C40.0363 19.8287 41.9213 22.2698 42.001 25.0834C42.001 27.0164 43.568 28.5834 45.501 28.5834C47.434 28.5834 49.001 27.0164 49.001 25.0834C48.8799 18.4124 43.9386 12.8139 37.3343 11.8651V10.5001C37.3343 9.21142 36.2896 8.16675 35.001 8.16675C33.7123 8.16675 32.6676 9.21142 32.6676 10.5001V11.8651C26.0634 12.8139 21.122 18.4124 21.001 25.0834C21.122 31.7544 26.0634 37.353 32.6676 38.3017V50.9601C29.97 50.1651 28.0879 47.7277 28.001 44.9167C28.001 42.9837 26.434 41.4167 24.501 41.4167C22.568 41.4167 21.001 42.9837 21.001 44.9167C21.122 51.5877 26.0634 57.1863 32.6676 58.1351C32.6676 59.5467 32.551 60.2351 33.251 61.0284C33.891 61.7542 34.9126 62.0096 35.8189 61.6704C36.7252 61.3312 37.3281 60.4678 37.3343 59.5001V58.1351C43.9386 57.1863 48.8799 51.5877 49.001 44.9167C48.8799 38.2458 43.9386 32.6472 37.3343 31.6984ZM32.6676 31.1267C29.97 30.3318 28.0879 27.8944 28.001 25.0834C28.0915 22.2737 29.9722 19.8382 32.6676 19.0401V31.1267ZM37.3343 50.9601V38.8734C40.0738 39.6019 41.9807 42.082 41.9807 44.9167C41.9807 47.7515 40.0738 50.2316 37.3343 50.9601Z" fill="#1C1D1C"/>
<path d="M10.5003 68.8334H14.0003C8.84567 68.8334 4.66699 64.6547 4.66699 59.5001V10.5001C4.66699 5.34542 8.84567 1.16675 14.0003 1.16675H10.5003C5.34567 1.16675 1.16699 5.34542 1.16699 10.5001V59.5001C1.16699 64.6547 5.34567 68.8334 10.5003 68.8334Z" fill="#1C1D1C"/>
<path d="M0 10.5H2.33333V19.8333H0V10.5Z" fill="#48352B"/>
<path d="M1.16667 16.3333C0.522334 16.3333 0 15.811 0 15.1667C0 14.5223 0.522334 14 1.16667 14C1.811 14 2.33333 14.5223 2.33333 15.1667C2.33333 15.811 1.811 16.3333 1.16667 16.3333Z" fill="#E25F23"/>
<path d="M10.5 70H59.5C65.299 70 70 65.299 70 59.5V10.5C70 4.70101 65.299 0 59.5 0H10.5C4.70101 0 0 4.70101 0 10.5C0 10.9168 0.222365 11.302 0.583333 11.5104C0.944301 11.7188 1.38903 11.7188 1.75 11.5104C2.11097 11.302 2.33333 10.9168 2.33333 10.5C2.33333 5.98967 5.98967 2.33333 10.5 2.33333H59.5C64.0103 2.33333 67.6667 5.98967 67.6667 10.5V59.5C67.6667 64.0103 64.0103 67.6667 59.5 67.6667H10.5C5.98967 67.6667 2.33333 64.0103 2.33333 59.5V19.8333C2.33333 19.189 1.811 18.6667 1.16667 18.6667C0.522334 18.6667 0 19.189 0 19.8333V59.5C0 65.299 4.70101 70 10.5 70Z" fill="#E25F23"/>
<path d="M36.6458 51.9048C36.848 52.0456 37.0877 52.1228 37.3341 52.1264C37.4541 52.1432 37.5758 52.1432 37.6958 52.1264C40.9268 51.2531 43.171 48.3218 43.171 44.9748C43.171 41.6278 40.9268 38.6965 37.6958 37.8231C37.3307 37.7035 36.9302 37.7714 36.6248 38.0045C36.3194 38.2376 36.1484 38.6061 36.1675 38.9898V50.9598C36.1665 51.3332 36.3443 51.6845 36.6458 51.9048ZM38.5008 40.7281C39.9526 41.6251 40.8363 43.2099 40.8363 44.9164C40.8363 46.623 39.9526 48.2078 38.5008 49.1048V40.7281Z" fill="#E25F23"/>
<path d="M29.1673 44.9167C29.1673 42.3393 27.078 40.25 24.5007 40.25C21.9233 40.25 19.834 42.3393 19.834 44.9167C19.9186 51.7926 24.7694 57.6863 31.5006 59.0917V59.5C31.5006 61.433 33.0677 63 35.0006 63C36.9336 63 38.5006 61.433 38.5006 59.5V59.0917C45.2807 57.7662 50.1728 51.8251 50.1728 44.9167C50.1728 38.0083 45.2807 32.0671 38.5006 30.7417V20.895C39.9242 21.8184 40.798 23.3869 40.834 25.0833C40.834 27.6607 42.9233 29.75 45.5006 29.75C48.078 29.75 50.1673 27.6607 50.1673 25.0833C50.0827 18.2075 45.2319 12.3137 38.5006 10.9083V10.5C38.5006 8.567 36.9336 7 35.0006 7C33.0677 7 31.5006 8.567 31.5006 10.5V10.9083C24.7694 12.3137 19.9186 18.2075 19.834 25.0833C19.9186 31.9592 24.7694 37.8529 31.5006 39.2583V49.105C30.0771 48.1816 29.2033 46.6131 29.1673 44.9167ZM32.854 37.1467C26.8059 36.3081 22.2704 31.1884 22.1673 25.0833C22.2704 18.9783 26.8059 13.8585 32.854 13.02C33.4246 12.9276 33.8414 12.4313 33.834 11.8533V10.5C33.834 9.85567 34.3563 9.33333 35.0006 9.33333C35.645 9.33333 36.1673 9.85567 36.1673 10.5V11.865C36.1599 12.443 36.5767 12.9392 37.1473 13.0317C43.1911 13.8695 47.7252 18.9828 47.834 25.0833C47.834 26.372 46.7893 27.4167 45.5006 27.4167C44.212 27.4167 43.1673 26.372 43.1673 25.0833C43.0908 21.7639 40.8796 18.8737 37.6957 17.9317C37.3306 17.8121 36.93 17.8799 36.6246 18.113C36.3193 18.3461 36.1482 18.7146 36.1673 19.0983V31.6983C36.1599 32.2763 36.5767 32.7726 37.1473 32.865C43.2328 33.6235 47.8005 38.7958 47.8005 44.9283C47.8005 51.0609 43.2328 56.2332 37.1473 56.9917C36.5767 57.0841 36.1599 57.5804 36.1673 58.1583V59.5C36.1673 60.1443 35.645 60.6667 35.0006 60.6667C34.3563 60.6667 33.834 60.1443 33.834 59.5V58.135C33.8414 57.5571 33.4246 57.0608 32.854 56.9683C26.8102 56.1305 22.2761 51.0173 22.1673 44.9167C22.1673 43.628 23.212 42.5833 24.5007 42.5833C25.7893 42.5833 26.834 43.628 26.834 44.9167C26.9105 48.2361 29.1217 51.1263 32.3056 52.0683C32.6707 52.1879 33.0713 52.1201 33.3767 51.887C33.682 51.6539 33.8531 51.2854 33.834 50.9017V38.3017C33.8356 37.7281 33.4201 37.2384 32.854 37.1467Z" fill="#E25F23"/>
<path d="M33.834 19.0401C33.8531 18.6564 33.682 18.2879 33.3767 18.0548C33.0713 17.8216 32.6707 17.7538 32.3056 17.8734C29.1015 18.8219 26.8853 21.7422 26.834 25.0834C26.9105 28.4029 29.1217 31.2931 32.3056 32.2351C32.4229 32.2714 32.5446 32.291 32.6673 32.2934C32.9137 32.2897 33.1534 32.2126 33.3556 32.0717C33.6571 31.8514 33.8349 31.5001 33.834 31.1267V19.0401ZM31.5006 29.2717C30.0489 28.3747 29.1652 26.7899 29.1652 25.0834C29.1652 23.3769 30.0489 21.7921 31.5006 20.8951V29.2717Z" fill="#E25F23"/>
<path d="M5.83366 23.3332C6.47799 23.3332 7.00033 22.8108 7.00033 22.1665V9.33317C7.00033 8.68884 6.47799 8.1665 5.83366 8.1665C5.18933 8.1665 4.66699 8.68884 4.66699 9.33317V22.1665C4.66699 22.8108 5.18933 23.3332 5.83366 23.3332Z" fill="#E25F23"/>
<path d="M4.66699 32.6668C4.66699 33.3112 5.18933 33.8335 5.83366 33.8335C6.47799 33.8335 7.00033 33.3112 7.00033 32.6668V28.0002C7.00033 27.3558 6.47799 26.8335 5.83366 26.8335C5.18933 26.8335 4.66699 27.3558 4.66699 28.0002V32.6668Z" fill="#E25F23"/>
<path d="M63 59.5C63 60.1443 63.5223 60.6667 64.1667 60.6667C64.811 60.6667 65.3333 60.1443 65.3333 59.5V46.6667C65.3333 46.0223 64.811 45.5 64.1667 45.5C63.5223 45.5 63 46.0223 63 46.6667V59.5Z" fill="#E25F23"/>
<path d="M64.1667 42C64.811 42 65.3333 41.4777 65.3333 40.8333V36.1667C65.3333 35.5223 64.811 35 64.1667 35C63.5223 35 63 35.5223 63 36.1667V40.8333C63 41.4777 63.5223 42 64.1667 42Z" fill="#E25F23"/>
</svg>
