<svg width="70" height="70" viewBox="0 0 70 70" fill="none" xmlns="http://www.w3.org/2000/svg">
<g clip-path="url(#clip0)">
<path d="M59.5003 8.16675V24.6751C55.8039 23.8796 52.3271 22.2826 49.3153 19.9967C48.4516 19.2967 47.2157 19.2967 46.352 19.9967C40.682 24.5467 32.8303 25.4801 29.0503 25.6551C27.8029 25.7175 26.8259 26.7511 26.8337 28.0001V39.6667H8.16699C4.301 39.6667 1.16699 36.5327 1.16699 32.6667V8.16675C1.16699 4.30075 4.301 1.16675 8.16699 1.16675H52.5003C56.3663 1.16675 59.5003 4.30075 59.5003 8.16675Z" fill="#715242"/>
<path d="M52.5 1.16675H49C52.866 1.16675 56 4.30075 56 8.16675V23.6332C57.1459 24.0468 58.3145 24.3946 59.5 24.6751V8.16675C59.5 4.30075 56.366 1.16675 52.5 1.16675Z" fill="#48352B"/>
<path d="M16.3333 7H9.33333C8.04467 7 7 8.04467 7 9.33333V14C7 15.2887 8.04467 16.3333 9.33333 16.3333H16.3333C17.622 16.3333 18.6667 15.2887 18.6667 14V9.33333C18.6667 8.04467 17.622 7 16.3333 7Z" fill="#4B3B32"/>
<path d="M50.167 15.1665C52.1 15.1665 53.667 13.5995 53.667 11.6665C53.667 9.73351 52.1 8.1665 50.167 8.1665C48.234 8.1665 46.667 9.73351 46.667 11.6665C46.667 13.5995 48.234 15.1665 50.167 15.1665Z" fill="#48352B"/>
<path d="M43.166 15.1665C45.099 15.1665 46.666 13.5995 46.666 11.6665C46.666 9.73351 45.099 8.1665 43.166 8.1665C41.233 8.1665 39.666 9.73351 39.666 11.6665C39.666 13.5995 41.233 15.1665 43.166 15.1665Z" fill="#48352B"/>
<path d="M68.8331 27.9998V43.0731C68.8311 43.1824 68.8233 43.2914 68.8097 43.3998C68.5297 45.3715 65.5431 62.9181 48.5914 68.7048C48.101 68.8798 47.5651 68.8798 47.0747 68.7048C30.1231 62.9181 27.1364 45.3715 26.8564 43.3998C26.8428 43.2914 26.835 43.1824 26.8331 43.0731V27.9998C26.8252 26.7509 27.8023 25.7172 29.0497 25.6548C32.8297 25.4798 40.6814 24.5465 46.3514 19.9965C47.2151 19.2964 48.451 19.2964 49.3147 19.9965C52.3265 22.2823 55.8033 23.8794 59.4997 24.6748C61.8365 25.2212 64.2189 25.5493 66.6164 25.6548C67.8638 25.7172 68.8409 26.7509 68.8331 27.9998Z" fill="#48352B"/>
<path d="M66.6173 25.6548C64.2199 25.5493 61.8374 25.2212 59.5007 24.6748C55.8042 23.8794 52.3275 22.2823 49.3157 19.9965C48.4519 19.2964 47.2161 19.2964 46.3523 19.9965C46.2648 20.0665 46.1727 20.1271 46.0852 20.196C49.0389 22.369 52.4175 23.8951 56.0007 24.6748C58.3374 25.2212 60.7199 25.5493 63.1173 25.6548C64.3647 25.7172 65.3418 26.7509 65.334 27.9998V43.0731C65.332 43.1824 65.3242 43.2914 65.3107 43.3998C65.0365 45.3318 62.1525 62.2146 46.084 68.3361C46.4118 68.461 46.7361 68.5893 47.0756 68.7048C47.5661 68.8798 48.1019 68.8798 48.5923 68.7048C65.544 62.9181 68.5307 45.3715 68.8107 43.3998C68.8242 43.2914 68.832 43.1824 68.834 43.0731V27.9998C68.8418 26.7509 67.8647 25.7172 66.6173 25.6548Z" fill="#1C1D1C"/>
<path d="M47.8333 63.9007C34.4248 58.8584 31.8185 44.9377 31.5 42.8447V30.1385C35.8867 29.7104 42.3943 28.4235 47.8333 24.696C53.2723 28.4294 59.78 29.7127 64.1667 30.1385V42.8482C63.8587 44.8805 61.2698 58.8479 47.8333 63.9007Z" fill="#715242"/>
<path d="M47.834 24.696C47.2623 25.088 46.6743 25.438 46.084 25.7775C50.5921 28.222 55.5574 29.7068 60.6673 30.1385V42.8482C60.3733 44.7884 57.9922 57.603 46.084 63.1564C46.6487 63.42 47.2262 63.672 47.834 63.9007C61.2705 58.8479 63.8593 44.884 64.1673 42.8482V30.1385C59.7807 29.7104 53.273 28.4235 47.834 24.696Z" fill="#48352B"/>
<path d="M4.66699 32.6667V8.16675C4.66699 4.30075 7.801 1.16675 11.667 1.16675H8.16699C4.301 1.16675 1.16699 4.30075 1.16699 8.16675V32.6667C1.16699 36.5327 4.301 39.6667 8.16699 39.6667H11.667C7.801 39.6667 4.66699 36.5327 4.66699 32.6667Z" fill="#1C1D1C"/>
<path d="M0 23.3333H2.33333V32.6666H0V23.3333Z" fill="#1C1D1C"/>
<path d="M1.16667 29.1668C1.811 29.1668 2.33333 28.6445 2.33333 28.0002C2.33333 27.3558 1.811 26.8335 1.16667 26.8335C0.522334 26.8335 0 27.3558 0 28.0002C0 28.6445 0.522334 29.1668 1.16667 29.1668Z" fill="#E25F23"/>
<path d="M16.333 5.83325H9.33301C7.40001 5.83325 5.83301 7.40025 5.83301 9.33325V13.9999C5.83301 15.9329 7.40001 17.4999 9.33301 17.4999H16.333C18.266 17.4999 19.833 15.9329 19.833 13.9999V9.33325C19.833 7.40025 18.266 5.83325 16.333 5.83325ZM17.4997 9.33325V10.4999H12.833V8.16658H16.333C16.9773 8.16658 17.4997 8.68892 17.4997 9.33325ZM9.33301 8.16658H10.4997V10.4999H8.16634V9.33325C8.16634 8.68892 8.68868 8.16658 9.33301 8.16658ZM8.16634 13.9999V12.8332H10.4997V15.1666H9.33301C8.68868 15.1666 8.16634 14.6442 8.16634 13.9999ZM16.333 15.1666H12.833V12.8332H17.4997V13.9999C17.4997 14.6442 16.9773 15.1666 16.333 15.1666Z" fill="#E25F23"/>
<path d="M17.5003 25.6667C17.5003 25.0223 16.978 24.5 16.3337 24.5H9.33366C8.68933 24.5 8.16699 25.0223 8.16699 25.6667C8.16699 26.311 8.68933 26.8333 9.33366 26.8333H16.3337C16.978 26.8333 17.5003 26.311 17.5003 25.6667Z" fill="#E25F23"/>
<path d="M22.1673 24.5H21.0006C20.3563 24.5 19.834 25.0223 19.834 25.6667C19.834 26.311 20.3563 26.8333 21.0006 26.8333H22.1673C22.8116 26.8333 23.334 26.311 23.334 25.6667C23.334 25.0223 22.8116 24.5 22.1673 24.5Z" fill="#E25F23"/>
<path d="M9.33366 31.5C8.68933 31.5 8.16699 32.0223 8.16699 32.6667C8.16699 33.311 8.68933 33.8333 9.33366 33.8333H11.667C12.3113 33.8333 12.8337 33.311 12.8337 32.6667C12.8337 32.0223 12.3113 31.5 11.667 31.5H9.33366Z" fill="#E25F23"/>
<path d="M17.4997 33.8333H22.1663C22.8107 33.8333 23.333 33.311 23.333 32.6667C23.333 32.0223 22.8107 31.5 22.1663 31.5H17.4997C16.8553 31.5 16.333 32.0223 16.333 32.6667C16.333 33.311 16.8553 33.8333 17.4997 33.8333Z" fill="#E25F23"/>
<path d="M46.6666 14.721C47.9421 16.1943 49.9987 16.72 51.8247 16.0395C53.6507 15.3589 54.8616 13.6153 54.8616 11.6666C54.8616 9.71793 53.6507 7.97439 51.8247 7.29382C49.9987 6.61325 47.9421 7.13896 46.6666 8.61231C45.3912 7.13896 43.3346 6.61325 41.5086 7.29382C39.6825 7.97439 38.4717 9.71793 38.4717 11.6666C38.4717 13.6153 39.6825 15.3589 41.5086 16.0395C43.3346 16.72 45.3912 16.1943 46.6666 14.721ZM50.1666 9.33331C51.4553 9.33331 52.5 10.378 52.5 11.6666C52.5 12.9553 51.4553 14 50.1666 14C48.878 14 47.8333 12.9553 47.8333 11.6666C47.8333 10.378 48.878 9.33331 50.1666 9.33331ZM40.8333 11.6666C40.8333 10.378 41.878 9.33331 43.1666 9.33331C44.4553 9.33331 45.5 10.378 45.5 11.6666C45.5 12.9553 44.4553 14 43.1666 14C41.878 14 40.8333 12.9553 40.8333 11.6666Z" fill="#E25F23"/>
<path d="M66.6727 24.4895C64.6543 24.3941 62.6463 24.1425 60.6667 23.737V8.16667C60.6615 3.65847 57.0082 0.00514341 52.5 0H8.16667C3.65847 0.00514341 0.00514341 3.65847 0 8.16667V23.3333C0 23.9777 0.522335 24.5 1.16667 24.5C1.811 24.5 2.33333 23.9777 2.33333 23.3333V8.16667C2.33719 4.9466 4.94661 2.33719 8.16667 2.33333H52.5C55.7201 2.33719 58.3295 4.9466 58.3333 8.16667V23.1653C55.3285 22.3677 52.5126 20.9796 50.05 19.082C48.7601 18.0355 46.9136 18.0355 45.6237 19.082C40.2978 23.359 32.921 24.304 28.9975 24.4872C27.1259 24.5777 25.6576 26.1262 25.6667 28V38.5H8.16667C4.94661 38.4961 2.33719 35.8867 2.33333 32.6667C2.33333 32.0223 1.811 31.5 1.16667 31.5C0.522335 31.5 0 32.0223 0 32.6667C0.00514341 37.1749 3.65847 40.8282 8.16667 40.8333H25.6667V43.0687C25.6666 43.2369 25.6787 43.405 25.7028 43.5715C25.998 45.6237 29.099 63.8015 46.7028 69.8133C47.4372 70.0622 48.233 70.0622 48.9673 69.8133C66.57 63.8015 69.671 45.6237 69.9673 43.5633C69.9906 43.3983 70.0023 43.2318 70.0023 43.0652V28C70.0102 26.1276 68.5429 24.5806 66.6727 24.4895ZM67.6667 43.0687C67.6664 43.1256 67.6625 43.1825 67.655 43.239C67.3797 45.1465 64.4992 62.0422 48.2102 67.6048C47.9654 67.6877 47.7001 67.6877 47.4553 67.6048C31.1675 62.0422 28.287 45.15 28.0128 43.2425C28.0045 43.1849 28.0002 43.1268 28 43.0687V28C27.9922 27.375 28.4784 26.8548 29.1025 26.8205C33.3095 26.6245 41.2358 25.5955 47.0808 20.9032C47.5177 20.5425 48.149 20.5425 48.5858 20.9032C54.4273 25.5955 62.3525 26.6198 66.5642 26.8205C67.1883 26.8548 67.6745 27.375 67.6667 28V43.0687Z" fill="#E25F23"/>
<path d="M64.284 28.9776C58.6715 28.5496 53.2501 26.7492 48.4966 23.7346C48.0993 23.4625 47.5756 23.4625 47.1783 23.7346C42.4228 26.7503 36.9989 28.5507 31.384 28.9776C30.7878 29.0375 30.334 29.5393 30.334 30.1384V42.8446C30.3342 42.9035 30.3385 42.9624 30.3468 43.0207C30.768 45.7752 33.5645 59.7811 47.4233 64.9926C47.6866 65.091 47.9767 65.091 48.24 64.9926C62.4173 59.6656 65.0656 44.7101 65.3211 43.0219C65.3295 42.9643 65.3338 42.9063 65.334 42.8481V30.1384C65.334 29.5393 64.8801 29.0375 64.284 28.9776ZM63.0006 42.7571C62.7008 44.6436 60.1925 57.7394 47.834 62.6499C35.4895 57.7499 32.9695 44.6436 32.6673 42.7536V31.1849C38.0368 30.63 43.2165 28.892 47.834 26.0959C52.4514 28.892 57.6312 30.63 63.0006 31.1849V42.7571Z" fill="#E25F23"/>
<path d="M41.6578 43.5084C41.2001 43.0663 40.4724 43.0726 40.0224 43.5226C39.5723 43.9726 39.566 44.7003 40.0082 45.1581L44.6748 49.8247C44.8936 50.0436 45.1903 50.1665 45.4997 50.1666H45.558C45.8872 50.15 46.1941 49.9949 46.4027 49.7396L56.9027 36.9062C57.2986 36.4067 57.2203 35.682 56.7269 35.2785C56.2336 34.875 55.5077 34.9421 55.0967 35.4292L45.4133 47.2651L41.6578 43.5084Z" fill="#E25F23"/>
</g>
<defs>
<clipPath id="clip0">
<rect width="70" height="70" fill="white"/>
</clipPath>
</defs>
</svg>
