<svg width="70" height="70" viewBox="0 0 70 70" fill="none" xmlns="http://www.w3.org/2000/svg">
<path d="M18.3183 2.88574H67.023C68.0224 2.88574 68.8326 3.69591 68.8326 4.69528V40.7685C68.8326 41.7678 68.0224 42.578 67.023 42.578H18.3183C17.319 42.578 16.5088 41.7678 16.5088 40.7685V4.69528C16.5088 3.69591 17.319 2.88574 18.3183 2.88574Z" fill="#48352B"/>
<path d="M65.1191 4.69516V40.7683C65.1206 41.2487 64.9306 41.7098 64.5909 42.0495C64.2512 42.3892 63.7901 42.5794 63.3097 42.5777H18.3174C18.2076 42.5776 18.098 42.5658 17.9906 42.5427C17.8865 42.5279 17.7846 42.5005 17.687 42.4611C16.9807 42.1963 16.5113 41.5227 16.5079 40.7683V4.69516C16.5035 4.25491 16.6662 3.82944 16.9632 3.50439C17.1379 3.30082 17.3579 3.14103 17.6052 3.03747C17.7051 2.98863 17.8111 2.9532 17.9204 2.9324C18.05 2.89888 18.1835 2.88329 18.3173 2.88575H63.3096C63.7899 2.88425 64.2511 3.07427 64.5908 3.41396C64.9306 3.75365 65.1208 4.21483 65.1191 4.69516Z" fill="#715242"/>
<path d="M65.12 6.28271V4.69506C65.1215 4.21473 64.9314 3.75356 64.5917 3.41387C64.2521 3.07418 63.7909 2.88402 63.3105 2.88552H67.0229C67.5433 2.88292 68.0384 3.1092 68.3772 3.5043L65.12 6.28271Z" fill="#715242"/>
<path d="M65.1198 4.69516V6.2828L48.2039 20.7355L44.4099 23.9809C43.4024 24.8213 41.9383 24.8213 40.931 23.9809L37.137 20.7355L16.9639 3.50439C17.1386 3.30082 17.3586 3.14103 17.6059 3.03747C17.7058 2.98863 17.8118 2.9532 17.9211 2.9324C18.0507 2.89888 18.1842 2.88329 18.318 2.88575H63.3103C63.7906 2.88425 64.2518 3.07427 64.5915 3.41396C64.9313 3.75365 65.1215 4.21483 65.1198 4.69516Z" fill="#715242"/>
<path d="M68.1903 42.1458C67.865 42.4242 67.451 42.5774 67.0229 42.5777H63.3105C63.7909 42.5792 64.2521 42.389 64.5917 42.0493C64.9314 41.7096 65.1216 41.2485 65.12 40.7681V38.8535L68.1903 42.1458Z" fill="#715242"/>
<path d="M65.1195 38.8536V40.7682C65.121 41.2486 64.9309 41.7097 64.5913 42.0494C64.2516 42.3891 63.7904 42.5793 63.3101 42.5776H18.3178C18.2079 42.5775 18.0983 42.5657 17.9909 42.5426C17.8868 42.5278 17.7849 42.5003 17.6874 42.4609C17.491 42.3886 17.3092 42.2819 17.1504 42.1457L37.1366 20.7354L40.9307 23.9808C41.9381 24.8212 43.4022 24.8212 44.4095 23.9808L48.2036 20.7354L65.1195 38.8536Z" fill="#715242"/>
<path d="M53.4339 59.412L50.6671 64.0116C50.1297 64.9198 49.3494 65.6597 48.414 66.148C48.0824 66.3308 47.7296 66.472 47.3634 66.5683C42.7638 67.8291 32.6305 68.0859 16.3918 51.8472C0.153166 35.6085 0.409815 25.4752 1.67062 20.8757C1.76502 20.5144 1.9021 20.1655 2.07927 19.8366C2.5715 18.8972 3.31518 18.113 4.22727 17.5718L8.82684 14.805C9.8793 14.1724 11.2433 14.4812 11.9205 15.5055L15.913 21.4943L19.2635 26.5259C19.9372 27.5221 19.7227 28.87 18.7732 29.6079L17.1388 30.8803L14.6406 32.8182C14.2656 33.1123 13.9921 33.5165 13.8585 33.9739C13.6709 34.5606 13.7342 35.1985 14.0336 35.7367C15.2477 37.9081 16.3917 40.4764 22.0771 46.1618C27.7625 51.8472 30.3308 52.9912 32.5022 54.2053C33.4944 54.7312 34.7205 54.4762 35.4207 53.5983L37.3586 51.1001L38.631 49.4657C39.3689 48.5162 40.7167 48.3017 41.713 48.9753L46.9079 52.4309L52.7333 56.3184C53.7576 56.9958 54.0665 58.3597 53.4339 59.412Z" fill="#715242"/>
<path d="M51.0056 61.8403L48.4139 66.148C48.0823 66.3308 47.7295 66.472 47.3633 66.5683C42.7637 67.8291 32.6304 68.0859 16.3917 51.8472C0.153047 35.6086 0.409833 25.4751 1.67064 20.8756C1.76504 20.5143 1.90212 20.1654 2.07928 19.8365L6.39868 17.2332C7.45114 16.6006 8.8151 16.9094 9.49229 17.9337L13.4849 23.9225L16.8354 28.9424C17.2208 29.5107 17.3321 30.2214 17.139 30.8802C16.9963 31.3364 16.7196 31.7391 16.3451 32.036L13.8585 33.9738L12.2124 35.2463C11.3193 35.9372 11.0619 37.1751 11.6054 38.1648C12.8196 40.3362 13.9635 42.9045 19.649 48.5899C25.3344 54.2753 27.9026 55.4192 30.074 56.6334C31.0637 57.1768 32.3017 56.9193 32.9925 56.0264L34.265 54.3803L36.2028 51.8937C36.4997 51.5192 36.9025 51.2425 37.3586 51.0999C38.0174 50.9067 38.7281 51.018 39.2964 51.4034L44.4798 54.859L50.3051 58.7465C51.3294 59.4239 51.6382 60.7878 51.0056 61.8403Z" fill="#715242"/>
<path d="M2.07923 19.8367C1.9022 20.1656 1.76498 20.5143 1.67059 20.8757C0.409912 25.4753 0.152989 35.6086 16.3918 51.8473C30.3308 65.7862 39.7634 67.5688 45.0706 66.9968C39.4915 66.44 31.1643 63.1175 19.8941 51.8473C3.65524 35.6086 3.91216 25.4753 5.17297 20.8757C5.26737 20.5144 5.40445 20.1656 5.58161 19.8367C6.07384 18.8972 6.81753 18.1131 7.72962 17.5719L11.6732 15.1996C10.9353 14.4153 9.75052 14.2512 8.82708 14.8051L4.2275 17.5719C3.31514 18.1132 2.57146 18.8972 2.07923 19.8367Z" fill="#1C1D1C"/>
<path d="M20.0109 27.4015V4.69529C20.0128 4.48844 20.0503 4.2835 20.1219 4.08937C20.1289 4.06954 20.1324 4.0497 20.1394 4.02986C20.4101 3.33817 21.0777 2.88383 21.8205 2.88575H18.3182C17.5755 2.88383 16.9079 3.33817 16.6371 4.02986C16.6302 4.0497 16.6266 4.06954 16.6196 4.08937C16.5462 4.28309 16.5066 4.48803 16.5029 4.69529V22.1481L19.4098 26.5084L20.0109 27.4015Z" fill="#1C1D1C"/>
<path d="M10.0214 46.0871H10.2444C10.3242 46.0815 10.4029 46.0642 10.4779 46.0358C10.55 46.0199 10.6193 45.9932 10.6834 45.9564C10.7505 45.9168 10.8152 45.8731 10.8772 45.8257C11.1121 45.6233 11.2642 45.3415 11.3045 45.0341C11.3181 44.8816 11.3023 44.7278 11.2578 44.5811C11.1258 44.1361 10.7426 43.8116 10.2818 43.7545C10.1289 43.7422 9.97498 43.758 9.82778 43.8012C9.37084 43.9213 9.03416 44.309 8.97903 44.7783C8.91788 45.427 9.38316 46.0071 10.0297 46.088L10.0214 46.0871Z" fill="#E25F23"/>
<path d="M67.0226 1.73926H18.1078C16.4645 1.74117 15.1328 3.07285 15.1309 4.71617V18.2091L12.8941 14.8529C11.8703 13.3085 9.81119 12.8451 8.22451 13.8022L3.62247 16.5688C2.11595 17.4537 1.01055 18.8876 0.538161 20.5696C-0.322763 24.1397 -0.147924 27.8812 1.04243 31.3553C2.14318 34.725 3.71522 37.922 5.71205 40.8511C5.92574 41.1884 6.13821 41.5258 6.37625 41.8422C6.55601 42.0979 6.8299 42.2717 7.13771 42.3253C7.44553 42.3789 7.7621 42.308 8.01766 42.1283C8.53437 41.7573 8.65901 41.0409 8.29784 40.5172C8.06431 40.2126 7.86594 39.8904 7.66387 39.5693C5.78894 36.8246 4.31156 33.8285 3.27553 30.67C2.21774 27.6202 2.0496 24.3323 2.79109 21.1906C3.10479 20.0891 3.83219 19.1517 4.82117 18.5744L9.42786 15.81C9.94403 15.5009 10.6118 15.6514 10.9455 16.152L18.2966 27.1678C18.6225 27.6606 18.5154 28.3211 18.0502 28.6854L13.9246 31.8946C12.5698 32.9339 12.183 34.8101 13.0163 36.3004L13.3431 36.8935C14.5105 39.0345 15.9616 41.6986 21.2512 46.987C26.5409 52.2754 29.2037 53.7276 31.3436 54.8951L31.9367 55.2208C33.4274 56.0544 35.304 55.6676 36.3436 54.3126L39.5517 50.1881C39.9165 49.7235 40.5764 49.6164 41.0693 49.9417L52.0886 57.2871C52.5891 57.6208 52.7396 58.2887 52.4306 58.8047L49.6674 63.4114C49.0903 64.401 48.1528 65.1288 47.0512 65.4427C41.5328 66.9603 31.8748 65.6763 17.2167 51.017C16.159 49.9009 15.0674 48.8129 14.0378 47.6736C13.6091 47.2024 12.8818 47.1619 12.4034 47.5825C11.9201 48.0158 11.8789 48.7585 12.3112 49.2425C13.3619 50.4099 14.4826 51.5248 15.566 52.6677C27.8553 64.9537 37.0208 68.261 43.3376 68.261C44.8 68.2677 46.2569 68.0776 47.6687 67.6959C49.3505 67.2242 50.7845 66.1202 51.6706 64.6152L54.4338 60.0085C55.3871 58.423 54.9241 56.3682 53.3832 55.3446L42.3639 47.9992C40.8523 46.9994 38.8262 47.3282 37.7083 48.7545L34.5001 52.879C34.1648 53.3203 33.5566 53.4489 33.0712 53.1813L32.4606 52.845C30.4515 51.75 27.9509 50.3865 22.9007 45.3363C22.3543 44.7899 21.8593 44.2786 21.3947 43.7894H67.0221C68.6613 43.7906 69.9926 42.4656 69.999 40.8264V4.71617C69.9976 3.07285 68.666 1.74117 67.0226 1.73926ZM67.6647 40.8267C67.6609 41.1779 67.3737 41.4597 67.0226 41.4571H19.2893C17.7731 39.7232 16.4656 37.8175 15.3936 35.7788L15.0573 35.1659C14.7892 34.6816 14.9175 34.0739 15.3586 33.7393L19.4842 30.5301C20.9111 29.4124 21.2399 27.386 20.2396 25.8744L17.4658 21.7114V4.71617C17.4639 4.5453 17.5309 4.38086 17.6517 4.26006C17.7725 4.13926 17.937 4.07222 18.1078 4.07414H67.0226C67.1935 4.07222 67.358 4.13926 67.4788 4.26006C67.5996 4.38086 67.6666 4.5453 67.6647 4.71617V40.8267Z" fill="#E25F23"/>
<path d="M64.6372 7.36847C64.2475 6.85572 63.5162 6.75544 63.0028 7.14438L43.4917 21.9414C42.9397 22.3425 42.1922 22.3425 41.6401 21.9414L22.1362 7.14438C21.6223 6.75462 20.8897 6.85531 20.5001 7.36916C20.1103 7.883 20.211 8.6156 20.7249 9.00523L40.2312 23.801C41.6189 24.8262 43.513 24.8262 44.9008 23.801L64.413 9.00523C64.6599 8.81808 64.8223 8.54036 64.8643 8.23336C64.9064 7.92637 64.8246 7.61527 64.6372 7.36847Z" fill="#E25F23"/>
<path d="M32.6026 23.8991L20.6437 36.7057C20.204 37.1773 20.2298 37.9162 20.7014 38.3559C21.173 38.7956 21.9119 38.7697 22.3516 38.2981L34.3105 25.4858C34.7056 25.0091 34.6598 24.3069 34.2063 23.8854C33.7526 23.4639 33.0489 23.47 32.6026 23.8991Z" fill="#E25F23"/>
<path d="M52.6045 23.8992C52.1648 23.4276 51.4261 23.4016 50.9544 23.8415C50.4828 24.2812 50.4568 25.0199 50.8966 25.4916L62.8522 38.2983C63.2919 38.7698 64.0306 38.7958 64.5024 38.356C64.9739 37.9163 64.9999 37.1775 64.5601 36.7058L52.6045 23.8992Z" fill="#E25F23"/>
</svg>
