<svg width="70" height="70" viewBox="0 0 70 70" fill="none" xmlns="http://www.w3.org/2000/svg">
<g clip-path="url(#clip0)">
<path d="M42.4367 9.35182C42.4431 12.5061 40.6246 15.379 37.7715 16.7228H30.7737C27.6211 15.2257 25.769 11.891 26.1641 8.42338C26.5592 4.95626 29.1149 2.12342 32.5228 1.37436C33.0983 1.2521 33.6845 1.18964 34.2723 1.1875C36.4378 1.1875 38.5141 2.04814 40.0454 3.57882C41.5766 5.11003 42.4367 7.18688 42.4367 9.35182Z" fill="#7F543E"/>
<path d="M38.9375 9.35173C38.9445 12.506 37.126 15.3789 34.2724 16.7227H30.7737C27.6211 15.2256 25.769 11.8909 26.1641 8.42328C26.5592 4.95617 29.1149 2.12332 32.5228 1.37427C36.2697 2.19647 38.9391 5.51569 38.9375 9.35173Z" fill="#48352B"/>
<path d="M58.7649 32.8762V51.3388C58.7649 51.3388 58.7649 57.6254 54.788 61.2645C54.3379 61.6964 54.088 62.2965 54.0998 62.9206V66.5009C54.096 67.7876 53.0539 68.8298 51.7672 68.8335H33.1065C31.8198 68.8298 30.7776 67.7876 30.7739 66.5009V66.0695C30.776 64.1998 30.0232 62.4081 28.6858 61.1011C26.4349 58.9084 22.9593 55.1177 21.443 51.3388C19.1104 45.5076 14.4453 37.3433 12.1127 35.0107C9.78009 32.6781 12.1127 30.3455 14.4453 30.3455C16.7778 30.3455 21.443 35.0107 23.7756 38.5099C24.5177 39.6353 25.3869 40.6727 26.365 41.6006C26.9453 42.1403 27.7611 42.347 28.5283 42.1483C29.2961 41.9503 29.9095 41.3742 30.1557 40.6209C30.5999 39.1826 30.8086 37.6818 30.7739 36.1767V9.35171C30.7664 7.86909 31.7045 6.54663 33.1065 6.06292C33.4786 5.92144 33.8742 5.85043 34.2725 5.8531C36.2052 5.8531 37.7717 7.41955 37.7717 9.35171V23.3478C37.7647 21.8646 38.7028 20.5422 40.1042 20.0584C40.4769 19.9175 40.872 19.846 41.2703 19.8486C43.203 19.8486 44.7694 21.4151 44.7694 23.3478V26.8464C44.7694 25.9185 45.1389 25.029 45.7956 24.3739C46.1608 24.0029 46.6087 23.7231 47.102 23.5576C47.4747 23.4161 47.8703 23.3451 48.2686 23.3478C50.2007 23.3478 51.7672 24.9142 51.7672 26.8464V32.6781C51.7672 31.7502 52.1366 30.8607 52.7939 30.2057C53.159 29.8346 53.6065 29.5548 54.0998 29.3888C54.5546 29.2217 55.04 29.1544 55.5226 29.1907C57.3966 29.3909 58.8055 30.9921 58.7649 32.8762Z" fill="#48352B"/>
<path d="M58.7649 32.8762V51.3388C58.7649 51.3388 58.7649 57.6254 54.7879 61.2645C54.3379 61.6964 54.088 62.2965 54.0997 62.9206V66.5009C54.096 67.7876 53.0539 68.8297 51.7672 68.8335H48.2686C49.5552 68.8297 50.5974 67.7876 50.6011 66.5009V62.9206C50.5894 62.2965 50.8387 61.6964 51.2893 61.2645C55.2663 57.6254 55.2663 51.3388 55.2663 51.3388V32.8762C55.277 31.5735 54.6096 30.3594 53.505 29.6691C53.6919 29.5522 53.8915 29.4582 54.0997 29.3888C54.5546 29.2217 55.0399 29.1544 55.5226 29.1907C57.3965 29.3909 58.8055 30.9921 58.7649 32.8762Z" fill="#7F543E"/>
<path d="M26.1785 41.4254C25.7711 41.9016 25.186 42.1905 24.5597 42.2236C23.9335 42.2567 23.3211 42.0314 22.8662 41.6005C21.8876 40.6726 21.0189 39.6352 20.2768 38.5098C18.4109 35.6988 15.0281 32.1415 12.5674 30.8468C13.1408 30.5238 13.7868 30.3513 14.4451 30.3455C16.7777 30.3455 21.4429 35.0106 23.7754 38.5098C24.4738 39.5621 25.2789 40.5391 26.1785 41.4254Z" fill="#7F543E"/>
<path d="M26.1084 9.35182C26.1015 12.5061 27.9199 15.379 30.7736 16.7228V36.1768C30.8083 37.6819 30.5995 39.1827 30.1553 40.621C30.0507 40.9152 29.8879 41.1858 29.677 41.4159C29.74 41.4768 29.804 41.5446 29.8638 41.6007C30.4442 42.1404 31.26 42.3471 32.0272 42.1485C32.7949 41.9504 33.4078 41.3743 33.654 40.621C34.0982 39.1827 34.3069 37.6819 34.2722 36.1768V16.7228C31.1228 15.2263 29.2717 11.8942 29.6647 8.42925C30.0576 4.96427 32.6075 2.13143 36.0127 1.3781C35.4409 1.2521 34.8574 1.18857 34.2722 1.1875C33.6844 1.18964 33.0982 1.2521 32.5226 1.37436C28.7763 2.19656 26.1068 5.51579 26.1084 9.35182Z" fill="#1C1D1C"/>
<path d="M12.1125 35.0106C14.4451 37.3432 19.1103 45.5075 21.4428 51.3387C22.9591 55.1176 26.4348 58.9083 28.6857 61.101C30.0231 62.408 30.7759 64.1997 30.7737 66.0694V66.5008C30.7775 67.7875 31.8196 68.8297 33.1063 68.8334H36.6049C35.3182 68.8297 34.2761 67.7875 34.2723 66.5008V66.0694C34.275 64.1997 33.5222 62.408 32.1848 61.101C29.9339 58.9083 26.4583 55.1176 24.942 51.3387C22.6094 45.5075 17.9442 37.3432 15.6116 35.0106C14.9267 34.4938 14.5652 33.654 14.6608 32.8008C14.7563 31.9482 15.2956 31.2093 16.0783 30.8575C15.5812 30.5617 15.0217 30.3866 14.4451 30.3455C14.2892 30.346 14.1333 30.3567 13.9785 30.378C13.9331 30.3839 13.8888 30.3946 13.8434 30.4026C13.7361 30.4202 13.6288 30.44 13.5225 30.4677C13.4584 30.4843 13.3965 30.5051 13.3335 30.5248C13.2705 30.5446 13.176 30.574 13.1002 30.6044C13.0244 30.6348 12.9246 30.6765 12.8381 30.7208C12.8018 30.7373 12.7671 30.7534 12.7318 30.772C12.6784 30.7993 12.6213 30.8212 12.5684 30.8505L12.5813 30.8585C11.7991 31.2104 11.2599 31.9487 11.1638 32.8008C11.0677 33.6535 11.428 34.4933 12.1125 35.0106Z" fill="#1C1D1C"/>
<path d="M12.9374 34.1858C13.8434 35.1746 14.6629 36.2392 15.3864 37.3678C16.106 38.4441 16.7734 39.5408 17.4194 40.6475C18.7115 42.8632 19.8988 45.1248 21.0024 47.4397C21.5374 48.5785 22.052 49.7307 22.524 50.9063L20.3596 51.7718C19.9047 50.6532 19.4125 49.5406 18.8935 48.4371C17.8231 46.1899 16.6602 43.9737 15.404 41.8232C14.7777 40.7479 14.129 39.6838 13.4446 38.6614C12.8044 37.6614 12.0826 36.7165 11.2871 35.835L12.9374 34.1858Z" fill="#1C1D1C"/>
<path d="M18.2941 42.1882C18.1382 41.9181 17.8862 41.7173 17.5888 41.6244L17.3683 41.5876C17.2903 41.5812 17.2119 41.5855 17.135 41.6004C17.0608 41.6036 16.9876 41.6186 16.9177 41.6431C16.8451 41.6709 16.7735 41.7024 16.7047 41.7387C16.4398 41.8957 16.2428 42.145 16.1515 42.4386C16.1136 42.5865 16.104 42.7403 16.1238 42.8914C16.183 43.3516 16.505 43.7349 16.9481 43.8732C17.096 43.9122 17.2503 43.9223 17.4019 43.9036C17.5541 43.8898 17.702 43.846 17.837 43.7755C18.1125 43.6292 18.317 43.3772 18.404 43.0772C18.4905 42.7777 18.4516 42.4552 18.2967 42.1845L18.2941 42.1882Z" fill="#E25F23"/>
<path d="M10.2317 31.7682C9.69084 33.2108 10.1132 34.8381 11.2883 35.8349C12.2669 36.9347 13.1457 38.1194 13.9145 39.3746C14.2637 39.908 14.9732 40.0666 15.5162 39.7329C15.7799 39.5674 15.9668 39.3036 16.0346 38.9998C16.1029 38.696 16.0469 38.3773 15.8787 38.1152C15.0218 36.7174 14.0373 35.4019 12.9375 34.1857C12.3822 33.631 12.1964 33.1174 12.3854 32.6604C12.8083 31.9279 13.5995 31.4863 14.4452 31.5114C16.0303 31.5114 20.3282 35.4409 22.8054 39.1568C23.5961 40.3559 24.5208 41.4611 25.5614 42.4515C26.2021 43.0569 27.0499 43.3949 27.9314 43.3954C29.4434 43.3927 30.784 42.4242 31.2623 40.9902C31.745 39.4323 31.974 37.8071 31.9398 36.1766V9.35159C31.9398 8.0633 32.9841 7.019 34.2724 7.019C35.5607 7.019 36.605 8.0633 36.605 9.35159V33.844C36.605 34.4884 37.1272 35.0106 37.7716 35.0106C38.4155 35.0106 38.9376 34.4884 38.9376 33.844V23.3476C38.9376 22.0594 39.9824 21.0151 41.2702 21.0151C42.5585 21.0151 43.6033 22.0594 43.6033 23.3476V33.844C43.6033 34.4884 44.1255 35.0106 44.7693 35.0106C45.4138 35.0106 45.9359 34.4884 45.9359 33.844V26.8463C45.9359 25.558 46.9802 24.5137 48.2685 24.5137C49.5568 24.5137 50.6011 25.558 50.6011 26.8463V35.0106C50.6011 35.6544 51.1232 36.1766 51.7671 36.1766C52.4115 36.1766 52.9337 35.6544 52.9337 35.0106V32.678C52.9321 32.0592 53.1787 31.4655 53.6181 31.0299C54.0992 30.5531 54.7617 30.3059 55.4376 30.3513C56.6976 30.5157 57.6298 31.6049 57.5988 32.875V51.3387C57.5988 51.3958 57.5396 57.1704 54.002 60.4037C53.3106 61.0556 52.923 61.9675 52.9337 62.9178V66.5008C52.9337 67.1452 52.4115 67.6673 51.7671 67.6673H33.1064C32.462 67.6673 31.9398 67.1452 31.9398 66.5008V66.0742C31.9415 63.8879 31.0632 61.7929 29.5037 60.2611C27.5277 58.3428 23.9939 54.5741 22.5267 50.9052C22.0494 49.73 21.5417 48.5752 21.0046 47.4412L20.4905 46.3761C20.3533 46.0969 20.1109 45.8844 19.8162 45.7851C19.5215 45.6853 19.1995 45.7077 18.9214 45.8465C18.3528 46.1364 18.1189 46.8273 18.3955 47.4028L18.8957 48.438C19.4152 49.5416 19.9069 50.6542 20.3607 51.7717C21.9074 55.6365 25.3035 59.4309 27.8801 61.9338C28.989 63.0256 29.6115 64.5179 29.6073 66.0742V66.5008C29.6073 68.4335 31.1737 69.9999 33.1064 69.9999H51.7671C53.6998 69.9999 55.2663 68.4335 55.2663 66.5008V62.9178C55.2556 62.6215 55.3682 62.3337 55.5775 62.1239C59.8823 58.1875 59.9314 51.6163 59.9314 51.3387V32.875C59.9747 30.3774 58.0916 28.2659 55.6058 28.0246C54.6715 27.9632 53.7404 28.1847 52.9337 28.6599V26.8463C52.9433 25.1656 52.0431 23.6114 50.5803 22.7833C49.1179 21.9552 47.3219 21.983 45.8857 22.8565C45.7362 21.2831 44.7912 19.896 43.3823 19.1811C41.9728 18.4662 40.2958 18.5223 38.9376 19.3306V17.399C41.8324 15.7562 43.6156 12.6799 43.6033 9.35159C43.6033 4.19843 39.4256 0.0212402 34.2724 0.0212402C29.1193 0.0212402 24.9421 4.19843 24.9421 9.35159C24.9298 12.6799 26.713 15.7562 29.6073 17.399V36.1766C29.6404 37.5535 29.453 38.9262 29.052 40.2438C28.9271 40.633 28.6083 40.9299 28.2111 41.0276C27.8374 41.1221 27.4412 41.018 27.1615 40.7521C26.2507 39.8834 25.4413 38.9139 24.7499 37.8621C22.7259 34.8344 17.6331 29.1788 14.4452 29.1788C12.6545 29.1415 11.0074 30.1537 10.2317 31.7682ZM27.2747 9.35159C27.2747 5.48672 30.4076 2.35383 34.2724 2.35383C38.1373 2.35383 41.2702 5.48672 41.2702 9.35159C41.2814 11.3473 40.4314 13.2506 38.9376 14.5747V9.35159C38.9376 6.77501 36.849 4.68641 34.2724 4.68641C31.6959 4.68641 29.6073 6.77501 29.6073 9.35159V14.5747C28.114 13.2506 27.2635 11.3473 27.2747 9.35159Z" fill="#E25F23"/>
<path d="M55.2662 49.0061V42.0083C55.2662 41.3644 54.744 40.8423 54.0996 40.8423C53.4557 40.8423 52.9336 41.3644 52.9336 42.0083V49.0061C52.9336 49.6505 53.4557 50.1726 54.0996 50.1726C54.744 50.1726 55.2662 49.6505 55.2662 49.0061Z" fill="#E25F23"/>
<path d="M52.1087 55.1794C51.8055 55.4725 51.6843 55.9061 51.7911 56.314C51.8978 56.7213 52.216 57.0401 52.6239 57.1468C53.0318 57.2536 53.4653 57.1319 53.7579 56.8286C54.6453 56.0075 55.185 54.8778 55.2662 53.6712C55.2651 53.0412 54.7579 52.5292 54.1279 52.5217C53.491 52.5094 52.9608 53.0081 52.9336 53.6445C52.846 54.2366 52.5545 54.7795 52.1087 55.1794Z" fill="#E25F23"/>
<path d="M36.605 65.3345C37.2495 65.3345 37.7716 64.8124 37.7716 64.168C37.7716 63.5241 37.2495 63.002 36.605 63.002H35.439C34.7946 63.002 34.2725 63.5241 34.2725 64.168C34.2725 64.8124 34.7946 65.3345 35.439 65.3345H36.605Z" fill="#E25F23"/>
<path d="M49.4343 65.3345C50.0788 65.3345 50.6009 64.8124 50.6009 64.168C50.6009 63.5241 50.0788 63.002 49.4343 63.002H41.27C40.6262 63.002 40.104 63.5241 40.104 64.168C40.104 64.8124 40.6262 65.3345 41.27 65.3345H49.4343Z" fill="#E25F23"/>
<path d="M24.9419 19.3109C25.4075 19.3109 25.8282 19.0349 26.0129 18.6077C26.1976 18.1806 26.1111 17.6846 25.7924 17.3456C21.7514 13.0745 21.5319 6.46003 25.2815 1.93046C25.5586 1.61066 25.6408 1.16593 25.4966 0.768174C25.352 0.370422 25.0033 0.0821187 24.5853 0.014848C24.1672 -0.0524227 23.746 0.112017 23.4839 0.444634C18.9863 5.87968 19.2469 13.8155 24.092 18.9436C24.3125 19.1779 24.62 19.3109 24.9419 19.3109Z" fill="#E25F23"/>
<path d="M45.1582 16.2212C45.4331 16.3622 45.7535 16.3883 46.0477 16.2933C46.3424 16.1983 46.5869 15.9906 46.7278 15.7151C49.2777 10.7499 48.6221 4.74249 45.061 0.444633C44.7994 0.112017 44.3776 -0.0524227 43.9596 0.014848C43.5421 0.0821187 43.1935 0.370422 43.0488 0.768174C42.9041 1.16593 42.9863 1.61066 43.2639 1.93046C46.2313 5.51076 46.7775 10.5155 44.6531 14.6516C44.3589 15.2244 44.5853 15.9271 45.1582 16.2212Z" fill="#E25F23"/>
</g>
<defs>
<clipPath id="clip0">
<rect width="70" height="70" fill="white"/>
</clipPath>
</defs>
</svg>
