<svg width="70" height="70" viewBox="0 0 70 70" fill="none" xmlns="http://www.w3.org/2000/svg">
<g clip-path="url(#clip0)">
<path d="M50.1043 56.6671L27.1976 45.2138C25.5444 44.3872 24.5 42.6975 24.5 40.8491V21.1201C24.5 19.3212 25.4898 17.6681 27.0755 16.8187L49.9823 4.54709C51.4947 3.7369 53.3215 3.78051 54.7936 4.6618C56.2656 5.54323 57.1667 7.13285 57.1667 8.84867V52.3024C57.1667 53.9938 56.2911 55.5644 54.8524 56.4536C53.4135 57.3427 51.6171 57.4235 50.1043 56.6671Z" fill="#48352B"/>
<path d="M51.3291 57.0922C52.7633 57.3771 54.2497 57.0047 55.3799 56.0771C56.5103 55.1496 57.1656 53.7645 57.1662 52.3023V8.84881C57.1656 7.38729 56.5109 6.00274 55.3814 5.0751C54.2521 4.14746 52.7668 3.77395 51.3329 4.05736L51.3291 57.0922Z" fill="#715242"/>
<path d="M49.1761 4.54704L47.833 5.69821V55.5316L49.2523 56.6671C51.2802 58.2894 53.6663 55.93 53.6663 52.3022V8.84876C53.6664 5.16077 51.208 2.80552 49.1761 4.54704Z" fill="#48352B"/>
<path d="M58.3336 25.0227H57.167V36.6893H58.3336C60.9078 36.6818 62.9927 34.5968 63.0002 32.0227V29.6893C62.9927 27.1152 60.9078 25.0302 58.3336 25.0227Z" fill="#715242"/>
<path d="M3.74549 36.6892C3.06135 36.6892 2.40523 36.4174 1.92152 35.9337C1.43781 35.45 1.16602 34.7939 1.16602 34.1098V27.6019C1.16602 26.1773 2.32088 25.0225 3.74549 25.0225V36.6892Z" fill="#1C1D1C"/>
<path d="M5.32396 25.0225H5.83338V36.6891H5.32396C4.31662 36.6891 3.5 35.8725 3.5 34.8651V26.8463C3.5 25.8391 4.31662 25.0225 5.32396 25.0225Z" fill="#48352B"/>
<path d="M24.4996 41.5317L8.86242 40.5814C7.15549 40.4595 5.83301 39.0391 5.83301 37.3278V24.337C5.83301 22.8502 6.98199 21.6162 8.46498 21.5104L24.4996 20.5317V41.5317Z" fill="#715242"/>
<path d="M14.0004 40.9009L10.5 40.6831V61.9482C10.5064 63.9756 11.9943 65.6938 14 65.9897L14.0004 40.9009Z" fill="#1C1D1C"/>
<path d="M17.5004 40.9009L14 40.6831V61.9482C14.0064 63.9756 15.4942 65.6938 17.5 65.9897L17.5004 40.9009Z" fill="#48352B"/>
<path d="M7 37.856H3.74609C1.67822 37.8536 0.00232422 36.1777 0 34.1099V27.6021C0.00232422 25.5342 1.67822 23.8583 3.74609 23.856H7V37.856ZM3.74609 26.1892C2.96611 26.1899 2.33406 26.8219 2.33338 27.6019V34.1097C2.33406 34.8897 2.96611 35.5218 3.74609 35.5224H4.66662V26.1891H3.74609V26.1892Z" fill="#E25F23"/>
<path d="M25.667 42.771L8.79248 41.7456C6.47373 41.5777 4.67574 39.652 4.66699 37.3273V24.3367C4.67355 22.2406 6.29203 20.5025 8.38232 20.3468L25.667 19.2917V42.771ZM23.3338 21.771L8.53627 22.6744C7.66988 22.7447 7.00201 23.4675 7.00051 24.3367V37.3273C7.0042 38.4251 7.85172 39.3357 8.94656 39.418L23.3339 40.2917V21.771H23.3338Z" fill="#E25F23"/>
<path d="M52.2901 58.3546C51.3496 58.354 50.4222 58.1334 49.582 57.711L26.6758 46.2574C24.6213 45.2396 23.3247 43.1418 23.333 40.849V21.1205C23.331 18.8906 24.5579 16.8411 26.5243 15.7896L33.2817 12.17C33.8499 11.8654 34.5574 12.0792 34.8619 12.6474C35.1665 13.2156 34.9526 13.9231 34.3844 14.2276L27.6271 17.8472C26.4188 18.4921 25.6648 19.7509 25.6663 21.1205V40.849C25.661 42.2571 26.4575 43.5454 27.7194 44.1702L50.6255 55.6238C51.7767 56.1991 53.1435 56.1375 54.2382 55.461C55.3329 54.7845 55.9994 53.5896 55.9997 52.3027V51.856C55.9997 51.2116 56.5219 50.6894 57.1663 50.6894C57.8106 50.6894 58.3329 51.2116 58.3329 51.856V52.3027C58.3298 55.6401 55.6277 58.3464 52.2901 58.3546Z" fill="#E25F23"/>
<path d="M57.1666 43.6891C56.8571 43.6893 56.5603 43.5665 56.3415 43.3476C56.1226 43.1287 55.9999 42.8319 56 42.5225V8.8487C55.9997 7.54303 55.3139 6.33348 54.1937 5.66288C53.0734 4.99227 51.6834 4.95905 50.5323 5.57551L41.3848 10.4767C41.0173 10.6738 40.5725 10.6597 40.218 10.4398C39.8636 10.22 39.6533 9.82788 39.6666 9.41102C39.6799 8.99417 39.9143 8.616 40.2818 8.41899L49.4306 3.51762C51.3049 2.51438 53.5683 2.56879 55.3923 3.6609C57.2162 4.75301 58.3328 6.72258 58.3334 8.84856V42.5224C58.3335 42.8319 58.2107 43.1287 57.9918 43.3475C57.773 43.5665 57.4761 43.6894 57.1666 43.6891Z" fill="#E25F23"/>
<path d="M37.3561 12.531C38.0004 12.531 38.5227 12.0087 38.5227 11.3644C38.5227 10.7201 38.0004 10.1978 37.3561 10.1978C36.7118 10.1978 36.1895 10.7201 36.1895 11.3644C36.1895 12.0087 36.7118 12.531 37.3561 12.531Z" fill="#E25F23"/>
<path d="M58.3334 37.856H56V23.856H58.3334C61.5535 23.8598 64.1629 26.4692 64.1668 29.6893V32.0227C64.1629 35.2427 61.5534 37.8521 58.3334 37.856ZM58.3334 26.1892V35.5226C60.2655 35.5205 61.8313 33.9547 61.8334 32.0226V29.6892C61.8312 27.7571 60.2655 26.1914 58.3334 26.1892Z" fill="#E25F23"/>
<path d="M66.4986 39.0226C66.0614 39.0222 65.6611 38.7773 65.4615 38.3882C65.262 37.9991 65.2969 37.5311 65.5518 37.1758C66.8925 35.3498 67.6316 33.1517 67.6665 30.8867C67.6155 28.6021 66.8765 26.3861 65.5462 24.5282C65.306 24.1875 65.266 23.7445 65.441 23.3662C65.616 22.9879 65.9795 22.7317 66.3946 22.694C66.8097 22.6564 67.2134 22.843 67.4535 23.1837C69.051 25.4174 69.9385 28.0807 69.9999 30.8263C69.9744 33.5995 69.0821 36.2954 67.4477 38.5361C67.2286 38.8421 66.875 39.0234 66.4986 39.0226Z" fill="#E25F23"/>
<path d="M13.9996 61.1892H10.4996C9.85527 61.1892 9.33301 60.6669 9.33301 60.0226C9.33301 59.3782 9.85541 58.856 10.4996 58.856H13.9996C14.644 58.856 15.1663 59.3782 15.1663 60.0226C15.1663 60.6669 14.644 61.1892 13.9996 61.1892Z" fill="#E25F23"/>
<path d="M13.9996 56.5225H10.4996C9.85527 56.5225 9.33301 56.0002 9.33301 55.3558C9.33301 54.7115 9.85541 54.1892 10.4996 54.1892H13.9996C14.644 54.1892 15.1663 54.7116 15.1663 55.3558C15.1663 56 14.644 56.5225 13.9996 56.5225Z" fill="#E25F23"/>
<path d="M13.9996 51.8559H10.4996C9.85527 51.8559 9.33301 51.3335 9.33301 50.6893C9.33301 50.045 9.85541 49.5227 10.4996 49.5227H13.9996C14.644 49.5227 15.1663 50.0451 15.1663 50.6893C15.1663 51.3335 14.644 51.8559 13.9996 51.8559Z" fill="#E25F23"/>
<path d="M13.9996 47.1892H10.4996C9.85527 47.1892 9.33301 46.6668 9.33301 46.0226C9.33301 45.3782 9.85541 44.856 10.4996 44.856H13.9996C14.644 44.856 15.1663 45.3784 15.1663 46.0226C15.1663 46.6669 14.644 47.1892 13.9996 47.1892Z" fill="#E25F23"/>
<path d="M14.583 67.198C11.6848 67.1948 9.33615 64.8461 9.33301 61.948V39.4419L19.833 40.0947V61.9481C19.8299 64.8461 17.4812 67.1948 14.583 67.198ZM11.6663 41.9255V61.948C11.6663 63.5588 12.9721 64.8646 14.5829 64.8646C16.1937 64.8646 17.4996 63.5588 17.4996 61.948V42.2867L11.6663 41.9255Z" fill="#E25F23"/>
<path d="M52.2906 58.3546C51.3502 58.354 50.4228 58.1334 49.5825 57.711L46.667 56.2526V5.00015L49.431 3.51784C51.3053 2.51419 53.5688 2.56833 55.3929 3.66058C57.217 4.75282 58.3335 6.72267 58.3337 8.84864V42.5225H56.0002V8.84864C56 7.54298 55.3142 6.33343 54.1939 5.66282C53.0736 4.99222 51.6836 4.95899 50.5326 5.57546L49.0002 6.397V54.8102L50.6261 55.6237C51.7773 56.199 53.144 56.1373 54.2387 55.4608C55.3335 54.7844 56 53.5894 56.0002 52.3025H58.3336L58.2915 53.0226C57.9237 56.0598 55.35 58.3467 52.2906 58.3546Z" fill="#E25F23"/>
<path d="M29.1666 27.356C28.8571 27.3561 28.5603 27.2334 28.3415 27.0145C28.1228 26.7956 27.9999 26.4988 28 26.1894V23.6464C27.9981 21.9304 28.9427 20.3533 30.4564 19.5448L35.6494 16.9769C36.227 16.6912 36.9269 16.9279 37.2125 17.5055C37.4981 18.0832 37.2615 18.783 36.6838 19.0686L31.5238 21.6195C30.7859 22.0264 30.3293 22.8038 30.3332 23.6464V26.1894C30.3334 26.4989 30.2106 26.7957 29.9917 27.0145C29.7728 27.2332 29.4762 27.3561 29.1666 27.356Z" fill="#E25F23"/>
<path d="M29.1666 33.1893C28.8571 33.1895 28.5603 33.0667 28.3415 32.8478C28.1228 32.6289 27.9999 32.3321 28 32.0227V29.6893C28 29.045 28.5223 28.5227 29.1666 28.5227C29.811 28.5227 30.3332 29.0451 30.3332 29.6893V32.0227C30.3334 32.3322 30.2106 32.6291 29.9917 32.8478C29.7728 33.0666 29.4762 33.1895 29.1666 33.1893Z" fill="#E25F23"/>
<path d="M57.1666 48.3559C57.8109 48.3559 58.3332 47.8336 58.3332 47.1893C58.3332 46.545 57.8109 46.0227 57.1666 46.0227C56.5223 46.0227 56 46.545 56 47.1893C56 47.8336 56.5223 48.3559 57.1666 48.3559Z" fill="#E25F23"/>
</g>
<defs>
<clipPath id="clip0">
<rect width="70" height="70" fill="white"/>
</clipPath>
</defs>
</svg>
