<svg width="70" height="70" viewBox="0 0 70 70" fill="none" xmlns="http://www.w3.org/2000/svg">
<g clip-path="url(#clip0)">
<path d="M53.6667 18.8885L64.8783 7.68848C65.4486 7.0226 66.344 6.73255 67.1963 6.93759C68.0487 7.14262 68.7142 7.80813 68.9192 8.6605C69.1243 9.51287 68.8342 10.4082 68.1684 10.9785L54.95 24.1851C54.4339 24.6961 53.7094 24.9376 52.99 24.8385H17.01C16.2906 24.9376 15.5661 24.6961 15.05 24.1851L1.85502 10.9785C1.06221 10.0527 1.11551 8.67269 1.97737 7.81083C2.83923 6.94897 4.21925 6.89567 5.14502 7.68848L16.3334 18.8885H53.6667Z" fill="#48352B"/>
<path d="M4.6665 38.5002L11.8998 65.3336C12.4315 67.3928 14.2881 68.832 16.4148 68.8336H53.5848C55.7115 68.832 57.5682 67.3928 58.0998 65.3336L65.3332 38.5002H4.6665ZM24.4998 59.5003C24.4998 61.4333 22.9328 63.0003 20.9998 63.0003C19.0668 63.0003 17.4998 61.4333 17.4998 59.5003V47.8336C17.4998 45.9006 19.0668 44.3336 20.9998 44.3336C22.9328 44.3336 24.4998 45.9006 24.4998 47.8336V59.5003ZM38.4998 59.5003C38.4998 61.4333 36.9328 63.0003 34.9998 63.0003C33.0668 63.0003 31.4998 61.4333 31.4998 59.5003V47.8336C31.4998 45.9006 33.0668 44.3336 34.9998 44.3336C36.9328 44.3336 38.4998 45.9006 38.4998 47.8336V59.5003ZM52.4998 59.5003C52.4998 61.4333 50.9328 63.0003 48.9998 63.0003C47.0668 63.0003 45.4998 61.4333 45.4998 59.5003V47.8336C45.4998 45.9006 47.0668 44.3336 48.9998 44.3336C50.9328 44.3336 52.4998 45.9006 52.4998 47.8336V59.5003Z" fill="#48352B"/>
<path d="M66.4998 29.1667H3.49984C2.21117 29.1667 1.1665 30.2114 1.1665 31.5001V36.1667C1.1665 37.4554 2.21117 38.5001 3.49984 38.5001H66.4998C67.7885 38.5001 68.8332 37.4554 68.8332 36.1667V31.5001C68.8332 30.2114 67.7885 29.1667 66.4998 29.1667Z" fill="#715242"/>
<path d="M62.9998 29.1667H3.49984C2.21117 29.1667 1.1665 30.2114 1.1665 31.5001V36.1667C1.1665 37.4554 2.21117 38.5001 3.49984 38.5001H62.9998C64.2885 38.5001 65.3332 37.4554 65.3332 36.1667V31.5001C65.3332 30.2114 64.2885 29.1667 62.9998 29.1667Z" fill="#48352B"/>
<path d="M53.6664 19.8335C53.6661 29.9154 45.6604 38.1753 35.5835 38.4905C25.5066 38.8058 17.0002 31.0625 16.3696 21.0004C15.7391 10.9383 23.2123 2.19372 33.2498 1.24854C38.4818 0.755871 43.6792 2.49144 47.5654 6.029C51.4516 9.56655 53.6666 14.5784 53.6664 19.8335Z" fill="#715242"/>
<path d="M33.2497 38.4185C42.5925 38.4185 50.1663 30.0978 50.1663 19.8335C50.1663 9.56933 42.5925 1.24854 33.2497 1.24854C23.9069 1.24854 16.333 9.56933 16.333 19.8335C16.333 30.0978 23.9069 38.4185 33.2497 38.4185Z" fill="#48352B"/>
<path d="M41.8482 20.8368C41.5747 21.1078 41.4524 21.4963 41.5216 21.8751L42.5366 27.8018C42.6124 28.2417 42.4305 28.6864 42.068 28.947C41.7056 29.2077 41.2262 29.2386 40.8332 29.0268L35.5482 26.2385C35.2055 26.056 34.7944 26.056 34.4516 26.2385L29.1666 29.0268C28.7736 29.2386 28.2942 29.2077 27.9318 28.947C27.5694 28.6864 27.3875 28.2417 27.4632 27.8018L28.4782 21.8751C28.5474 21.4963 28.4251 21.1078 28.1516 20.8368L23.8466 16.6368C23.5323 16.3255 23.4212 15.8632 23.5596 15.443C23.698 15.0228 24.0621 14.7171 24.4999 14.6535L30.4266 13.7901C30.806 13.7331 31.1332 13.4932 31.3016 13.1485C33.6349 8.38847 33.0166 9.64847 33.9499 7.75847C34.1448 7.35598 34.5527 7.10034 34.9999 7.10034C35.4471 7.10034 35.855 7.35598 36.0499 7.75847L38.6982 13.1485C38.8667 13.4932 39.1938 13.7331 39.5732 13.7901L45.4999 14.6535C45.9377 14.7171 46.3018 15.0228 46.4402 15.443C46.5787 15.8632 46.4675 16.3255 46.1533 16.6368L41.8482 20.8368Z" fill="#715242"/>
<path d="M15.3998 65.3337L8.1665 38.5003H6.99984C5.71117 38.5003 4.6665 37.4557 4.6665 36.167V31.5003C4.6665 30.2117 5.71117 29.167 6.99984 29.167H3.49984C2.21117 29.167 1.1665 30.2117 1.1665 31.5003V36.167C1.1665 37.4557 2.21117 38.5003 3.49984 38.5003H4.6665L11.8998 65.3337C12.4315 67.3928 14.2881 68.8321 16.4148 68.8337H19.9148C17.7881 68.8321 15.9315 67.3928 15.3998 65.3337Z" fill="#715242"/>
<path d="M15.05 24.1852C15.5661 24.6961 16.2906 24.9376 17.01 24.8385C17.4551 26.3477 18.0737 27.8002 18.8534 29.1668H22.3534C21.5737 27.8002 20.9551 26.3477 20.51 24.8385C19.7906 24.9376 19.0661 24.6961 18.55 24.1852L5.35502 10.9785C4.49821 10.1082 4.45751 8.72437 5.26169 7.80518L5.14502 7.68852C4.21925 6.8957 2.83923 6.94901 1.97737 7.81087C1.11551 8.67273 1.06221 10.0527 1.85502 10.9785L15.05 24.1852Z" fill="#48352B"/>
<path d="M3.55371 38.8176L5.80771 38.211L8.23438 47.227L5.98038 47.8336L3.55371 38.8176Z" fill="#1C1D1C"/>
<path d="M5.90348 44.17C5.25915 44.17 4.73682 43.6477 4.73682 43.0033C4.73682 42.359 5.25915 41.8367 5.90348 41.8367C6.54781 41.8367 7.07015 42.359 7.07015 43.0033C7.07015 43.6477 6.54781 44.17 5.90348 44.17Z" fill="#715242"/>
<path d="M52.5002 39.6668C53.1445 39.6668 53.6668 39.1445 53.6668 38.5002C53.6668 37.8558 53.1445 37.3335 52.5002 37.3335H49.0002C48.3558 37.3335 47.8335 37.8558 47.8335 38.5002C47.8335 39.1445 48.3558 39.6668 49.0002 39.6668H52.5002Z" fill="#E25F23"/>
<path d="M21.0002 64.1668C23.5775 64.1668 25.6668 62.0774 25.6668 59.5001V47.8334C25.6668 45.2561 23.5775 43.1667 21.0002 43.1667C18.4228 43.1667 16.3335 45.2561 16.3335 47.8334V59.5001C16.3335 62.0774 18.4228 64.1668 21.0002 64.1668ZM18.6668 47.8334C18.6668 46.5448 19.7115 45.5001 21.0002 45.5001C22.2888 45.5001 23.3335 46.5448 23.3335 47.8334V59.5001C23.3335 60.7887 22.2888 61.8334 21.0002 61.8334C19.7115 61.8334 18.6668 60.7887 18.6668 59.5001V47.8334Z" fill="#E25F23"/>
<path d="M39.6668 59.5001V47.8334C39.6668 45.2561 37.5775 43.1667 35.0002 43.1667C32.4228 43.1667 30.3335 45.2561 30.3335 47.8334V59.5001C30.3335 62.0774 32.4228 64.1668 35.0002 64.1668C37.5775 64.1668 39.6668 62.0774 39.6668 59.5001ZM32.6668 59.5001V47.8334C32.6668 46.5448 33.7115 45.5001 35.0002 45.5001C36.2888 45.5001 37.3335 46.5448 37.3335 47.8334V59.5001C37.3335 60.7887 36.2888 61.8334 35.0002 61.8334C33.7115 61.8334 32.6668 60.7887 32.6668 59.5001Z" fill="#E25F23"/>
<path d="M44.3335 47.8334V59.5001C44.3335 62.0774 46.4228 64.1668 49.0002 64.1668C51.5775 64.1668 53.6668 62.0774 53.6668 59.5001V47.8334C53.6668 45.2561 51.5775 43.1667 49.0002 43.1667C46.4228 43.1667 44.3335 45.2561 44.3335 47.8334ZM46.6668 47.8334C46.6668 46.5448 47.7115 45.5001 49.0002 45.5001C50.2888 45.5001 51.3335 46.5448 51.3335 47.8334V59.5001C51.3335 60.7887 50.2888 61.8334 49.0002 61.8334C47.7115 61.8334 46.6668 60.7887 46.6668 59.5001V47.8334Z" fill="#E25F23"/>
<path d="M55.7783 25.0134L68.9617 11.8068C70.3264 10.4403 70.3264 8.2266 68.9617 6.86012C67.5839 5.5341 65.4044 5.5341 64.0267 6.86012L54.5067 16.3335C52.7767 6.92008 44.571 0.0849609 35 0.0849609C25.429 0.0849609 17.2233 6.92008 15.4933 16.3335L5.97333 6.86012C4.58922 5.53863 2.41078 5.53863 1.02667 6.86012C-0.338116 8.2266 -0.338116 10.4403 1.02667 11.8068L14.2217 25.0134C14.7452 25.5376 15.4249 25.8774 16.1583 25.9818C16.3812 26.6702 16.6461 27.3442 16.9517 28.0001H3.5C1.567 28.0001 0 29.5671 0 31.5001V36.1668C0 38.0998 1.567 39.6668 3.5 39.6668H43.1667C43.811 39.6668 44.3333 39.1444 44.3333 38.5001C44.3252 38.1266 44.1387 37.7796 43.8317 37.5668C47.1006 35.9316 49.8571 33.4293 51.8 30.3334H66.5C67.1443 30.3334 67.6667 30.8558 67.6667 31.5001V36.1668C67.6667 36.8111 67.1443 37.3334 66.5 37.3334H59.5C58.8557 37.3334 58.3333 37.8558 58.3333 38.5001C58.3333 39.1444 58.8557 39.6668 59.5 39.6668H63.8167L56.9683 65.0768C56.5565 66.6062 55.1689 67.6684 53.585 67.6668H16.415C14.8311 67.6684 13.4435 66.6062 13.0317 65.0768L8.16667 47.2151C8.1288 46.7457 7.81247 46.3451 7.36467 46.1995C6.91687 46.0538 6.42541 46.1916 6.11864 46.5489C5.81187 46.9062 5.74996 47.4128 5.96167 47.8334L10.7683 65.6834C11.4554 68.2353 13.7723 70.0064 16.415 70.0001H53.585C56.2277 70.0064 58.5446 68.2353 59.2317 65.6834L66.2317 39.6668H66.5C68.433 39.6668 70 38.0998 70 36.1668V31.5001C70 29.5671 68.433 28.0001 66.5 28.0001H53.0483C53.3539 27.3442 53.6188 26.6702 53.8417 25.9818C54.5751 25.8774 55.2548 25.5376 55.7783 25.0134ZM65.6833 8.51679C66.1384 8.06444 66.8733 8.06444 67.3283 8.51679C67.5439 8.73409 67.6654 9.02739 67.6667 9.33345C67.6623 9.64118 67.5365 9.93472 67.3167 10.1501L54.565 22.9134C54.7374 21.8957 54.8271 20.8657 54.8333 19.8334C54.8333 19.6818 54.8333 19.5301 54.8333 19.3784L65.6833 8.51679ZM2.68333 10.1501C2.23867 9.69647 2.23867 8.97044 2.68333 8.51679C3.13838 8.06444 3.87329 8.06444 4.32833 8.51679L15.1667 19.3784V19.8334C15.1729 20.8657 15.2626 21.8957 15.435 22.9134L2.68333 10.1501ZM3.5 37.3334C2.85567 37.3334 2.33333 36.8111 2.33333 36.1668V31.5001C2.33333 30.8558 2.85567 30.3334 3.5 30.3334H18.2C20.0357 33.2781 22.6098 35.6913 25.6667 37.3334H3.5ZM35 37.3334C25.335 37.3334 17.5 29.4984 17.5 19.8334C17.5 10.1685 25.335 2.33346 35 2.33346C44.665 2.33346 52.5 10.1685 52.5 19.8334C52.5 24.4747 50.6563 28.9259 47.3744 32.2078C44.0925 35.4897 39.6413 37.3334 35 37.3334Z" fill="#E25F23"/>
<path d="M47.5532 15.0851C47.2791 14.2425 46.5515 13.6278 45.6749 13.4985L39.7365 12.6351L37.0882 7.24515C36.6935 6.45318 35.8847 5.95264 34.9999 5.95264C34.115 5.95264 33.3062 6.45318 32.9115 7.24515L30.2632 12.6351L24.3365 13.4985C23.4478 13.6193 22.707 14.2388 22.4308 15.0921C22.1547 15.9455 22.3921 16.8816 23.0415 17.5001L27.3349 21.7001L26.3199 27.6268C26.1498 28.52 26.514 29.4307 27.2532 29.9601C27.9706 30.4784 28.9194 30.5462 29.7032 30.1352L34.9999 27.2652L40.2965 30.0652C41.0829 30.4775 42.0351 30.4079 42.753 29.8855C43.471 29.3631 43.8303 28.4785 43.6799 27.6035L42.6649 21.6768L46.9582 17.5001C47.6048 16.8768 47.8362 15.9376 47.5532 15.0851ZM41.0432 20.0085C40.4913 20.5434 40.2382 21.3157 40.3665 22.0735L41.3815 28.0002L36.0849 25.2001C35.4055 24.8433 34.5942 24.8433 33.9149 25.2001L28.6182 28.0002L29.6332 22.0618C29.7575 21.3079 29.5047 20.5408 28.9565 20.0085L24.6632 15.8085L30.5899 14.9452C31.3531 14.8348 32.0125 14.3544 32.3515 13.6618L34.9999 8.27182L37.6482 13.6501C37.9873 14.3428 38.6467 14.8231 39.4099 14.9335L45.3365 15.7968L41.0432 20.0085Z" fill="#E25F23"/>
</g>
<defs>
<clipPath id="clip0">
<rect width="70" height="70" fill="white"/>
</clipPath>
</defs>
</svg>
