<svg width="25" height="46" viewBox="0 0 25 46" fill="none" xmlns="http://www.w3.org/2000/svg">
<path d="M23.9205 44.4271C24.7016 43.646 24.7016 42.3797 23.9205 41.5987L3.41441 21.0926C2.63336 20.3115 1.36703 20.3115 0.585979 21.0926C-0.195068 21.8736 -0.195068 23.14 0.585979 23.921L21.0921 44.4271C21.8731 45.2081 23.1395 45.2081 23.9205 44.4271Z" fill="#676767"/>
<path d="M23.9206 0.586763C23.1395 -0.194286 21.8732 -0.194286 21.0921 0.586763L0.585979 21.0926C-0.195068 21.8736 -0.195068 23.14 0.585979 23.921C1.36703 24.702 2.63342 24.7023 3.41446 23.9213L23.9206 3.41519C24.7016 2.63414 24.7016 1.36781 23.9206 0.586763Z" fill="#676767"/>
</svg>
