<svg width="26" height="46" viewBox="0 0 26 46" fill="none" xmlns="http://www.w3.org/2000/svg">
<path d="M1.41397 45.2557C0.632921 44.4747 0.632921 43.2083 1.41397 42.4273L21.9201 21.9212C22.7011 21.1401 23.9674 21.1401 24.7485 21.9212C25.5295 22.7022 25.5295 23.9686 24.7485 24.7496L4.2424 45.2557C3.46135 46.0368 2.19502 46.0368 1.41397 45.2557Z" fill="#676767"/>
<path d="M1.41391 1.41538C2.19496 0.634328 3.46129 0.634328 4.24234 1.41538L24.7485 21.9212C25.5295 22.7022 25.5295 23.9686 24.7485 24.7496C23.9674 25.5307 22.7011 25.5309 21.92 24.7499L1.41391 4.2438C0.632863 3.46275 0.632863 2.19642 1.41391 1.41538Z" fill="#676767"/>
</svg>
