<svg width="19" height="15" viewBox="0 0 19 15" fill="none" xmlns="http://www.w3.org/2000/svg">
<path d="M18.884 7.39336L12.9465 0.607642C12.7919 0.430916 12.5414 0.430916 12.3868 0.607642C12.2322 0.784367 12.2322 1.07064 12.3868 1.24732L17.6486 7.26082H0.395846C0.177049 7.26082 0 7.46316 0 7.71322C0 7.96327 0.177049 8.16561 0.395846 8.16561H17.6486L12.3868 14.1791C12.2322 14.3558 12.2322 14.6421 12.3868 14.8187C12.4641 14.9071 12.5654 14.9513 12.6667 14.9513C12.768 14.9513 12.8692 14.9071 12.9466 14.8187L18.8841 8.03304C19.0387 7.85635 19.0387 7.57008 18.884 7.39336Z" fill="white"/>
</svg>
