<svg width="32" height="32" viewBox="0 0 32 32" fill="none" xmlns="http://www.w3.org/2000/svg">
<g clip-path="url(#clip0)">
<path d="M26.9379 20.5077V15.2343C26.9379 13.7271 26.1419 12.5064 24.8085 11.9691C24.0907 11.6798 23.3477 11.6523 22.7655 11.8651C22.5001 11.5276 22.15 11.2448 21.7293 11.039C20.9278 10.6468 20.0221 10.5931 19.2988 10.864C18.9221 10.4189 18.3946 10.0875 17.7595 9.92321C17.2277 9.78577 16.7055 9.78646 16.2568 9.90584L16.1525 5.11161C16.1222 3.71736 15.0582 2.62524 13.7301 2.62524C12.3943 2.62524 11.3075 3.74674 11.3075 5.12523V17.093C11.0557 16.8428 10.8687 16.5786 10.6763 16.3066C10.1984 15.6311 9.65686 14.8655 8.17537 14.546C6.92068 14.2756 5.84 14.8973 5.36688 15.5897C4.99275 16.1373 4.96169 16.755 5.28381 17.2421C5.37888 17.3857 5.49013 17.5287 5.60794 17.6802C5.99369 18.1761 6.52193 18.8552 7.03925 20.2753C7.75987 22.2534 9.00449 23.146 10.0046 23.8631C10.9693 24.555 11.6979 25.0781 11.8684 26.3771C11.5426 26.3985 11.2847 26.6688 11.2847 27.0001V31.3751C11.2847 31.7202 11.5646 32.0001 11.9097 32.0001H25.7364C26.0815 32.0001 26.3614 31.7202 26.3614 31.3751V27.0001C26.3614 26.6674 26.1014 26.3963 25.7736 26.377C25.8567 25.5805 26.0809 24.7695 26.3159 23.9208C26.6217 22.8164 26.9379 21.6747 26.9379 20.5077ZM25.1114 30.7499H12.5348V27.6249H16.0104C16.3555 27.6249 16.6354 27.3451 16.6354 27C16.6354 26.6548 16.3555 26.375 16.0104 26.375H13.1261C12.9308 24.4246 11.8155 23.6235 10.7332 22.8473C9.78392 22.1665 8.80224 21.4626 8.2138 19.8473C7.62924 18.2427 7.00668 17.4423 6.59468 16.9126C6.48756 16.7749 6.39506 16.656 6.3265 16.5523C6.27706 16.4776 6.38644 16.3133 6.39906 16.2948C6.64531 15.9343 7.25931 15.6271 7.91187 15.7679C8.91755 15.9847 9.21124 16.3999 9.65586 17.0284C10.0105 17.5298 10.4426 18.1405 11.3075 18.664V18.9219C11.3075 19.267 11.5874 19.5469 11.9325 19.5469C12.2777 19.5469 12.5575 19.267 12.5575 18.9219V5.12511C12.5575 4.43586 13.0836 3.87511 13.7302 3.87511C14.3617 3.87511 14.8877 4.44192 14.9028 5.13867L15.0825 13.4042C15.09 13.7447 15.3682 14.0156 15.7071 14.0156C15.7117 14.0156 15.7163 14.0156 15.721 14.0155C16.0661 14.008 16.3398 13.7222 16.3323 13.3771L16.286 11.2472C16.4885 11.0832 16.9457 11.0038 17.4465 11.1333C17.7379 11.2087 18.6887 11.5404 18.6887 12.6445C18.6887 12.9896 18.9686 13.2694 19.3137 13.2694C19.6588 13.2694 19.9387 12.9896 19.9387 12.6445C19.9387 12.4202 19.9137 12.2031 19.8655 11.9955C20.2528 11.8979 20.7532 11.953 21.1799 12.1617C21.5208 12.3285 22.0927 12.7303 22.0927 13.5468C22.0927 13.8919 22.3726 14.1718 22.7177 14.1718C23.0629 14.1718 23.3427 13.8919 23.3427 13.5468C23.3427 13.3632 23.3252 13.1837 23.2911 13.0098C23.5574 12.9467 23.9444 12.9685 24.3412 13.1284C24.7462 13.2916 25.6879 13.8234 25.6879 15.2343V20.5076C25.6879 21.5047 25.4079 22.5162 25.1113 23.587C24.8604 24.4931 24.603 25.4249 24.5186 26.3749H21.6354C21.2903 26.3749 21.0104 26.6547 21.0104 26.9999C21.0104 27.3451 21.2903 27.6249 21.6354 27.6249H25.1114V30.7499Z" fill="#353637"/>
<path d="M18.8225 26.3748H18.822C18.4769 26.3748 18.1973 26.6546 18.1973 26.9998C18.1973 27.3449 18.4773 27.6248 18.8225 27.6248C19.1677 27.6248 19.4475 27.3449 19.4475 26.9998C19.4475 26.6546 19.1676 26.3748 18.8225 26.3748Z" fill="#353637"/>
<path d="M17.9913 3.49563H23.3891L22.2105 4.67432C21.9664 4.91838 21.9664 5.31413 22.2105 5.55826C22.3325 5.68032 22.4925 5.74132 22.6524 5.74132C22.8123 5.74132 22.9723 5.68032 23.0943 5.55826L25.34 3.31257C25.4572 3.19538 25.5231 3.03638 25.5231 2.87063C25.5231 2.70488 25.4572 2.54588 25.34 2.4287L23.0943 0.18307C22.8502 -0.0609922 22.4546 -0.0610547 22.2104 0.18307C21.9663 0.427133 21.9663 0.822883 22.2104 1.06695L23.3891 2.24563H17.9912C17.6461 2.24563 17.3662 2.52545 17.3662 2.87063C17.3662 3.21582 17.6461 3.49563 17.9913 3.49563Z" fill="#353637"/>
</g>
<defs>
<clipPath id="clip0">
<rect width="32" height="32" fill="white"/>
</clipPath>
</defs>
</svg>
