<svg width="38" height="38" viewBox="0 0 38 38" fill="none" xmlns="http://www.w3.org/2000/svg">
<circle cx="19" cy="19.001" r="19" fill="url(#paint0_linear)"/>
<g clip-path="url(#clip0)">
<path d="M27.203 19.8817C26.951 16.6006 25.4234 14.5445 24.0757 12.7301C22.8278 11.0504 21.75 9.59985 21.75 7.46009C21.75 7.28822 21.6538 7.13113 21.5011 7.05236C21.348 6.97313 21.1641 6.98611 21.0249 7.08726C19.0009 8.53556 17.3121 10.9766 16.7222 13.3056C16.3127 14.9272 16.2585 16.7501 16.2509 17.954C14.3818 17.5548 13.9583 14.7589 13.9539 14.7284C13.9328 14.5834 13.8442 14.4572 13.7153 14.3883C13.5851 14.3203 13.432 14.3153 13.2999 14.3807C13.2019 14.4281 10.8941 15.6007 10.7598 20.2827C10.7504 20.4384 10.75 20.5947 10.75 20.7508C10.75 25.2994 14.4511 29.0003 19 29.0003C19.0063 29.0007 19.013 29.0016 19.0183 29.0003C19.0202 29.0003 19.0219 29.0003 19.0241 29.0003C23.5619 28.9873 27.25 25.2914 27.25 20.7508C27.25 20.5221 27.203 19.8817 27.203 19.8817ZM19 28.0837C17.4835 28.0837 16.25 26.7696 16.25 25.1544C16.25 25.0994 16.2496 25.0439 16.2536 24.9758C16.2719 24.2946 16.4013 23.8296 16.5432 23.5204C16.8091 24.0914 17.2844 24.6164 18.0565 24.6164C18.3098 24.6164 18.5148 24.4114 18.5148 24.1581C18.5148 23.5056 18.5283 22.7528 18.6908 22.0734C18.8353 21.471 19.1809 20.83 19.6186 20.3163C19.8133 20.9831 20.1929 21.5229 20.5635 22.0497C21.0939 22.8033 21.6422 23.5826 21.7384 24.9114C21.7442 24.9901 21.7501 25.0694 21.7501 25.1544C21.75 26.7696 20.5165 28.0837 19 28.0837Z" fill="#1C1D1C"/>
</g>
<defs>
<linearGradient id="paint0_linear" x1="19" y1="0.000976562" x2="19" y2="38.001" gradientUnits="userSpaceOnUse">
<stop stop-color="#E25F23"/>
<stop offset="1" stop-color="#E23523"/>
</linearGradient>
<clipPath id="clip0">
<rect width="22" height="22" fill="white" transform="translate(8 7.00098)"/>
</clipPath>
</defs>
</svg>
