<svg width="18" height="19" viewBox="0 0 18 19" fill="none" xmlns="http://www.w3.org/2000/svg">
<g clip-path="url(#clip0)">
<path d="M8.87161 9.65335C10.0628 9.65335 11.0943 9.22652 11.9371 8.38437C12.7799 7.54237 13.2071 6.51212 13.2071 5.3219C13.2071 4.13209 12.7799 3.10171 11.9369 2.25943C11.094 1.41756 10.0627 0.990723 8.87161 0.990723C7.68028 0.990723 6.64908 1.41756 5.80629 2.25956C4.9635 3.10157 4.53613 4.13195 4.53613 5.3219C4.53613 6.51212 4.9635 7.54251 5.80643 8.38451C6.64935 9.22638 7.68069 9.65335 8.87161 9.65335Z" fill="white"/>
<path d="M16.4577 14.8189C16.4333 14.4685 16.3842 14.0862 16.3118 13.6826C16.2388 13.2759 16.1447 12.8915 16.0321 12.5401C15.9158 12.1769 15.7576 11.8183 15.562 11.4746C15.359 11.1179 15.1206 10.8072 14.8531 10.5516C14.5734 10.2842 14.2309 10.0692 13.8348 9.91241C13.4401 9.75641 13.0027 9.67738 12.5349 9.67738C12.3511 9.67738 12.1734 9.75271 11.8302 9.97593C11.619 10.1135 11.3719 10.2727 11.0962 10.4487C10.8604 10.5988 10.541 10.7395 10.1464 10.8668C9.76149 10.9912 9.37065 11.0543 8.98489 11.0543C8.59914 11.0543 8.20844 10.9912 7.82309 10.8668C7.42896 10.7396 7.10953 10.599 6.87401 10.4489C6.60086 10.2745 6.35367 10.1153 6.1393 9.9758C5.79652 9.75257 5.61868 9.67725 5.43494 9.67725C4.96692 9.67725 4.52966 9.75641 4.13512 9.91255C3.73933 10.0691 3.3967 10.2841 3.11668 10.5518C2.8493 10.8075 2.61076 11.118 2.40807 11.4746C2.21265 11.8183 2.05444 12.1768 1.93799 12.5402C1.82552 12.8916 1.73145 13.2759 1.65839 13.6826C1.58601 14.0857 1.53685 14.468 1.51254 14.8193C1.48865 15.1634 1.47656 15.5205 1.47656 15.8812C1.47656 16.82 1.77525 17.5799 2.36426 18.1404C2.94598 18.6934 3.71571 18.974 4.65175 18.974H13.3189C14.2549 18.974 15.0244 18.6936 15.6062 18.1404C16.1954 17.5803 16.494 16.8202 16.494 15.8811C16.4939 15.5187 16.4817 15.1613 16.4577 14.8189Z" fill="white"/>
</g>
<defs>
<clipPath id="clip0">
<rect width="18" height="17.9833" fill="white" transform="translate(0 0.990723)"/>
</clipPath>
</defs>
</svg>
