<svg width="32" height="20" viewBox="0 0 32 20" fill="none" xmlns="http://www.w3.org/2000/svg">
<path d="M31.7148 17.1346C31.6288 16.9907 31.0967 15.8357 28.5366 13.4617C25.8564 10.9758 26.2164 11.3795 29.4446 7.08113C31.4108 4.46336 32.1968 2.86472 31.9508 2.18131C31.7168 1.52986 30.2707 1.70171 30.2707 1.70171L25.4623 1.72969C25.4623 1.72969 25.1063 1.68173 24.8403 1.8396C24.5823 1.99546 24.4163 2.35516 24.4163 2.35516C24.4163 2.35516 23.6542 4.38143 22.6381 6.10397C20.496 9.73887 19.6379 9.93071 19.2879 9.7049C18.4738 9.17935 18.6778 7.5907 18.6778 6.46366C18.6778 2.94066 19.2119 1.47191 17.6358 1.09223C17.1117 0.96634 16.7277 0.882412 15.3896 0.868424C13.6735 0.850439 12.2194 0.874419 11.3973 1.27608C10.8492 1.54385 10.4272 2.14134 10.6852 2.17531C11.0033 2.21728 11.7233 2.36915 12.1053 2.8887C12.5994 3.55813 12.5814 5.06485 12.5814 5.06485C12.5814 5.06485 12.8654 9.21132 11.9193 9.72688C11.2693 10.0806 10.3792 9.35919 8.46907 6.06C7.491 4.37144 6.75095 2.50303 6.75095 2.50303C6.75095 2.50303 6.60894 2.15533 6.35492 1.96949C6.04689 1.74368 5.61486 1.67174 5.61486 1.67174L1.04252 1.69972C1.04252 1.69972 0.356473 1.7197 0.104454 2.01745C-0.119562 2.28322 0.0864529 2.83075 0.0864529 2.83075C0.0864529 2.83075 3.66672 11.1976 7.71902 15.416C11.4373 19.2827 15.6576 19.029 15.6576 19.029H17.5697C17.5697 19.029 18.1478 18.965 18.4418 18.6473C18.7138 18.3555 18.7038 17.808 18.7038 17.808C18.7038 17.808 18.6658 15.2442 19.8579 14.8665C21.032 14.4948 22.5401 17.3444 24.1382 18.4415C25.3463 19.2708 26.2644 19.0889 26.2644 19.0889L30.5387 19.029C30.5387 19.029 32.7749 18.8911 31.7148 17.1346Z" fill="white"/>
</svg>
