<svg width="312" height="84" viewBox="0 0 312 84" fill="none" xmlns="http://www.w3.org/2000/svg">
<path d="M0 10C0 4.47715 4.47715 0 10 0H302C307.523 0 312 4.47715 312 10V64C312 69.5229 307.523 74 302 74H9.99999C4.47715 74 0 69.5229 0 64V10Z" fill="#313030"/>
<path d="M145.121 57.5355C147.074 55.5829 150.24 55.5829 152.192 57.5355L160.778 66.1214C162.731 68.0741 162.731 71.2399 160.778 73.1925L152.192 81.7784C150.24 83.731 147.074 83.731 145.121 81.7784L136.535 73.1925C134.583 71.2399 134.583 68.0741 136.535 66.1214L145.121 57.5355Z" fill="#313030"/>
</svg>
