<svg width="52" height="52" viewBox="0 0 52 52" fill="none" xmlns="http://www.w3.org/2000/svg">
<g clip-path="url(#clip0)">
<path d="M33.7995 31.2H19.0662L16.4662 28.6H9.53288L6.93288 31.2H0.866211V9.53338C0.866211 8.57609 1.64225 7.80005 2.59954 7.80005H32.0662C33.0235 7.80005 33.7995 8.57609 33.7995 9.53338V31.2Z" fill="#7F89CB"/>
<path d="M31.1995 31.2H19.0662L16.4662 28.6H9.53288L6.93288 31.2H0.866211V9.53338C0.866211 8.57609 1.64225 7.80005 2.59954 7.80005H29.4662C30.4235 7.80005 31.1995 8.57609 31.1995 9.53338V31.2Z" fill="#414A67"/>
<path d="M51.1327 25.1334V29.4668C51.1327 30.4241 50.3566 31.2001 49.3994 31.2001H47.666V23.4001H49.3994C50.3566 23.4001 51.1327 24.1761 51.1327 25.1334Z" fill="#7F89CB"/>
<path d="M47.6665 19.9334V31.2001H33.7998V9.53341C33.7998 9.05477 34.1878 8.66675 34.6665 8.66675H42.2758C42.9336 8.6671 43.5345 9.03971 43.8272 9.62875C45.4738 13.0001 44.5812 10.6947 47.6665 19.9334Z" fill="#7F89CB"/>
<path d="M45.0665 19.9334V31.2001H33.7998V9.53341C33.7998 9.05477 34.1878 8.66675 34.6665 8.66675H39.6758C40.3336 8.6671 40.9344 9.03971 41.2271 9.62875C42.8738 13.0001 41.9811 10.6947 45.0665 19.9334Z" fill="#414A67"/>
<path d="M47.6658 31.2L46.0625 35.2214C44.7359 32.7811 41.9216 31.5534 39.2306 32.241C36.5396 32.9286 34.6592 35.3559 34.6658 38.1334H19.0658C19.0658 34.7828 16.3497 32.0667 12.9992 32.0667C9.64863 32.0667 6.93249 34.7828 6.93249 38.1334H5.19915C4.24186 38.1334 3.46582 37.3573 3.46582 36.4V31.2H6.93249L9.53249 28.6H16.4658L19.0658 31.2H34.6658L37.2658 28.6H44.1992L46.7992 31.2H47.6658Z" fill="#414A67"/>
<path d="M47.6665 17.7407V23.4C47.6665 21.2074 46.3231 19.9334 44.1998 19.318C42.9171 18.9887 42.4665 19.0667 38.9998 19.0667C38.5211 19.0667 38.1331 18.6787 38.1331 18.2V13C38.1222 12.5895 38.4008 12.2277 38.8005 12.1334H45.0665C47.6058 17.212 47.6665 17.1774 47.6665 17.7407Z" fill="#7F89CB"/>
<path d="M45.0665 17.7407V19.6127C43.3851 18.902 42.0418 19.0667 38.9998 19.0667C38.5211 19.0667 38.1331 18.6787 38.1331 18.2V13C38.1222 12.5895 38.4008 12.2277 38.8005 12.1334C40.0215 12.0651 41.2454 12.0651 42.4665 12.1334C45.0058 17.212 45.0665 17.1774 45.0665 17.7407Z" fill="#414A67"/>
<path d="M28.5822 34.6667H23.3735C22.8949 34.6667 22.5068 35.0548 22.5068 35.5334V39.0001C22.5068 39.4787 22.8949 39.8667 23.3735 39.8667H28.5822C29.0608 39.8667 29.4489 39.4787 29.4489 39.0001V35.5334C29.4489 35.0548 29.0608 34.6667 28.5822 34.6667Z" fill="#7F89CB"/>
<path d="M25.9822 34.6667H23.3735C22.8949 34.6667 22.5068 35.0548 22.5068 35.5334V39.0001C22.5068 39.4787 22.8949 39.8667 23.3735 39.8667H25.9822C26.4608 39.8667 26.8488 39.4787 26.8488 39.0001V35.5334C26.8488 35.0548 26.4608 34.6667 25.9822 34.6667Z" fill="#414A67"/>
<path d="M19.066 38.1334C19.066 41.4839 16.3498 44.2 12.9993 44.2C9.64876 44.2 6.93262 41.4839 6.93262 38.1334C6.93262 34.7829 9.64876 32.0667 12.9993 32.0667C16.3498 32.0667 19.066 34.7829 19.066 38.1334Z" fill="#414A67"/>
<path d="M12.9643 40.7334C14.4002 40.7334 15.5643 39.5693 15.5643 38.1334C15.5643 36.6974 14.4002 35.5334 12.9643 35.5334C11.5283 35.5334 10.3643 36.6974 10.3643 38.1334C10.3643 39.5693 11.5283 40.7334 12.9643 40.7334Z" fill="#414A67"/>
<path d="M46.7994 38.1334C46.7994 41.4839 44.0832 44.2 40.7327 44.2C37.3822 44.2 34.666 41.4839 34.666 38.1334C34.666 34.7829 37.3822 32.0667 40.7327 32.0667C42.3417 32.0667 43.8847 32.7059 45.0225 33.8436C46.1602 34.9813 46.7994 36.5244 46.7994 38.1334Z" fill="#414A67"/>
<path d="M40.7416 40.7334C42.1775 40.7334 43.3416 39.5693 43.3416 38.1334C43.3416 36.6974 42.1775 35.5334 40.7416 35.5334C39.3057 35.5334 38.1416 36.6974 38.1416 38.1334C38.1416 39.5693 39.3057 40.7334 40.7416 40.7334Z" fill="#414A67"/>
<path d="M3.46621 9.53338C3.46621 8.57609 4.24225 7.80005 5.19954 7.80005H2.59954C1.64225 7.80005 0.866211 8.57609 0.866211 9.53338V31.2H3.46621V9.53338Z" fill="#7F89CB"/>
<path d="M5.19915 38.1333H6.93249C6.93249 41.4839 9.64863 44.2 12.9992 44.2C13.4361 44.1986 13.8717 44.1522 14.2992 44.0613C11.5149 43.4505 9.53143 40.9838 9.53249 38.1333H7.79915C6.84186 38.1333 6.06582 37.3573 6.06582 36.4V31.2H3.46582V36.4C3.46582 37.3573 4.24186 38.1333 5.19915 38.1333Z" fill="#414A67"/>
<path d="M0 9.53339H1.73333V16.4667H0V9.53339Z" fill="#414A67"/>
<path d="M12.9999 34.6667C11.0853 34.6667 9.5332 36.2188 9.5332 38.1334C9.5332 40.0479 11.0853 41.6 12.9999 41.6C14.9145 41.6 16.4665 40.0479 16.4665 38.1334C16.4665 36.2188 14.9145 34.6667 12.9999 34.6667ZM12.9999 39.8667C12.0426 39.8667 11.2665 39.0907 11.2665 38.1334C11.2665 37.1761 12.0426 36.4 12.9999 36.4C13.9572 36.4 14.7332 37.1761 14.7332 38.1334C14.7332 39.0907 13.9572 39.8667 12.9999 39.8667Z" fill="#5766CB"/>
<path d="M40.7333 34.6667C38.8187 34.6667 37.2666 36.2188 37.2666 38.1334C37.2666 40.0479 38.8187 41.6 40.7333 41.6C42.6479 41.6 44.1999 40.0479 44.1999 38.1334C44.1999 36.2188 42.6479 34.6667 40.7333 34.6667ZM40.7333 39.8667C39.776 39.8667 38.9999 39.0907 38.9999 38.1334C38.9999 37.1761 39.776 36.4 40.7333 36.4C41.6906 36.4 42.4666 37.1761 42.4666 38.1334C42.4666 39.0907 41.6906 39.8667 40.7333 39.8667Z" fill="#5766CB"/>
<path d="M49.4 22.5334H48.5333V17.732C48.527 17.332 48.4323 16.9384 48.256 16.5794L45.8293 11.7434L44.5813 9.23868C44.1418 8.35821 43.2428 7.80136 42.2587 7.80002H34.6667C34.4715 7.80223 34.2781 7.83739 34.0947 7.90402C33.6007 7.2898 32.8549 6.93279 32.0667 6.93335H2.6C1.16406 6.93335 0 8.09741 0 9.53335C0 10.012 0.38802 10.4 0.866667 10.4C1.34531 10.4 1.73333 10.012 1.73333 9.53335C1.73333 9.0547 2.12135 8.66668 2.6 8.66668H32.0667C32.5453 8.66668 32.9333 9.0547 32.9333 9.53335V19.9334V30.3334H19.422L17.082 27.9847C16.9184 27.8225 16.697 27.732 16.4667 27.7334H9.53333C9.30297 27.732 9.08156 27.8225 8.918 27.9847L6.578 30.3334H1.73333V16.4667C1.73333 15.988 1.34531 15.6 0.866667 15.6C0.38802 15.6 0 15.988 0 16.4667V31.2C0 31.6787 0.38802 32.0667 0.866667 32.0667H2.6V36.4C2.6 37.836 3.76406 39 5.2 39H6.06667C6.28101 40.6772 7.10087 42.2183 8.372 43.3334H0.866667C0.38802 43.3334 0 43.7214 0 44.2C0 44.6787 0.38802 45.0667 0.866667 45.0667H51.1333C51.612 45.0667 52 44.6787 52 44.2C52 43.7214 51.612 43.3334 51.1333 43.3334H45.3093C46.8054 42.019 47.6641 40.1248 47.6667 38.1334C47.6667 37.1137 47.4387 36.1069 46.9993 35.1867L48.256 32.0667H49.4C50.8359 32.0667 52 30.9026 52 29.4667V25.1334C52 23.6974 50.8359 22.5334 49.4 22.5334ZM44.5207 13L46.7047 17.3334C46.7647 17.4578 46.7972 17.5938 46.8 17.732V19.6214C45.5459 18.694 44.0264 18.1956 42.4667 18.2H39V13H44.5207ZM43.0387 10.0187L43.6627 11.2667H39C38.0427 11.2667 37.2667 12.0427 37.2667 13V18.2C37.2667 19.1573 38.0427 19.9334 39 19.9334H42.4667C42.64 19.9334 46.8 19.9767 46.8 23.4V29.978L44.8153 27.9847C44.6518 27.8225 44.4304 27.732 44.2 27.7334H37.2667C37.0363 27.732 36.8149 27.8225 36.6513 27.9847L34.6667 29.978V9.53335L42.2587 9.53335C42.5901 9.53269 42.8928 9.72108 43.0387 10.0187ZM7.8 38.1334C7.8 36.0301 9.06694 34.134 11.01 33.3292C12.9532 32.5243 15.1898 32.9692 16.677 34.4564C18.1641 35.9436 18.609 38.1802 17.8042 40.1233C16.9993 42.0664 15.1032 43.3334 13 43.3334C10.1281 43.3334 7.8 41.0052 7.8 38.1334ZM17.576 43.3334C18.8471 42.2183 19.667 40.6772 19.8813 39H21.6667C21.6667 39.9573 22.4427 40.7334 23.4 40.7334H28.6C29.5573 40.7334 30.3333 39.9573 30.3333 39H33.878C34.0923 40.6772 34.9122 42.2183 36.1833 43.3334H17.576ZM23.4 35.5334H28.6V39H23.4V38.1334V35.5334ZM40.7333 43.3334C38.6301 43.3334 36.734 42.0664 35.9292 40.1233C35.1243 38.1802 35.5692 35.9436 37.0564 34.4564C38.5436 32.9692 40.7802 32.5243 42.7233 33.3292C44.6664 34.134 45.9333 36.0301 45.9333 38.1334C45.9333 41.0052 43.6052 43.3334 40.7333 43.3334ZM40.7333 31.2C37.2384 31.1988 34.2889 33.7991 33.852 37.2667H30.3333V35.5334C30.3333 34.5761 29.5573 33.8 28.6 33.8H23.4C22.4427 33.8 21.6667 34.5761 21.6667 35.5334V37.2667H19.8467C19.4527 33.7591 16.4864 31.1073 12.9567 31.1073C9.42698 31.1073 6.46068 33.7591 6.06667 37.2667H5.2C4.72135 37.2667 4.33333 36.8787 4.33333 36.4V32.0667H6.93333C7.1637 32.068 7.38511 31.9776 7.54867 31.8154L9.88867 29.4667H16.1113L18.4513 31.8154C18.6149 31.9776 18.8363 32.068 19.0667 32.0667H34.6667C34.897 32.068 35.1184 31.9776 35.282 31.8154L37.622 29.4667H43.8447L46.1847 31.8154C46.2563 31.8805 46.3383 31.9333 46.4273 31.9714L45.838 33.4447C44.5256 32.015 42.6741 31.2008 40.7333 31.2ZM50.2667 29.4667C50.2667 29.9453 49.8786 30.3334 49.4 30.3334H48.5333V24.2667H49.4C49.8786 24.2667 50.2667 24.6547 50.2667 25.1334V29.4667Z" fill="#5766CB"/>
<path d="M37.2671 24.2667H39.8671C40.3457 24.2667 40.7337 23.8787 40.7337 23.4001C40.7337 22.9214 40.3457 22.5334 39.8671 22.5334H37.2671C36.7884 22.5334 36.4004 22.9214 36.4004 23.4001C36.4004 23.8787 36.7884 24.2667 37.2671 24.2667Z" fill="#5766CB"/>
<path d="M0.866667 13.8667C0.38802 13.8667 0 13.4787 0 13C0 12.5214 0.38802 12.1334 0.866667 12.1334C1.34531 12.1334 1.73333 12.5214 1.73333 13C1.73333 13.4787 1.34531 13.8667 0.866667 13.8667Z" fill="#5766CB"/>
</g>
<defs>
<clipPath id="clip0">
<rect width="52" height="52" fill="white"/>
</clipPath>
</defs>
</svg>
