<svg width="52" height="52" viewBox="0 0 52 52" fill="none" xmlns="http://www.w3.org/2000/svg">
<g clip-path="url(#clip0)">
<path d="M16.0331 15.6H8.23314C7.99381 15.6 7.7998 15.794 7.7998 16.0333V21.2333C7.7998 21.4726 7.99381 21.6666 8.23314 21.6666H16.0331C16.2725 21.6666 16.4665 21.4726 16.4665 21.2333V16.0333C16.4665 15.794 16.2725 15.6 16.0331 15.6Z" fill="#7F89CB"/>
<path d="M29.8993 12.1333H22.0993C21.86 12.1333 21.666 12.3273 21.666 12.5666V21.2333C21.666 21.4726 21.86 21.6666 22.0993 21.6666H29.8993C30.1387 21.6666 30.3327 21.4726 30.3327 21.2333V12.5666C30.3327 12.3273 30.1387 12.1333 29.8993 12.1333Z" fill="#7F89CB"/>
<path d="M45.8379 8.66662H44.6333C44.394 8.66662 44.1999 8.86063 44.1999 9.09995V21.2333C44.1999 21.4726 44.0059 21.6666 43.7666 21.6666H35.9666C35.7273 21.6666 35.5333 21.4726 35.5333 21.2333V9.09995C35.5333 8.86063 35.3393 8.66662 35.0999 8.66662H33.8953C33.726 8.66472 33.5733 8.56439 33.5043 8.40975C33.4354 8.2551 33.4629 8.07447 33.5746 7.94728C39.4246 1.42995 38.2199 2.74728 39.5459 1.23062C39.6281 1.14026 39.7445 1.08875 39.8666 1.08875C39.9887 1.08875 40.1051 1.14026 40.1873 1.23062L46.1586 7.94728C46.2704 8.07447 46.2978 8.2551 46.2289 8.40975C46.1599 8.56439 46.0072 8.66472 45.8379 8.66662Z" fill="#7F89CB"/>
<path d="M13.4331 15.6H8.23314C7.99381 15.6 7.7998 15.794 7.7998 16.0333V21.2333C7.7998 21.4726 7.99381 21.6666 8.23314 21.6666H13.4331C13.6725 21.6666 13.8665 21.4726 13.8665 21.2333V16.0333C13.8665 15.794 13.6725 15.6 13.4331 15.6Z" fill="#414A67"/>
<path d="M27.2994 12.1333H22.0993C21.86 12.1333 21.666 12.3273 21.666 12.5666V21.2333C21.666 21.4726 21.86 21.6666 22.0993 21.6666H27.2994C27.5387 21.6666 27.7327 21.4726 27.7327 21.2333V12.5666C27.7327 12.3273 27.5387 12.1333 27.2994 12.1333Z" fill="#414A67"/>
<path d="M43.2379 8.66663H42.0333C41.794 8.66663 41.5999 8.86064 41.5999 9.09997V21.2333C41.5999 21.4726 41.4059 21.6666 41.1666 21.6666H35.9666C35.7273 21.6666 35.5333 21.4726 35.5333 21.2333V9.09997C35.5333 8.86064 35.3393 8.66663 35.0999 8.66663H33.8953C33.726 8.66473 33.5733 8.56441 33.5043 8.40976C33.4354 8.25512 33.4629 8.07449 33.5746 7.9473L38.5666 2.3313L43.5586 7.9473C43.6704 8.07449 43.6978 8.25512 43.6289 8.40976C43.5599 8.56441 43.4073 8.66473 43.2379 8.66663Z" fill="#414A67"/>
<path d="M51.1329 26.8666V49.4C51.1329 50.3573 50.3568 51.1333 49.3995 51.1333H2.59954C1.64225 51.1333 0.866211 50.3573 0.866211 49.4V26.8666C0.866211 25.9093 1.64225 25.1333 2.59954 25.1333H49.3995C50.3568 25.1333 51.1329 25.9093 51.1329 26.8666Z" fill="#7F89CB"/>
<path d="M48.5329 26.8666V49.4C48.5329 50.3573 47.7568 51.1333 46.7995 51.1333H2.59954C1.64225 51.1333 0.866211 50.3573 0.866211 49.4V26.8666C0.866211 25.9093 1.64225 25.1333 2.59954 25.1333H46.7995C47.7568 25.1333 48.5329 25.9093 48.5329 26.8666Z" fill="#414A67"/>
<path d="M47.6663 32.9333V43.3333C45.2731 43.3333 43.333 45.2734 43.333 47.6666H8.66634C8.66634 45.2734 6.72624 43.3333 4.33301 43.3333V32.9333C6.72624 32.9333 8.66634 30.9932 8.66634 28.6H43.333C43.333 30.9932 45.2731 32.9333 47.6663 32.9333Z" fill="#414A67"/>
<path d="M35.533 38.1333C35.5364 43.2303 31.53 47.4283 26.4384 47.6628C21.3469 47.8974 16.9715 44.0855 16.5062 39.0098C16.0409 33.9342 19.6504 29.3904 24.6997 28.6953C27.428 28.3198 30.1854 29.1424 32.262 30.9515C34.3385 32.7606 35.5312 35.3793 35.533 38.1333Z" fill="#7F89CB"/>
<path d="M24.6992 47.5713C29.2463 47.5713 32.9325 43.3458 32.9325 38.1333C32.9325 32.9208 29.2463 28.6953 24.6992 28.6953C20.152 28.6953 16.4658 32.9208 16.4658 38.1333C16.4658 43.3458 20.152 47.5713 24.6992 47.5713Z" fill="#414A67"/>
<path d="M8.23314 21.6666H10.8331C10.5938 21.6666 10.3998 21.4726 10.3998 21.2333V16.0333C10.3998 15.794 10.5938 15.6 10.8331 15.6H8.23314C7.99381 15.6 7.7998 15.794 7.7998 16.0333V21.2333C7.7998 21.4726 7.99381 21.6666 8.23314 21.6666Z" fill="#7F89CB"/>
<path d="M2.59954 51.1333H5.19954C4.24225 51.1333 3.46621 50.3573 3.46621 49.4V26.8666C3.46621 25.9093 4.24225 25.1333 5.19954 25.1333H2.59954C1.64225 25.1333 0.866211 25.9093 0.866211 26.8666V49.4C0.866211 50.3573 1.64225 51.1333 2.59954 51.1333Z" fill="#7F89CB"/>
<path d="M0 26.8666H1.73333V33.7999H0V26.8666Z" fill="#5766CB" fill-opacity="0.51"/>
<path d="M0.866667 31.2C0.38802 31.2 0 30.812 0 30.3333C0 29.8547 0.38802 29.4667 0.866667 29.4667C1.34531 29.4667 1.73333 29.8547 1.73333 30.3333C1.73333 30.812 1.34531 31.2 0.866667 31.2Z" fill="#5766CB"/>
<path d="M49.4 24.2666H2.6C1.16406 24.2666 0 25.4307 0 26.8666C0 27.3453 0.38802 27.7333 0.866667 27.7333C1.34531 27.7333 1.73333 27.3453 1.73333 26.8666C1.73333 26.388 2.12135 25.9999 2.6 25.9999H49.4C49.8786 25.9999 50.2667 26.388 50.2667 26.8666V49.4C50.2667 49.8786 49.8786 50.2666 49.4 50.2666H2.6C2.12135 50.2666 1.73333 49.8786 1.73333 49.4V33.7999C1.73333 33.3213 1.34531 32.9333 0.866667 32.9333C0.38802 32.9333 0 33.3213 0 33.7999V49.4C0 50.8359 1.16406 52 2.6 52H49.4C50.8359 52 52 50.8359 52 49.4V26.8666C52 25.4307 50.8359 24.2666 49.4 24.2666Z" fill="#5766CB"/>
<path d="M7.80013 47.6666C7.80013 48.1453 8.18815 48.5333 8.6668 48.5333H43.3335C43.8121 48.5333 44.2001 48.1453 44.2001 47.6666C44.2001 45.752 45.7522 44.1999 47.6668 44.1999C48.1455 44.1999 48.5335 43.8119 48.5335 43.3333V32.9333C48.5335 32.4546 48.1455 32.0666 47.6668 32.0666C45.7522 32.0666 44.2001 30.5145 44.2001 28.5999C44.2001 28.1213 43.8121 27.7333 43.3335 27.7333H8.6668C8.18815 27.7333 7.80013 28.1213 7.80013 28.5999C7.80013 30.5145 6.24805 32.0666 4.33346 32.0666C3.85482 32.0666 3.4668 32.4546 3.4668 32.9333V43.3333C3.4668 43.8119 3.85482 44.1999 4.33346 44.1999C6.24805 44.1999 7.80013 45.752 7.80013 47.6666ZM42.5361 29.4666C42.9041 31.6511 44.6156 33.3626 46.8001 33.7306V42.5359C44.6156 42.9039 42.9041 44.6154 42.5361 46.7999H31.7375C34.6423 44.8731 36.3887 41.6191 36.3887 38.1333C36.3887 34.6475 34.6423 31.3935 31.7375 29.4666H42.5361ZM26.0001 46.7999C21.2137 46.7999 17.3335 42.9197 17.3335 38.1333C17.3335 33.3468 21.2137 29.4666 26.0001 29.4666C30.7866 29.4666 34.6668 33.3468 34.6668 38.1333C34.6668 42.9197 30.7866 46.7999 26.0001 46.7999ZM5.20013 33.7306C7.38463 33.3626 9.09616 31.6511 9.46413 29.4666H20.2628C17.358 31.3935 15.6116 34.6475 15.6116 38.1333C15.6116 41.6191 17.358 44.8731 20.2628 46.7999H9.46413C9.09616 44.6154 7.38463 42.9039 5.20013 42.5359V33.7306Z" fill="#5766CB"/>
<path d="M25.9999 33.7999C26.9572 33.7999 27.7332 34.576 27.7332 35.5333C27.7332 36.0119 28.1212 36.3999 28.5999 36.3999C29.0785 36.3999 29.4665 36.0119 29.4665 35.5333C29.4614 33.9566 28.3931 32.5821 26.8665 32.1879V31.1999C26.8665 30.7213 26.4785 30.3333 25.9999 30.3333C25.5212 30.3333 25.1332 30.7213 25.1332 31.1999V32.1879C23.464 32.6411 22.3842 34.2552 22.6025 35.971C22.8208 37.6868 24.2704 38.9792 25.9999 38.9999C26.9572 38.9999 27.7332 39.776 27.7332 40.7333C27.7332 41.6905 26.9572 42.4666 25.9999 42.4666C25.0426 42.4666 24.2665 41.6905 24.2665 40.7333C24.2665 40.2546 23.8785 39.8666 23.3999 39.8666C22.9212 39.8666 22.5332 40.2546 22.5332 40.7333C22.5383 42.3099 23.6067 43.6844 25.1332 44.0786V45.0666C25.1332 45.5452 25.5212 45.9333 25.9999 45.9333C26.4785 45.9333 26.8665 45.5452 26.8665 45.0666V44.0786C28.5358 43.6255 29.6156 42.0113 29.3973 40.2955C29.179 38.5797 27.7294 37.2873 25.9999 37.2666C25.0426 37.2666 24.2665 36.4905 24.2665 35.5333C24.2665 34.576 25.0426 33.7999 25.9999 33.7999Z" fill="#5766CB"/>
<path d="M8.23359 22.5333H16.0336C16.7516 22.5333 17.3336 21.9512 17.3336 21.2333V16.0333C17.3336 15.3153 16.7516 14.7333 16.0336 14.7333H8.23359C7.51562 14.7333 6.93359 15.3153 6.93359 16.0333V21.2333C6.93359 21.9512 7.51562 22.5333 8.23359 22.5333ZM8.66693 16.4666H15.6003V20.7999H8.66693V16.4666Z" fill="#5766CB"/>
<path d="M22.0998 22.5333H29.8998C30.6178 22.5333 31.1998 21.9512 31.1998 21.2333V12.5666C31.1998 11.8486 30.6178 11.2666 29.8998 11.2666H22.0998C21.3818 11.2666 20.7998 11.8486 20.7998 12.5666V21.2333C20.7998 21.9512 21.3818 22.5333 22.0998 22.5333ZM22.5331 12.9999H29.4665V20.7999H22.5331V12.9999Z" fill="#5766CB"/>
<path d="M33.8951 9.53327H34.6664V21.2333C34.6664 21.9512 35.2484 22.5333 35.9664 22.5333H43.7664C44.4844 22.5333 45.0664 21.9512 45.0664 21.2333V9.53327H45.8377C46.3456 9.5232 46.8017 9.22017 47.0079 8.75591C47.214 8.29166 47.1329 7.75006 46.7997 7.3666L40.8371 0.658601C40.5836 0.393713 40.233 0.243896 39.8664 0.243896C39.4998 0.243896 39.1491 0.393713 38.8957 0.658601L32.9331 7.3666C32.5999 7.75006 32.5188 8.29166 32.7249 8.75591C32.931 9.22017 33.3872 9.5232 33.8951 9.53327ZM39.8664 2.1666L44.8671 7.79993H44.6331C43.9151 7.79993 43.3331 8.38196 43.3331 9.09993V20.7999H36.3997V9.09993C36.3997 8.38196 35.8177 7.79993 35.0997 7.79993H34.8657L39.8664 2.1666Z" fill="#5766CB"/>
</g>
<defs>
<clipPath id="clip0">
<rect width="52" height="52" fill="white"/>
</clipPath>
</defs>
</svg>
