<svg width="52" height="52" viewBox="0 0 52 52" fill="none" xmlns="http://www.w3.org/2000/svg">
<g clip-path="url(#clip0)">
<path d="M20.3665 0.866699V51.1334H5.63317C3.71858 51.1334 2.1665 49.5813 2.1665 47.6667V4.33337C2.1665 2.41878 3.71858 0.866699 5.63317 0.866699H20.3665Z" fill="#48352B"/>
<path d="M33.3665 4.33337V47.6667C33.3665 49.5813 31.8144 51.1334 29.8998 51.1334H27.2998V0.866699H29.8998C31.8144 0.866699 33.3665 2.41878 33.3665 4.33337Z" fill="#28211C"/>
<path d="M30.7665 4.33337V47.6667C30.7665 49.5813 29.2144 51.1334 27.2998 51.1334C27.3865 51.1334 27.2998 52.468 27.2998 0.866699C29.2144 0.866699 30.7665 2.41878 30.7665 4.33337Z" fill="#6E4F40"/>
<path d="M10.8333 5.20007H7.36667C6.88802 5.20007 6.5 5.58809 6.5 6.06674V11.2667C6.5 11.7454 6.88802 12.1334 7.36667 12.1334H10.8333C11.312 12.1334 11.7 11.7454 11.7 11.2667V6.06674C11.7 5.58809 11.312 5.20007 10.8333 5.20007Z" fill="#28211C"/>
<path d="M8.23333 5.20007H7.36667C6.88802 5.20007 6.5 5.58809 6.5 6.06674V11.2667C6.5 11.7454 6.88802 12.1334 7.36667 12.1334H8.23333C8.71198 12.1334 9.1 11.7454 9.1 11.2667V6.06674C9.1 5.58809 8.71198 5.20007 8.23333 5.20007Z" fill="#6E4F40"/>
<path d="M11.6998 39.8667C11.699 41.1282 10.7927 42.2072 9.55024 42.4257C8.30776 42.6443 7.08768 41.9393 6.65646 40.7538C6.22523 39.5682 6.70731 38.2441 7.79985 37.6133C8.60455 37.1488 9.59602 37.1489 10.4006 37.6138C11.2051 38.0786 11.7004 38.9375 11.6998 39.8667Z" fill="#28211C"/>
<path d="M7.93836 42.0333C7.78236 42.1287 7.82569 42.1373 7.66102 42.0333C6.91029 41.5357 6.4706 40.6849 6.49884 39.7847C6.52708 38.8845 7.01924 38.063 7.79969 37.6133C8.58014 38.063 9.0723 38.8845 9.10054 39.7847C9.12878 40.6849 8.68909 41.5357 7.93836 42.0333Z" fill="#6E4F40"/>
<path d="M11.6998 44.2C11.6993 45.4411 10.8217 46.5089 9.6041 46.7496C8.38652 46.9904 7.16856 46.337 6.69579 45.1894C6.22302 44.0418 6.62729 42.7201 7.66111 42.0333C8.53282 42.6124 9.66674 42.6124 10.5384 42.0333C11.2641 42.5154 11.7001 43.3288 11.6998 44.2Z" fill="#28211C"/>
<path d="M7.79974 46.4533C7.09592 46.0469 6.62267 45.3347 6.52061 44.5283C6.41854 43.722 6.6994 42.9143 7.27974 42.3453C7.51008 42.2658 7.73097 42.1612 7.93841 42.0333C8.68914 42.531 9.12884 43.3817 9.10059 44.282C9.07235 45.1822 8.58019 46.0037 7.79974 46.4533Z" fill="#6E4F40"/>
<path d="M20.3667 0.866699H27.3V51.1334H20.3667V0.866699Z" fill="#E77541" fill-opacity="0.42"/>
<path d="M8.23317 0.866699H5.63317C3.71858 0.866699 2.1665 2.41878 2.1665 4.33337V47.6667C2.1665 49.5813 3.71858 51.1334 5.63317 51.1334H8.23317C6.31858 51.1334 4.7665 49.5813 4.7665 47.6667V4.33337C4.7665 2.41878 6.31858 0.866699 8.23317 0.866699Z" fill="#FFB18F" fill-opacity="0.21"/>
<path d="M1.2998 4.33337H3.03314V11.2667H1.2998V4.33337Z" fill="#FFB18F" fill-opacity="0.21"/>
<path d="M2.16647 8.66662C1.68782 8.66662 1.2998 8.2786 1.2998 7.79996C1.2998 7.32131 1.68782 6.93329 2.16647 6.93329C2.64512 6.93329 3.03314 7.32131 3.03314 7.79996C3.03314 8.2786 2.64512 8.66662 2.16647 8.66662Z" fill="#E25F23"/>
<path d="M5.63314 52H29.8998C32.293 52 34.2331 50.0599 34.2331 47.6667V4.33333C34.2331 1.9401 32.293 0 29.8998 0H5.63314C3.2399 0 1.2998 1.9401 1.2998 4.33333C1.2998 4.64296 1.46499 4.92907 1.73314 5.08389C2.00129 5.2387 2.33166 5.2387 2.5998 5.08389C2.86795 4.92907 3.03314 4.64296 3.03314 4.33333C3.03314 2.89739 4.1972 1.73333 5.63314 1.73333H19.4998V50.2667H5.63314C4.1972 50.2667 3.03314 49.1026 3.03314 47.6667V11.2667C3.03314 10.788 2.64512 10.4 2.16647 10.4C1.68782 10.4 1.2998 10.788 1.2998 11.2667V47.6667C1.2998 50.0599 3.2399 52 5.63314 52ZM32.4998 4.33333V47.6667C32.4998 49.1026 31.3357 50.2667 29.8998 50.2667H28.1665V1.73333H29.8998C31.3357 1.73333 32.4998 2.89739 32.4998 4.33333ZM21.2331 1.73333H26.4331V50.2667H21.2331V1.73333Z" fill="#E25F23"/>
<path d="M10.8333 13C11.7906 13 12.5666 12.224 12.5666 11.2667V6.06671C12.5666 5.10941 11.7906 4.33337 10.8333 4.33337H7.36663C6.40934 4.33337 5.6333 5.10941 5.6333 6.06671V11.2667C5.6333 12.224 6.40934 13 7.36663 13H10.8333ZM7.36663 6.06671H10.8333V11.2667H7.36663V6.06671Z" fill="#E25F23"/>
<path d="M9.10001 47.6667C10.4342 47.6652 11.6491 46.8982 12.2242 45.6944C12.7993 44.4906 12.6325 43.0635 11.7953 42.0247C12.9401 40.6095 12.7953 38.5499 11.4638 37.3088C10.1323 36.0676 8.0677 36.0676 6.73623 37.3088C5.40475 38.5499 5.25996 40.6095 6.40468 42.0247C5.56749 43.0635 5.40072 44.4906 5.97583 45.6944C6.55094 46.8982 7.76585 47.6652 9.10001 47.6667ZM9.10001 45.9334C8.14272 45.9334 7.36668 45.1573 7.36668 44.2001C7.36906 43.7858 7.51971 43.3861 7.79134 43.0734C8.62519 43.4107 9.5575 43.4107 10.3913 43.0734C10.6693 43.3836 10.8262 43.7836 10.8333 44.2001C10.8333 45.1573 10.0573 45.9334 9.10001 45.9334ZM9.10001 38.1334C10.0573 38.1334 10.8333 38.9094 10.8333 39.8667C10.8333 40.824 10.0573 41.6001 9.10001 41.6001C8.14272 41.6001 7.36668 40.824 7.36668 39.8667C7.36668 38.9094 8.14272 38.1334 9.10001 38.1334Z" fill="#E25F23"/>
<path d="M44.7891 36.0534C44.625 36.2161 44.5327 36.4377 44.5327 36.6687C44.5327 36.8998 44.625 37.1213 44.7891 37.2841C44.9526 37.4463 45.174 37.5367 45.4044 37.5354C45.6373 37.5322 45.8591 37.4353 46.0197 37.2667C52.1903 31.077 52.1903 21.0618 46.0197 14.8721C45.6799 14.5322 45.1289 14.5322 44.7891 14.8721C44.4492 15.2119 44.4492 15.7629 44.7891 16.1027C47.4363 18.7475 48.9237 22.3361 48.9237 26.0781C48.9237 29.8201 47.4363 33.4086 44.7891 36.0534Z" fill="#E25F23"/>
<path d="M41.773 17.914C41.6089 18.0767 41.5166 18.2983 41.5166 18.5293C41.5166 18.7604 41.6089 18.9819 41.773 19.1447C45.5943 22.9771 45.5943 29.179 41.773 33.0113C41.4331 33.3488 41.4312 33.8978 41.7686 34.2377C42.1061 34.5775 42.6551 34.5795 42.995 34.242C47.5019 29.7256 47.5019 22.4131 42.995 17.8967C42.6522 17.5654 42.1062 17.5731 41.773 17.914Z" fill="#E25F23"/>
<path d="M38.7485 31.2001C39.0866 31.5361 39.6325 31.5361 39.9705 31.2001C41.336 29.8348 42.1031 27.983 42.1031 26.0521C42.1031 24.1212 41.336 22.2693 39.9705 20.9041C39.6325 20.568 39.0866 20.568 38.7485 20.9041C38.5845 21.0668 38.4922 21.2883 38.4922 21.5194C38.4922 21.7505 38.5845 21.972 38.7485 22.1347C40.9046 24.3047 40.9046 27.8081 38.7485 29.9781C38.4125 30.3161 38.4125 30.862 38.7485 31.2001Z" fill="#E25F23"/>
</g>
<defs>
<clipPath id="clip0">
<rect width="52" height="52" fill="white"/>
</clipPath>
</defs>
</svg>
