<svg width="52" height="52" viewBox="0 0 52 52" fill="none" xmlns="http://www.w3.org/2000/svg">
<g clip-path="url(#clip0)">
<path d="M4.3335 13.8668H47.6666V47.5451H4.3335V13.8668Z" fill="#7F89CB"/>
<path d="M4.3335 13.8668H45.0668V47.5451H4.3335V13.8668Z" fill="#414A67"/>
<path d="M50.2668 11.8943V15.4526C50.2969 17.2751 48.9481 18.8268 47.139 19.0509C46.1654 19.1465 45.1962 18.8264 44.4714 18.169C43.7465 17.5116 43.3332 16.5785 43.3336 15.6002C43.3336 17.5148 41.7812 19.0668 39.8669 19.0668C37.9523 19.0668 36.3999 17.5148 36.3999 15.6002C36.3999 17.5148 34.8479 19.0668 32.9333 19.0668C31.0187 19.0668 29.4667 17.5148 29.4667 15.6002C29.4667 17.5148 27.9147 19.0668 26.0001 19.0668C24.0855 19.0668 22.5335 17.5148 22.5335 15.6002C22.5335 17.5148 20.9815 19.0668 19.0669 19.0668C17.1522 19.0668 15.6002 17.5148 15.6002 15.6002C15.6002 17.5148 14.0478 19.0668 12.1332 19.0668C10.219 19.0668 8.66662 17.5148 8.66662 15.6002C8.66702 16.5785 8.25363 17.5116 7.5288 18.1686C6.80358 18.826 5.83477 19.1461 4.8612 19.0505C3.05252 18.8268 1.70364 17.2747 1.73339 15.4526V11.8943C1.73339 11.4889 1.87582 11.0965 2.13528 10.7851L6.06686 6.06677H45.9333L49.8649 10.7847C50.1248 11.0961 50.2668 11.4889 50.2668 11.8943Z" fill="#414A67"/>
<path d="M7.8002 0.866821H44.2C45.1573 0.866821 45.9333 1.64282 45.9333 2.60013V6.06674H6.06689V2.60013C6.06689 1.64282 6.8429 0.866821 7.8002 0.866821Z" fill="#7F89CB"/>
<path d="M7.8002 0.866821H40.7334C41.6907 0.866821 42.4667 1.64282 42.4667 2.60013V6.06674H6.06689V2.60013C6.06689 1.64282 6.8429 0.866821 7.8002 0.866821Z" fill="#414A67"/>
<path d="M26.0001 23.3998V34.6665C25.999 35.1446 25.6117 35.5318 25.1333 35.5334H9.53354C9.17648 35.5314 8.85672 35.3116 8.72739 34.9788C8.68494 34.8804 8.66431 34.7737 8.66669 34.6665V23.3998C8.66828 22.9218 9.05548 22.5346 9.53354 22.5334H25.1333C25.4907 22.5354 25.8101 22.7552 25.9394 23.088C25.9819 23.1864 26.0025 23.2927 26.0001 23.3998Z" fill="#7F89CB"/>
<path d="M23.4 23.3998V34.6665C23.3988 35.1446 23.0116 35.5318 22.5335 35.5334H9.53354C9.17648 35.5314 8.85672 35.3116 8.72739 34.9788C8.68494 34.8804 8.66431 34.7737 8.66669 34.6665V23.3998C8.66828 22.9218 9.05548 22.5346 9.53354 22.5334H22.5335C22.8906 22.5354 23.2104 22.7552 23.3393 23.088C23.3821 23.1864 23.4028 23.2927 23.4 23.3998Z" fill="#414A67"/>
<path d="M50.1451 11.2667H1.85449C1.91757 11.0898 2.0116 10.9255 2.13181 10.7815L6.06656 6.06677H45.933L49.8678 10.7815C49.988 10.9255 50.082 11.0898 50.1451 11.2667Z" fill="#7F89CB"/>
<path d="M45.9332 11.2667H2.6001C2.65564 11.0921 2.73975 10.9283 2.84885 10.7815L6.37973 6.06677H42.1535L45.6844 10.7815C45.7935 10.9283 45.8776 11.0921 45.9332 11.2667Z" fill="#414A67"/>
<path d="M43.3333 23.3998V46.8001H31.1997V23.3998C31.2013 22.9218 31.5885 22.5346 32.0666 22.5334H42.4664C42.9445 22.5346 43.3317 22.9218 43.3333 23.3998Z" fill="#7F89CB"/>
<path d="M40.7331 23.3998V46.8001H31.1997V23.3998C31.2013 22.9218 31.5885 22.5346 32.0666 22.5334H39.8666C40.3447 22.5346 40.7319 22.9218 40.7331 23.3998Z" fill="#414A67"/>
<path d="M35.5334 26H39C39.4784 26 39.8668 26.388 39.8668 26.8669V30.3335C39.8668 30.8119 39.4784 31.1999 39 31.1999H35.5334C35.0545 31.1999 34.6665 30.8119 34.6665 30.3335V26.8669C34.6665 26.388 35.0545 26 35.5334 26Z" fill="#7F89CB"/>
<path d="M35.5334 26H36.3998C36.8787 26 37.2667 26.388 37.2667 26.8669V30.3335C37.2667 30.8119 36.8787 31.1999 36.3998 31.1999H35.5334C35.0545 31.1999 34.6665 30.8119 34.6665 30.3335V26.8669C34.6665 26.388 35.0545 26 35.5334 26Z" fill="#414A67"/>
<path d="M2.60001 45.9332H49.3997C50.357 45.9332 51.133 46.7092 51.133 47.6665V50.2667C51.133 50.7451 50.745 51.1331 50.2665 51.1331H1.73315C1.2547 51.1331 0.866699 50.7451 0.866699 50.2667V47.6665C0.866699 46.7092 1.6427 45.9332 2.60001 45.9332Z" fill="#7F89CB"/>
<path d="M2.60001 45.9332H45.9331C46.8904 45.9332 47.6664 46.7092 47.6664 47.6665V50.2667C47.6664 50.7451 47.2784 51.1331 46.7999 51.1331H1.73315C1.2547 51.1331 0.866699 50.7451 0.866699 50.2667V47.6665C0.866699 46.7092 1.6427 45.9332 2.60001 45.9332Z" fill="#414A67"/>
<path d="M1.73315 51.1331H4.33331C3.85446 51.1331 3.46646 50.7451 3.46646 50.2667V47.6665C3.46646 46.7092 4.24246 45.9332 5.19977 45.9332H6.93307V18.9457C5.38107 18.4966 4.31784 17.0684 4.33331 15.4525V11.8943C4.3353 11.6384 4.39401 11.3865 4.5051 11.1564C4.56342 11.0219 4.63959 10.8957 4.73203 10.7815L8.66638 6.06674V2.60013C8.66638 1.64282 9.44238 0.866821 10.3997 0.866821H7.79993C6.84262 0.866821 6.06662 1.64282 6.06662 2.60013V6.06674L2.13187 10.7815C2.03983 10.8957 1.96326 11.0219 1.90494 11.1564C1.79385 11.3865 1.73514 11.6384 1.73315 11.8943V15.4525C1.71768 17.0684 2.78091 18.497 4.33331 18.9461V45.9332H2.60001C1.6427 45.9332 0.866699 46.7092 0.866699 47.6665V50.2667C0.866699 50.7451 1.2547 51.1331 1.73315 51.1331Z" fill="#7F89CB"/>
<path d="M50.2667 52H1.73331C0.776398 51.9992 0.000793457 51.2236 0 50.2667V47.6665C0.00158691 46.2316 1.1648 45.0684 2.60016 45.0668H49.3998C50.8352 45.0684 51.9984 46.2316 52 47.6665V50.2667C51.9992 51.2236 51.2236 51.9992 50.2667 52ZM2.60016 46.8001C2.1217 46.8005 1.7341 47.1881 1.73331 47.6665V50.2667H50.2679L50.2667 47.6665C50.2659 47.1881 49.8783 46.8005 49.3998 46.8001H2.60016Z" fill="#5766CB"/>
<path d="M5.2001 18.9454V45.9332H3.4668V18.9454H5.2001Z" fill="#414A67"/>
<path d="M4.33365 23.2788C4.81171 23.2773 5.19891 22.89 5.2001 22.412V18.9454H3.4668V22.412C3.46838 22.89 3.85559 23.2773 4.33365 23.2788Z" fill="#5766CB"/>
<path d="M3.4668 45.9332H5.2001V29.3452C5.2001 28.8668 4.8121 28.4788 4.33365 28.4788C3.8548 28.4788 3.4668 28.8668 3.4668 29.3452V45.9332Z" fill="#5766CB"/>
<path d="M5.20008 25.8786C5.19691 25.6493 5.10685 25.4295 4.94895 25.2633L4.81883 25.1593C4.77042 25.1264 4.71806 25.1002 4.66291 25.0812C4.61372 25.0562 4.56095 25.0387 4.507 25.0292C4.44947 25.0197 4.39155 25.0137 4.33363 25.0121C4.10392 25.0153 3.88413 25.105 3.7183 25.2633C3.50803 25.466 3.4156 25.762 3.47352 26.048C3.53144 26.3344 3.73179 26.5713 4.00434 26.676C4.10828 26.7205 4.22016 26.7439 4.33363 26.7454C4.56413 26.7478 4.7859 26.657 4.94895 26.4939C5.11201 26.3309 5.20246 26.1091 5.20008 25.8786Z" fill="#5766CB"/>
<path d="M47.6667 46.8H4.33365C3.8548 46.8 3.4668 46.412 3.4668 45.9332C3.4668 45.4547 3.8548 45.0667 4.33365 45.0667H46.8003V18.9453C46.8003 18.4665 47.1883 18.0785 47.6667 18.0785C48.1456 18.0785 48.5336 18.4665 48.5336 18.9453V45.9332C48.5336 46.412 48.1456 46.8 47.6667 46.8Z" fill="#5766CB"/>
<path d="M39.867 19.9333C38.5022 19.9333 37.2176 19.2902 36.3999 18.1976C35.5827 19.2902 34.2981 19.9333 32.9333 19.9333C31.569 19.9333 30.2844 19.2902 29.4667 18.1976C28.6495 19.2902 27.3645 19.9333 26.0001 19.9333C24.6358 19.9333 23.3507 19.2902 22.5335 18.1976C21.7158 19.2902 20.4312 19.9333 19.0669 19.9333C17.7021 19.9333 16.4175 19.2902 15.6003 18.1976C14.783 19.2898 13.4984 19.9333 12.134 19.9333C10.7697 19.9337 9.48508 19.2906 8.66782 18.1984C7.7613 19.4112 6.28626 20.0618 4.77949 19.9134C2.52884 19.6413 0.843144 17.7195 0.866948 15.4526V11.8943C0.867345 11.2862 1.08039 10.6978 1.46879 10.2301L5.40116 5.51218C5.5658 5.31421 5.80939 5.19995 6.06687 5.19995H45.9333C46.1908 5.19995 46.4344 5.31421 46.599 5.51218L50.531 10.2301C50.9198 10.6974 51.1333 11.2862 51.1333 11.8943V15.4526C51.1571 17.7199 49.4714 19.6417 47.2207 19.9138C45.7139 20.0622 44.2389 19.4116 43.3324 18.1984C42.5151 19.2906 41.2309 19.9333 39.867 19.9333ZM6.47272 6.93326L2.8006 11.3393C2.67127 11.4952 2.60026 11.6916 2.60026 11.8943V15.4526C2.5705 16.8281 3.57938 18.0059 4.94294 18.188C5.6757 18.265 6.40647 18.0234 6.94919 17.5247C7.49073 17.0312 7.79938 16.3325 7.80018 15.6002C7.80018 15.1213 8.18818 14.7333 8.66663 14.7333C9.14548 14.7333 9.53348 15.1213 9.53348 15.6002C9.53348 17.0359 10.6975 18.2 12.1332 18.2C13.5694 18.2 14.7334 17.0359 14.7334 15.6002C14.7334 15.1213 15.1214 14.7333 15.6003 14.7333C16.0787 14.7333 16.4667 15.1213 16.4667 15.6002C16.4667 17.0359 17.6307 18.2 19.0669 18.2C20.5026 18.2 21.6666 17.0359 21.6666 15.6002C21.6666 15.1213 22.0546 14.7333 22.5335 14.7333C23.0119 14.7333 23.3999 15.1213 23.3999 15.6002C23.3999 17.0359 24.5643 18.2 26.0001 18.2C27.4359 18.2 28.6003 17.0359 28.6003 15.6002C28.6003 15.1213 28.9883 14.7333 29.4667 14.7333C29.9456 14.7333 30.3336 15.1213 30.3336 15.6002C30.3336 17.0359 31.4976 18.2 32.9333 18.2C34.3695 18.2 35.5335 17.0359 35.5335 15.6002C35.5335 15.1213 35.9215 14.7333 36.3999 14.7333C36.8788 14.7333 37.2668 15.1213 37.2668 15.6002C37.2668 17.0359 38.4308 18.2 39.867 18.2C41.3027 18.2 42.4667 17.0359 42.4667 15.6002C42.4667 15.1213 42.8547 14.7333 43.3336 14.7333C43.812 14.7333 44.2 15.1213 44.2 15.6002C44.2008 16.3325 44.5099 17.0308 45.051 17.5239C45.5941 18.0218 46.3245 18.2634 47.0573 18.1877C48.4208 18.0056 49.4297 16.8277 49.3999 15.4526V11.8943C49.3999 11.6916 49.3289 11.4952 49.1992 11.3397L45.5275 6.93326H6.47272Z" fill="#5766CB"/>
<path d="M45.9335 6.93323H6.06705C5.5882 6.93323 5.2002 6.54523 5.2002 6.06677V2.60016C5.20178 1.1648 6.36499 0.00158691 7.80035 0H44.2002C45.6356 0.00158691 46.7988 1.1648 46.8004 2.60016V6.06677C46.8004 6.54523 46.4124 6.93323 45.9335 6.93323ZM6.9335 5.19992H45.067V2.60016C45.0663 2.1217 44.6786 1.7341 44.2002 1.73331H7.80035C7.3219 1.7341 6.9343 2.1217 6.9335 2.60016V5.19992Z" fill="#5766CB"/>
<path d="M39.8668 12.1331H1.85464C1.37579 12.1331 0.987793 11.7451 0.987793 11.2667C0.987793 10.7878 1.37579 10.3998 1.85464 10.3998H39.8668C40.3452 10.3998 40.7332 10.7878 40.7332 11.2667C40.7332 11.7451 40.3452 12.1331 39.8668 12.1331Z" fill="#5766CB"/>
<path d="M50.1455 12.1331H43.3336C42.8548 12.1331 42.4668 11.7451 42.4668 11.2667C42.4668 10.7878 42.8548 10.3998 43.3336 10.3998H50.1455C50.6243 10.3998 51.0123 10.7878 51.0123 11.2667C51.0123 11.7451 50.6243 12.1331 50.1455 12.1331Z" fill="#5766CB"/>
<path d="M43.3336 16.4666C42.8548 16.4666 42.4668 16.0786 42.4668 15.6001V14.7333C42.4668 14.2548 42.8548 13.8668 43.3336 13.8668C43.8121 13.8668 44.2001 14.2548 44.2001 14.7333V15.6001C44.2001 16.0786 43.8121 16.4666 43.3336 16.4666Z" fill="#5766CB"/>
<path d="M36.4001 16.4666C35.9217 16.4666 35.5337 16.0786 35.5337 15.6001V14.7333C35.5337 14.2548 35.9217 13.8668 36.4001 13.8668C36.879 13.8668 37.267 14.2548 37.267 14.7333V15.6001C37.267 16.0786 36.879 16.4666 36.4001 16.4666Z" fill="#5766CB"/>
<path d="M29.4666 16.4666C28.9881 16.4666 28.6001 16.0786 28.6001 15.6001V14.7333C28.6001 14.2548 28.9881 13.8668 29.4666 13.8668C29.9454 13.8668 30.3334 14.2548 30.3334 14.7333V15.6001C30.3334 16.0786 29.9454 16.4666 29.4666 16.4666Z" fill="#5766CB"/>
<path d="M22.5334 16.4666C22.0545 16.4666 21.6665 16.0786 21.6665 15.6001V14.7333C21.6665 14.2548 22.0545 13.8668 22.5334 13.8668C23.0118 13.8668 23.3998 14.2548 23.3998 14.7333V15.6001C23.3998 16.0786 23.0118 16.4666 22.5334 16.4666Z" fill="#5766CB"/>
<path d="M15.6002 16.4666C15.1214 16.4666 14.7334 16.0786 14.7334 15.6001V14.7333C14.7334 14.2548 15.1214 13.8668 15.6002 13.8668C16.0787 13.8668 16.4667 14.2548 16.4667 14.7333V15.6001C16.4667 16.0786 16.0787 16.4666 15.6002 16.4666Z" fill="#5766CB"/>
<path d="M8.66675 16.4666C8.18829 16.4666 7.80029 16.0786 7.80029 15.6001V14.7333C7.80029 14.2548 8.18829 13.8668 8.66675 13.8668C9.1456 13.8668 9.5336 14.2548 9.5336 14.7333V15.6001C9.5336 16.0786 9.1456 16.4666 8.66675 16.4666Z" fill="#5766CB"/>
<path d="M25.1334 36.3998H9.5336C8.57669 36.399 7.80109 35.6234 7.80029 34.6665V23.3998C7.80109 22.4429 8.57669 21.6677 9.5336 21.6665H25.1334C26.0903 21.6677 26.8659 22.4429 26.8671 23.3998V34.6665C26.8659 35.6234 26.0903 36.399 25.1334 36.3998ZM9.5336 23.3998V34.6665H25.1349L25.1334 23.3998H9.5336Z" fill="#5766CB"/>
<path d="M43.3335 46.8H31.2C30.7215 46.8 30.3335 46.412 30.3335 45.9332V23.3998C30.3343 22.4429 31.1099 21.6677 32.0668 21.6665H42.4666C43.4236 21.6677 44.1992 22.4429 44.2 23.3998V45.9332C44.2 46.412 43.812 46.8 43.3335 46.8ZM32.0668 45.0667H42.4666V23.3998H32.0668V45.0667Z" fill="#5766CB"/>
<path d="M39.0002 32.0668H35.5336C34.5767 32.0656 33.8011 31.2904 33.8003 30.3335V26.8669C33.8011 25.91 34.5767 25.1344 35.5336 25.1332H39.0002C39.9571 25.1344 40.7327 25.91 40.7335 26.8669V30.3335C40.7327 31.2904 39.9571 32.0656 39.0002 32.0668ZM35.5336 26.8669V30.3347L39.0002 30.3335V26.8669H35.5336Z" fill="#5766CB"/>
<path d="M35.5336 35.5334H34.6667C34.1883 35.5334 33.8003 35.1454 33.8003 34.6665C33.8003 34.188 34.1883 33.8 34.6667 33.8H35.5336C36.0121 33.8 36.4001 34.188 36.4001 34.6665C36.4001 35.1454 36.0121 35.5334 35.5336 35.5334Z" fill="#5766CB"/>
<path d="M8.66666 34.6665C8.3104 34.6669 7.99024 34.4487 7.85972 34.1167C7.72959 33.785 7.81568 33.4073 8.07673 33.1649L11.5433 29.9459C11.8944 29.6198 12.4427 29.64 12.7688 29.9911C13.0945 30.3418 13.0743 30.8905 12.7232 31.2162L9.2566 34.4352C9.09632 34.584 8.88566 34.6669 8.66666 34.6665Z" fill="#5766CB"/>
<path d="M14.7332 29.0334C14.377 29.0334 14.0564 28.8152 13.9263 28.4835C13.7958 28.1519 13.8823 27.7742 14.1433 27.5314L20.2101 21.8983C20.5608 21.5726 21.1095 21.5928 21.4352 21.9435C21.7609 22.2942 21.7407 22.8429 21.39 23.1686L15.3232 28.8017C15.1629 28.9509 14.9522 29.0334 14.7332 29.0334Z" fill="#5766CB"/>
<path d="M13.8668 36.3998C13.5101 36.4002 13.1899 36.182 13.0594 35.8504C12.9293 35.5183 13.0154 35.1406 13.2768 34.8982L21.0773 27.6552C21.4296 27.3421 21.9676 27.3679 22.2881 27.7135C22.6091 28.0594 22.5944 28.5978 22.256 28.9259L14.4563 36.1682C14.296 36.3173 14.0854 36.4002 13.8668 36.3998Z" fill="#5766CB"/>
<path d="M24.1337 26.8668C23.7771 26.8668 23.4569 26.6486 23.3268 26.317C23.1962 25.9849 23.2823 25.6072 23.5438 25.3648L25.4104 23.6315C25.7611 23.3058 26.3098 23.3261 26.6355 23.6768C26.9612 24.0275 26.941 24.5761 26.5902 24.9019L24.7236 26.6352C24.5634 26.7843 24.3527 26.8668 24.1337 26.8668Z" fill="#5766CB"/>
</g>
<defs>
<clipPath id="clip0">
<rect width="52" height="52" fill="white"/>
</clipPath>
</defs>
</svg>
