<svg width="52" height="52" viewBox="0 0 52 52" fill="none" xmlns="http://www.w3.org/2000/svg">
<g clip-path="url(#clip0)">
<path d="M6.93336 26.8667V40.7334C3.57936 40.7334 0.866699 37.6307 0.866699 33.8C0.866699 29.9694 3.57936 26.8667 6.93336 26.8667Z" fill="#414A67"/>
<path d="M15.6 26.8666V40.7333C15.5971 41.6894 14.8227 42.4638 13.8666 42.4666H12.1333V25.1333H13.8666C14.8227 25.1362 15.5971 25.9105 15.6 26.8666Z" fill="#7F89CB"/>
<path d="M12.1331 25.1333V42.4666H8.66644C7.71033 42.4638 6.93596 41.6894 6.93311 40.7333V26.8666C6.93596 25.9105 7.71033 25.1362 8.66644 25.1333H12.1331Z" fill="#414A67"/>
<path d="M51.1336 33.8C51.1336 37.6307 48.4209 40.7334 45.0669 40.7334V26.8667C48.4209 26.8667 51.1336 29.9694 51.1336 33.8Z" fill="#414A67"/>
<path d="M45.0669 26.8667V27.5418C47.2734 28.8434 48.6005 31.2392 48.5336 33.8C48.6003 36.3609 47.2732 38.7565 45.0669 40.0582V40.7334C48.4209 40.7334 51.1336 37.6307 51.1336 33.8C51.1336 29.9694 48.4209 26.8667 45.0669 26.8667Z" fill="#7F89CB"/>
<path d="M45.0667 26.8666V40.7333C45.0638 41.6894 44.2895 42.4638 43.3334 42.4666H39.8667V25.1333H43.3334C44.2895 25.1362 45.0638 25.9105 45.0667 26.8666Z" fill="#414A67"/>
<path d="M43.3334 25.1333H40.7334C41.6895 25.1362 42.4639 25.9105 42.4667 26.8666V40.7333C42.4639 41.6894 41.6895 42.4638 40.7334 42.4666H43.3334C44.2895 42.4638 45.0639 41.6894 45.0667 40.7333V26.8666C45.0639 25.9105 44.2895 25.1362 43.3334 25.1333Z" fill="#7F89CB"/>
<path d="M39.8666 25.1333V42.4666H38.1332C37.1771 42.4638 36.4028 41.6894 36.3999 40.7333V26.8666C36.4028 25.9105 37.1771 25.1362 38.1332 25.1333H39.8666Z" fill="#7F89CB"/>
<path d="M40.5819 12.8466C39.8136 12.8492 39.0836 12.5112 38.5886 11.9236C35.4598 8.21026 30.8517 6.06713 25.9959 6.06713C21.1402 6.06713 16.532 8.21026 13.4032 11.9236C12.8043 12.6336 11.872 12.9701 10.9577 12.8064C10.0433 12.6426 9.28577 12.0035 8.97039 11.1298C8.65502 10.2561 8.82973 9.28047 9.42871 8.57048C13.5455 3.68598 19.6079 0.867065 25.9959 0.867065C32.3839 0.867065 38.4463 3.68598 42.5631 8.57048C43.215 9.34352 43.3596 10.4244 42.9337 11.3416C42.5078 12.2588 41.5888 12.8458 40.5776 12.8466H40.5819Z" fill="#414A67"/>
<path d="M42.5674 8.57051C38.4538 3.68179 32.3893 0.8618 26.0002 0.866706C25.5669 0.866706 25.1335 0.882306 24.7002 0.908306C30.625 1.25931 36.1453 4.02976 39.9674 8.57051C40.4651 9.15522 40.6775 9.9307 40.5473 10.6874C40.4171 11.4441 39.9576 12.104 39.2931 12.4887C40.3841 13.1221 41.7727 12.8776 42.5816 11.9096C43.3905 10.9416 43.3845 9.53159 42.5674 8.57051Z" fill="#7F89CB"/>
<path d="M32.0666 48.5333C32.0666 49.9693 30.9025 51.1333 29.4666 51.1333H24.2666V45.9333H29.4666C30.9025 45.9333 32.0666 47.0974 32.0666 48.5333Z" fill="#414A67"/>
<path d="M29.4667 45.9333H26.8667C28.3026 45.9333 29.4667 47.0974 29.4667 48.5333C29.4667 49.9693 28.3026 51.1333 26.8667 51.1333H29.4667C30.9026 51.1333 32.0667 49.9693 32.0667 48.5333C32.0667 47.0974 30.9026 45.9333 29.4667 45.9333Z" fill="#7F89CB"/>
<path d="M24.2664 45.9333V51.1333H22.5331C21.0972 51.1333 19.9331 49.9693 19.9331 48.5333C19.9331 47.0974 21.0972 45.9333 22.5331 45.9333H24.2664Z" fill="#414A67"/>
<path d="M6.93336 40.7333C6.93622 41.6894 7.71059 42.4638 8.6667 42.4666H11.2667C10.3106 42.4638 9.53622 41.6894 9.53336 40.7333C6.17937 40.7333 3.4667 37.6306 3.4667 33.8C3.4667 29.9693 6.17937 26.8666 9.53336 26.8666C9.53622 25.9105 10.3106 25.1362 11.2667 25.1333H8.6667C7.71059 25.1362 6.93622 25.9105 6.93336 26.8666C3.57937 26.8666 0.866699 29.9693 0.866699 33.8C0.866699 37.6306 3.57937 40.7333 6.93336 40.7333Z" fill="#31302F"/>
<path d="M12.7166 12.4895C12.0443 12.1117 11.5774 11.4519 11.4449 10.6922C11.3123 9.93255 11.5282 9.15355 12.0328 8.57044C15.8491 4.02261 21.3729 1.25102 27.3 0.909973C20.4662 0.484376 13.836 3.32706 9.43278 8.57044C8.61593 9.5339 8.61183 10.9457 9.42308 11.9139C10.2343 12.882 11.625 13.1251 12.7166 12.4895Z" fill="#31302F"/>
<path d="M14.2135 3.32971L15.1209 4.80304C13.2289 5.97095 11.5326 7.4295 10.0943 9.12511L8.77002 8.01144C10.3272 6.17448 12.1643 4.59451 14.2135 3.32971Z" fill="#31302F"/>
<path d="M12.1333 33.8C12.6119 33.8 12.9999 33.412 12.9999 32.9334V31.2C12.9999 30.7214 12.6119 30.3334 12.1333 30.3334C11.6546 30.3334 11.2666 30.7214 11.2666 31.2V32.9334C11.2666 33.412 11.6546 33.8 12.1333 33.8Z" fill="#5766CB"/>
<path d="M45.9333 26.0676V22.5333C45.9314 19.0045 44.9903 15.5397 43.2068 12.4947C44.319 11.2105 44.3289 9.30724 43.2302 8.01147C38.9516 2.92766 32.6446 -0.00486914 26 6.06898e-06C23.9299 0.00940105 21.8703 0.294143 19.8753 0.846739C17.8845 1.4149 15.9798 2.25016 14.2133 3.32974C14.0133 3.45012 13.8709 3.64674 13.8189 3.87432C13.7669 4.1019 13.8098 4.34085 13.9377 4.53614C14.1955 4.92934 14.7178 5.04873 15.1207 4.80654C16.751 3.80997 18.5087 3.03857 20.3459 2.51334C22.1878 2.00445 24.0891 1.74216 26 1.73334C32.1336 1.72889 37.9555 4.43585 41.9051 9.12861C42.2017 9.48001 42.3465 9.93488 42.3077 10.3931C42.2688 10.8513 42.0495 11.2753 41.6979 11.5717C40.9581 12.1625 39.8855 12.0715 39.2557 11.3646C35.9622 7.45565 31.1114 5.19961 26 5.19961C20.8886 5.19961 16.0378 7.45565 12.7443 11.3646C12.1269 12.0962 11.0332 12.1888 10.3016 11.5713C9.57002 10.9539 9.47748 9.86022 10.0949 9.12861C10.2992 8.89244 10.3606 8.56466 10.2557 8.27057C10.1509 7.97647 9.89589 7.76152 9.58829 7.70789C9.28069 7.65425 8.96802 7.77023 8.7698 8.01147C7.67109 9.30724 7.68102 11.2105 8.7932 12.4947C7.00967 15.5397 6.06862 19.0045 6.06667 22.5333V26.0676C2.652 26.5503 0 29.8298 0 33.8C0 37.8274 2.7274 41.1511 6.21313 41.5575C6.46727 42.3105 7.05182 42.9059 7.8 43.1739V43.3333C7.8043 46.6821 10.5179 49.3957 13.8667 49.4H19.1897C19.5837 50.9259 20.9574 51.9941 22.5333 52H29.4667C31.3813 52 32.9333 50.4479 32.9333 48.5333C32.9333 46.6188 31.3813 45.0667 29.4667 45.0667H22.5333C20.9574 45.0726 19.5837 46.1408 19.1897 47.6667H13.8667C11.4746 47.6638 9.5362 45.7254 9.53333 43.3333H13.8667C15.3026 43.3333 16.4667 42.1693 16.4667 40.7333V26.8667C16.4667 25.4307 15.3026 24.2667 13.8667 24.2667H8.66667C8.37075 24.2695 8.07756 24.3235 7.8 24.4261V22.5333C7.80135 19.3573 8.63569 16.2372 10.2197 13.4845C11.5865 13.9926 13.1252 13.5912 14.0695 12.48C17.0335 8.96164 21.3995 6.931 26 6.931C30.6005 6.931 34.9664 8.96164 37.9305 12.48C38.8719 13.599 40.4155 14.0047 41.7855 13.4931C43.3663 16.2438 44.1988 19.3607 44.2 22.5333V24.4261C43.9224 24.3235 43.6292 24.2695 43.3333 24.2667H38.1333C36.6974 24.2667 35.5333 25.4307 35.5333 26.8667V40.7333C35.5333 42.1693 36.6974 43.3333 38.1333 43.3333H43.3333C44.4477 43.3299 45.4354 42.6151 45.7869 41.5575C49.2726 41.1511 52 37.8274 52 33.8C52 29.8298 49.348 26.5503 45.9333 26.0676ZM31.2 48.5333C31.2 49.4906 30.424 50.2667 29.4667 50.2667H25.1333V46.8H29.4667C30.424 46.8 31.2 47.576 31.2 48.5333ZM22.5333 46.8H23.4V50.2667H22.5333C21.576 50.2667 20.8 49.4906 20.8 48.5333C20.8 47.576 21.576 46.8 22.5333 46.8ZM1.73333 33.8C1.73333 30.8005 3.6114 28.3079 6.06667 27.82V39.78C3.6114 39.2912 1.73333 36.7995 1.73333 33.8ZM8.66667 26H11.2667V27.7333C11.2667 28.212 11.6547 28.6 12.1333 28.6C12.612 28.6 13 28.212 13 27.7333V26H13.8667C14.3453 26 14.7333 26.388 14.7333 26.8667V40.7333C14.7333 41.212 14.3453 41.6 13.8667 41.6H13V36.4C13 35.9214 12.612 35.5333 12.1333 35.5333C11.6547 35.5333 11.2667 35.9214 11.2667 36.4V41.6H8.66667C8.18802 41.6 7.8 41.212 7.8 40.7333V26.8667C7.8 26.388 8.18802 26 8.66667 26ZM43.3333 41.6H40.7333V36.4C40.7333 35.9214 40.3453 35.5333 39.8667 35.5333C39.388 35.5333 39 35.9214 39 36.4V41.6H38.1333C37.6547 41.6 37.2667 41.212 37.2667 40.7333V26.8667C37.2667 26.388 37.6547 26 38.1333 26H39V27.7333C39 28.212 39.388 28.6 39.8667 28.6C40.3453 28.6 40.7333 28.212 40.7333 27.7333V26H43.3333C43.812 26 44.2 26.388 44.2 26.8667V40.7333C44.2 41.212 43.812 41.6 43.3333 41.6ZM45.9333 39.78V27.82C48.3886 28.3036 50.2667 30.7961 50.2667 33.8C50.2667 36.8039 48.3886 39.2912 45.9333 39.78Z" fill="#5766CB"/>
<path d="M39.8667 30.3334C39.388 30.3334 39 30.7214 39 31.2V32.9334C39 33.412 39.388 33.8 39.8667 33.8C40.3453 33.8 40.7333 33.412 40.7333 32.9334V31.2C40.7333 30.7214 40.3453 30.3334 39.8667 30.3334Z" fill="#5766CB"/>
<path d="M11.8847 6.97491C11.406 6.97731 11.0161 6.59123 11.0137 6.11258C11.0113 5.63393 11.3974 5.24397 11.876 5.24158H11.8847C12.3633 5.24158 12.7514 5.6296 12.7514 6.10824C12.7514 6.58689 12.3633 6.97491 11.8847 6.97491Z" fill="#5766CB"/>
</g>
<defs>
<clipPath id="clip0">
<rect width="52" height="52" fill="white"/>
</clipPath>
</defs>
</svg>
