<svg width="52" height="52" viewBox="0 0 52 52" fill="none" xmlns="http://www.w3.org/2000/svg">
<g clip-path="url(#clip0)">
<path d="M24.2669 47.6667C24.2704 49.4109 22.9775 50.8862 21.2478 51.1114C19.5182 51.3366 17.8906 50.2416 17.4474 48.5547C17.0041 46.8677 17.8833 45.1141 19.5002 44.46C20.5676 44.0282 21.7798 44.1546 22.7352 44.7973C23.6906 45.4401 24.2645 46.5152 24.2669 47.6667Z" fill="#FBA37B" fill-opacity="0.06"/>
<path d="M45.0667 47.6667C45.0702 49.4109 43.7773 50.8862 42.0476 51.1114C40.318 51.3366 38.6904 50.2416 38.2472 48.5547C37.8039 46.8677 38.6831 45.1141 40.3 44.46C41.3675 44.0282 42.5796 44.1546 43.535 44.7973C44.4904 45.4401 45.0643 46.5152 45.0667 47.6667Z" fill="#FBA37B" fill-opacity="0.06"/>
<path d="M19.5 50.8733C18.1996 50.3391 17.3506 49.0725 17.3506 47.6666C17.3506 46.2608 18.1996 44.9941 19.5 44.46C20.8004 44.9941 21.6495 46.2608 21.6495 47.6666C21.6495 49.0725 20.8004 50.3391 19.5 50.8733Z" fill="#FA8752" fill-opacity="0.06"/>
<path d="M40.2998 50.8733C38.9994 50.3391 38.1504 49.0725 38.1504 47.6666C38.1504 46.2608 38.9994 44.9941 40.2998 44.46C41.6002 44.9941 42.4493 46.2608 42.4493 47.6666C42.4493 49.0725 41.6002 50.3391 40.2998 50.8733Z" fill="#FA8752" fill-opacity="0.06"/>
<path d="M47.0773 40.7333H22.386C21.9703 40.7426 21.6066 40.4553 21.5194 40.0487L17.5414 21.8487C17.4856 21.5894 17.5516 21.3188 17.7206 21.1144C17.8896 20.9099 18.1429 20.7941 18.408 20.8H50.2667C50.5245 20.7963 50.7706 20.9075 50.9381 21.1035C51.1057 21.2995 51.1772 21.5599 51.1333 21.814L47.9527 40.014C47.8797 40.4377 47.5072 40.7439 47.0773 40.7333Z" fill="#FA8752" fill-opacity="0.06"/>
<path d="M50.267 20.8H47.667C47.9248 20.7963 48.1709 20.9075 48.3384 21.1035C48.506 21.2995 48.5775 21.5599 48.5337 21.814L45.353 40.014C45.2805 40.4344 44.9129 40.7396 44.4863 40.7334L47.0863 40.7334C47.5129 40.7396 47.8805 40.4344 47.953 40.014L51.1336 21.814C51.1775 21.5599 51.106 21.2995 50.9384 21.1035C50.7709 20.9075 50.5248 20.7963 50.267 20.8Z" fill="#FBA37B" fill-opacity="0.06"/>
<path d="M29.9003 12.5667H22.1003C21.861 12.5667 21.667 12.7607 21.667 13V20.3666C21.667 20.606 21.861 20.8 22.1003 20.8H29.9003C30.1396 20.8 30.3337 20.606 30.3337 20.3666V13C30.3337 12.7607 30.1396 12.5667 29.9003 12.5667Z" fill="#FFD8C6" fill-opacity="0.06"/>
<path d="M27.3003 12.5667H22.1003C21.861 12.5667 21.667 12.7607 21.667 13V20.3666C21.667 20.606 21.861 20.8 22.1003 20.8H27.3003C27.5396 20.8 27.7337 20.606 27.7337 20.3666V13C27.7337 12.7607 27.5396 12.5667 27.3003 12.5667Z" fill="#FA8752" fill-opacity="0.06"/>
<path d="M45.8379 9.9667H44.6333C44.394 9.9667 44.1999 10.1607 44.1999 10.4V20.3667C44.1999 20.606 44.0059 20.8 43.7666 20.8H35.9666C35.7273 20.8 35.5333 20.606 35.5333 20.3667V10.4C35.5333 10.1607 35.3393 9.9667 35.0999 9.9667H33.8953C33.726 9.9648 33.5733 9.86447 33.5043 9.70983C33.4354 9.55518 33.4629 9.37455 33.5746 9.24736L39.5459 1.01403C39.625 0.918403 39.7426 0.863037 39.8666 0.863037C39.9907 0.863037 40.1082 0.918403 40.1873 1.01403L46.1586 9.24736C46.2704 9.37455 46.2978 9.55518 46.2289 9.70983C46.1599 9.86447 46.0072 9.9648 45.8379 9.9667Z" fill="#FFD8C6" fill-opacity="0.06"/>
<path d="M43.2379 9.96663H42.0333C41.794 9.96663 41.5999 10.1606 41.5999 10.4V20.3666C41.5999 20.606 41.4059 20.8 41.1666 20.8H35.9666C35.7273 20.8 35.5333 20.606 35.5333 20.3666V10.4C35.5333 10.1606 35.3393 9.96663 35.0999 9.96663H33.8953C33.726 9.96474 33.5733 9.86441 33.5043 9.70976C33.4354 9.55512 33.4629 9.37449 33.5746 9.2473L38.5666 2.36597L43.5586 9.2473C43.6704 9.37449 43.6978 9.55512 43.6289 9.70976C43.5599 9.86441 43.4073 9.96474 43.2379 9.96663Z" fill="#FA8752" fill-opacity="0.06"/>
<path d="M9.53353 20.3667V22.9667C9.53353 23.206 9.33952 23.4 9.10019 23.4H5.2002V19.9333H9.10019C9.33952 19.9333 9.53353 20.1274 9.53353 20.3667Z" fill="#FFD8C6" fill-opacity="0.06"/>
<path d="M5.20013 19.9333V23.4H2.60013C1.90133 23.3971 1.27263 22.9748 1.00561 22.329C0.738582 21.6832 0.885462 20.9403 1.37813 20.4447C1.7017 20.1192 2.14116 19.9353 2.60013 19.9333H5.20013Z" fill="#FA8752" fill-opacity="0.06"/>
<path d="M5.20013 19.9335H2.60013C2.14116 19.9354 1.7017 20.1193 1.37813 20.4448C0.885462 20.9404 0.738582 21.6834 1.00561 22.3292C1.27263 22.9749 1.90133 23.3972 2.60013 23.4001H5.20013C4.50133 23.3972 3.87263 22.9749 3.60561 22.3292C3.33858 21.6834 3.48546 20.9404 3.97813 20.4448C4.3017 20.1193 4.74116 19.9354 5.20013 19.9335Z" fill="#31302F"/>
<path d="M21.0168 20.8001H18.4168C18.1516 20.7942 17.8984 20.91 17.7294 21.1145C17.5604 21.3189 17.4944 21.5895 17.5501 21.8488L21.5281 40.0488C21.6154 40.4554 21.9791 40.7427 22.3948 40.7335H24.9948C24.5791 40.7427 24.2154 40.4554 24.1281 40.0488L20.1501 21.8488C20.0944 21.5895 20.1604 21.3189 20.3294 21.1145C20.4984 20.91 20.7516 20.7942 21.0168 20.8001Z" fill="#31302F"/>
<path d="M24.7003 12.5668H22.1003C21.861 12.5668 21.667 12.7608 21.667 13.0001V20.3668C21.667 20.6061 21.861 20.8001 22.1003 20.8001H24.7003C24.461 20.8001 24.267 20.6061 24.267 20.3668V13.0001C24.267 12.7608 24.461 12.5668 24.7003 12.5668Z" fill="#31302F"/>
<path d="M19.5 50.8735C20.3302 51.2291 21.2698 51.2291 22.1 50.8735C20.7996 50.3393 19.9506 49.0727 19.9506 47.6668C19.9506 46.261 20.7996 44.9943 22.1 44.4602C21.2698 44.1046 20.3302 44.1046 19.5 44.4602C18.1996 44.9943 17.3506 46.261 17.3506 47.6668C17.3506 49.0727 18.1996 50.3393 19.5 50.8735Z" fill="#31302F"/>
<path d="M13.4243 23.9391L15.1265 23.6115L16.4369 30.42L14.7347 30.7476L13.4243 23.9391Z" fill="#31302F"/>
<path d="M20.4706 46.8694C20.3642 46.9107 20.267 46.9725 20.1846 47.0514C19.9346 47.2994 19.8595 47.6739 19.9945 47.9991C20.1295 48.3243 20.4479 48.5355 20.8 48.5334H20.9733C21.0276 48.5239 21.0802 48.5064 21.1293 48.4814L21.2853 48.4034L21.4153 48.2994C21.4918 48.2152 21.5534 48.1185 21.5973 48.0134C21.6485 47.9053 21.6723 47.7863 21.6666 47.6668C21.6634 47.4373 21.5737 47.2175 21.4153 47.0514C21.1661 46.8055 20.7934 46.7337 20.4706 46.8694Z" fill="#E25F23"/>
<path d="M41.6002 48.5334H41.7736C41.8279 48.5239 41.8805 48.5064 41.9296 48.4814L42.0856 48.4034L42.2156 48.2994C42.2921 48.2152 42.3537 48.1185 42.3976 48.0134C42.4488 47.9053 42.4726 47.7863 42.4669 47.6668C42.4637 47.4373 42.3739 47.2175 42.2156 47.0514C41.9664 46.8055 41.5937 46.7337 41.2709 46.8694C41.1645 46.9107 41.0673 46.9725 40.9849 47.0514C40.7349 47.2994 40.6598 47.6739 40.7948 47.9991C40.9298 48.3243 41.2482 48.5355 41.6002 48.5334Z" fill="#E25F23"/>
<path d="M9.1 19.0668H2.6C1.16406 19.0668 0 20.2308 0 21.6668C0 23.1027 1.16406 24.2668 2.6 24.2668H9.1C9.81797 24.2668 10.4 23.6847 10.4 22.9668V22.5334H11.7173C12.5595 22.5181 13.2908 23.1105 13.4507 23.9374C13.5306 24.3509 13.8963 24.6471 14.3173 24.6394H14.482C14.7089 24.5955 14.9088 24.4628 15.0374 24.2707C15.1659 24.0787 15.2125 23.8433 15.1667 23.6168C14.8517 21.9659 13.3979 20.7787 11.7173 20.8001H10.4V20.3668C10.4 19.6488 9.81797 19.0668 9.1 19.0668ZM1.73333 21.6668C1.73333 21.1881 2.12135 20.8001 2.6 20.8001H4.33333V22.5334H2.6C2.12135 22.5334 1.73333 22.1454 1.73333 21.6668ZM8.66667 22.5334H6.06667V20.8001H8.66667V22.5334Z" fill="#E25F23"/>
<path d="M14.9414 28.0453C14.4627 28.0453 14.0747 27.6573 14.0747 27.1787C14.0747 26.7 14.4627 26.312 14.9414 26.312C15.42 26.312 15.808 26.7 15.808 27.1787C15.808 27.6573 15.42 28.0453 14.9414 28.0453Z" fill="#E25F23"/>
<path d="M23.3999 26H38.9999C39.4785 26 39.8665 25.612 39.8665 25.1334C39.8665 24.6547 39.4785 24.2667 38.9999 24.2667H23.3999C22.9212 24.2667 22.5332 24.6547 22.5332 25.1334C22.5332 25.612 22.9212 26 23.3999 26Z" fill="#E25F23"/>
<path d="M42.4668 24.2667C41.9881 24.2667 41.6001 24.6547 41.6001 25.1334C41.6001 25.612 41.9881 26 42.4668 26H46.8001C47.2787 26 47.6668 25.612 47.6668 25.1334C47.6668 24.6547 47.2787 24.2667 46.8001 24.2667H42.4668Z" fill="#E25F23"/>
<path d="M32.9332 29.4667C33.4118 29.4667 33.7998 29.0787 33.7998 28.6001C33.7998 28.1214 33.4118 27.7334 32.9332 27.7334H22.5332C22.0545 27.7334 21.6665 28.1214 21.6665 28.6001C21.6665 29.0787 22.0545 29.4667 22.5332 29.4667H32.9332Z" fill="#E25F23"/>
<path d="M45.0666 27.7334H37.2666C36.7879 27.7334 36.3999 28.1214 36.3999 28.6001C36.3999 29.0787 36.7879 29.4667 37.2666 29.4667H45.0666C45.5452 29.4667 45.9332 29.0787 45.9332 28.6001C45.9332 28.1214 45.5452 27.7334 45.0666 27.7334Z" fill="#E25F23"/>
<path d="M31.1999 32.0667C31.1999 31.5881 30.8119 31.2001 30.3332 31.2001H23.3999C22.9212 31.2001 22.5332 31.5881 22.5332 32.0667C22.5332 32.5454 22.9212 32.9334 23.3999 32.9334H30.3332C30.8119 32.9334 31.1999 32.5454 31.1999 32.0667Z" fill="#E25F23"/>
<path d="M44.1998 31.2001H34.6665C34.1878 31.2001 33.7998 31.5881 33.7998 32.0667C33.7998 32.5454 34.1878 32.9334 34.6665 32.9334H44.1998C44.6784 32.9334 45.0665 32.5454 45.0665 32.0667C45.0665 31.5881 44.6784 31.2001 44.1998 31.2001Z" fill="#E25F23"/>
<path d="M34.6666 34.6667H25.1333C24.6546 34.6667 24.2666 35.0548 24.2666 35.5334C24.2666 36.0121 24.6546 36.4001 25.1333 36.4001H34.6666C35.1452 36.4001 35.5333 36.0121 35.5333 35.5334C35.5333 35.0548 35.1452 34.6667 34.6666 34.6667Z" fill="#E25F23"/>
<path d="M43.3333 34.6667H38.1333C37.6546 34.6667 37.2666 35.0548 37.2666 35.5334C37.2666 36.0121 37.6546 36.4001 38.1333 36.4001H43.3333C43.8119 36.4001 44.1999 36.0121 44.1999 35.5334C44.1999 35.0548 43.8119 34.6667 43.3333 34.6667Z" fill="#E25F23"/>
<path d="M29.8999 11.7H22.0999C21.3819 11.7 20.7999 12.2821 20.7999 13V19.9334H18.4166C17.8843 19.9209 17.3759 20.1537 17.0376 20.5647C16.6993 20.9758 16.5686 21.5195 16.6832 22.0394L20.6526 40.2394C20.8306 41.0491 21.5571 41.6194 22.3859 41.6H47.0772C47.9304 41.6124 48.6656 41.0022 48.8106 40.1614L51.9913 21.9614C52.0787 21.4547 51.9367 20.9354 51.6036 20.5437C51.2705 20.152 50.7807 19.9285 50.2666 19.9334H45.0666V10.8334H45.8379C46.3488 10.8321 46.8109 10.5297 47.0166 10.062C47.2253 9.62705 47.1645 9.11074 46.8606 8.73605L40.8372 0.433382C40.5838 0.168493 40.2332 0.0186768 39.8666 0.0186768C39.5 0.0186768 39.1493 0.168493 38.8959 0.433382L38.8439 0.502715L32.9332 8.66671C32.5992 9.05137 32.5187 9.59493 32.727 10.0599C32.9353 10.5248 33.3945 10.8266 33.9039 10.8334H34.6666V19.9334H31.1999V13C31.1999 12.2821 30.6179 11.7 29.8999 11.7ZM22.5332 13.4334H29.4666V19.9334H22.5332V13.4334ZM50.2666 21.6667L47.0859 39.8667H22.3859L18.4166 21.6667H50.2666ZM35.0999 9.10005H34.7532L39.8666 2.04538L44.9886 9.10005H44.6332C43.9153 9.10005 43.3332 9.68208 43.3332 10.4V19.9334H36.3999V10.4C36.3999 9.68208 35.8179 9.10005 35.0999 9.10005Z" fill="#E25F23"/>
<path d="M0.866667 52.0001H4.33333C4.81198 52.0001 5.2 51.612 5.2 51.1334C5.2 50.6547 4.81198 50.2667 4.33333 50.2667H0.866667C0.38802 50.2667 0 50.6547 0 51.1334C0 51.612 0.38802 52.0001 0.866667 52.0001Z" fill="#E25F23"/>
<path d="M51.1331 50.2667H45.0665C46.2579 48.7381 46.2579 46.5953 45.0665 45.0667H45.9331C46.4118 45.0667 46.7998 44.6787 46.7998 44.2C46.7998 43.7214 46.4118 43.3334 45.9331 43.3334H18.9191L16.4664 30.42C16.4076 30.1104 16.1881 29.8557 15.8905 29.7518C15.5929 29.6479 15.2626 29.7107 15.0238 29.9165C14.7851 30.1222 14.6743 30.4397 14.7331 30.7494L17.2118 43.6627C17.2844 44.0228 17.4695 44.3506 17.7404 44.5987C16.9251 45.4115 16.4667 46.5154 16.4664 47.6667C16.4614 48.6051 16.766 49.519 17.3331 50.2667H7.79977C7.32113 50.2667 6.93311 50.6547 6.93311 51.1334C6.93311 51.612 7.32113 52 7.79977 52H51.1331C51.6118 52 51.9998 51.612 51.9998 51.1334C51.9998 50.6547 51.6118 50.2667 51.1331 50.2667ZM44.1998 47.6667C44.1998 49.1026 43.0357 50.2667 41.5998 50.2667C40.1638 50.2667 38.9998 49.1026 38.9998 47.6667C38.9998 46.2308 40.1638 45.0667 41.5998 45.0667C43.0357 45.0667 44.1998 46.2308 44.1998 47.6667ZM38.1331 50.2667H24.2664C25.4579 48.7381 25.4579 46.5953 24.2664 45.0667H38.1331C36.9417 46.5953 36.9417 48.7381 38.1331 50.2667ZM18.1998 47.6667C18.1998 46.2308 19.3638 45.0667 20.7998 45.0667C22.2357 45.0667 23.3998 46.2308 23.3998 47.6667C23.3998 49.1026 22.2357 50.2667 20.7998 50.2667C19.3638 50.2667 18.1998 49.1026 18.1998 47.6667Z" fill="#E25F23"/>
<path d="M20.7998 48.5334C20.3211 48.5334 19.9331 48.1454 19.9331 47.6667C19.9331 47.1881 20.3211 46.8 20.7998 46.8C21.2784 46.8 21.6664 47.1881 21.6664 47.6667C21.6664 48.1454 21.2784 48.5334 20.7998 48.5334Z" fill="#E25F23"/>
<path d="M41.6001 48.5334C41.1214 48.5334 40.7334 48.1454 40.7334 47.6667C40.7334 47.1881 41.1214 46.8 41.6001 46.8C42.0787 46.8 42.4667 47.1881 42.4667 47.6667C42.4667 48.1454 42.0787 48.5334 41.6001 48.5334Z" fill="#E25F23"/>
</g>
<defs>
<clipPath id="clip0">
<rect width="52" height="52" fill="white"/>
</clipPath>
</defs>
</svg>
