<svg width="41" height="41" viewBox="0 0 41 41" fill="none" xmlns="http://www.w3.org/2000/svg">
<g clip-path="url(#clip0)">
<path d="M40.1553 10.6579C39.6826 8.90155 38.2978 7.51708 36.5417 7.04412C33.3333 6.16608 20.4996 6.16608 20.4996 6.16608C20.4996 6.16608 7.6662 6.16608 4.45777 7.01065C2.73547 7.48329 1.3169 8.90186 0.844258 10.6579C0 13.8661 0 20.5194 0 20.5194C0 20.5194 0 27.2062 0.844258 30.3808C1.31722 32.1369 2.70169 33.5217 4.45808 33.9947C7.69998 34.8727 20.4999 34.8727 20.4999 34.8727C20.4999 34.8727 33.3333 34.8727 36.5417 34.0281C38.2981 33.5555 39.6826 32.1707 40.1556 30.4146C40.9998 27.2062 40.9998 20.5532 40.9998 20.5532C40.9998 20.5532 41.0336 13.8661 40.1553 10.6579Z" fill="#FF0000"/>
<path d="M16.4136 26.666L27.0855 20.5194L16.4136 14.3727V26.666Z" fill="white"/>
</g>
<defs>
<clipPath id="clip0">
<rect width="41" height="41" fill="white"/>
</clipPath>
</defs>
</svg>
